M48
; DRILL file {KiCad 8.0.9-8.0.9-0~ubuntu22.04.1} date 2025-02-26T12:05:27+0800
; FORMAT={-:-/ absolute / metric / decimal}
; #@! TF.CreationDate,2025-02-26T12:05:27+08:00
; #@! TF.GenerationSoftware,Kicad,Pcbnew,8.0.9-8.0.9-0~ubuntu22.04.1
; #@! TF.FileFunction,Plated,1,4,PTH
FMAT,2
METRIC
; #@! TA.AperFunction,Plated,PTH,ViaDrill
T1C0.300
; #@! TA.AperFunction,Plated,PTH,ComponentDrill
T2C0.500
; #@! TA.AperFunction,Plated,PTH,ComponentDrill
T3C0.600
; #@! TA.AperFunction,Plated,PTH,ComponentDrill
T4C1.000
; #@! TA.AperFunction,Plated,PTH,ComponentDrill
T5C1.500
; #@! TA.AperFunction,Plated,PTH,ComponentDrill
T6C1.700
%
G90
G05
T1
X25.25Y40.25
X25.25Y39.25
X29.25Y35.75
X29.25Y34.75
X30.05Y33.0
X30.25Y35.5
X30.25Y34.5
X30.635Y42.475
X31.95Y33.0
X32.25Y41.0
X34.5Y39.5
X49.75Y44.5
X49.75Y43.5
X50.25Y39.25
X50.25Y36.25
X52.25Y40.95
X52.25Y39.05
X52.25Y36.45
X52.25Y34.55
X54.0Y46.2
X54.0Y39.5
X54.025Y44.275
X54.5Y37.75
X55.0Y39.5
X55.5Y44.25
X55.5Y43.5
X55.5Y37.75
X57.0Y29.5
X57.0Y28.75
X57.0Y28.0
X57.5Y32.0
X57.75Y28.75
X57.75Y28.0
X58.0Y30.5
X58.0Y29.5
X58.5Y46.75
X58.5Y45.75
X58.5Y43.0
X59.175Y30.75
X61.062Y27.5
X62.0Y28.0
X62.0Y27.0
X64.5Y40.8
X65.5Y41.8
X65.5Y40.8
X67.0Y42.2
X67.0Y40.3
X88.5Y35.0
X88.5Y34.0
X89.5Y35.0
X89.5Y34.0
X90.0Y77.5
X90.0Y75.0
X90.0Y60.0
X90.0Y50.0
X90.0Y39.5
X90.0Y37.0
X90.0Y32.5
X90.0Y22.5
X90.0Y17.5
X90.0Y12.5
X90.0Y7.5
X90.0Y2.5
X91.5Y38.25
X91.5Y36.5
X92.0Y39.0
X92.0Y36.0
X92.5Y77.5
X92.5Y75.0
X92.5Y40.0
X92.5Y27.5
X92.5Y7.5
X92.5Y2.5
X93.0Y43.5
X93.0Y29.5
X93.5Y44.0
X93.5Y27.0
X94.0Y39.5
X94.0Y26.5
X94.5Y40.0
X94.5Y26.0
X95.0Y50.0
X95.0Y40.5
X95.0Y25.5
X95.5Y18.25
X96.0Y15.5
X96.25Y36.0
X96.5Y33.75
X96.5Y32.75
X96.5Y31.75
X96.75Y45.75
X96.75Y41.25
X96.75Y40.25
X96.75Y39.25
X97.0Y35.5
X97.0Y14.75
X97.5Y35.0
X97.5Y31.75
X97.5Y30.5
X97.75Y45.75
X97.75Y41.25
X97.75Y39.25
X98.0Y34.5
X98.75Y30.25
X98.75Y24.5
X100.5Y45.25
X100.5Y40.75
X100.5Y33.75
X100.5Y32.75
X101.0Y33.25
X101.5Y53.5
X101.5Y52.5
X102.0Y49.5
X102.5Y53.5
X102.75Y49.0
X103.5Y53.5
X103.5Y49.5
X105.75Y60.0
X105.75Y30.5
X106.25Y27.75
X106.25Y26.75
X107.5Y17.5
X107.5Y12.5
X107.5Y2.5
X107.75Y58.25
X107.75Y46.75
X107.75Y30.5
X107.75Y23.575
X109.25Y53.25
X109.25Y52.25
X109.25Y49.25
X109.75Y58.25
X109.75Y46.25
X110.0Y40.0
X110.25Y49.25
X110.75Y30.5
X111.0Y62.5
X111.25Y27.75
X111.25Y26.75
X111.75Y58.25
X111.75Y45.5
X112.0Y62.5
X112.25Y26.75
X112.5Y72.5
X112.5Y37.5
X112.75Y30.75
X112.75Y12.5
X113.5Y72.5
X113.5Y71.5
X113.5Y70.0
X114.0Y67.0
X114.0Y58.25
X114.0Y44.0
X114.0Y30.75
X114.5Y72.5
X114.5Y25.0
X114.5Y23.575
X114.75Y53.25
X115.0Y77.5
X115.0Y67.0
X115.0Y63.5
X115.0Y62.5
X115.75Y49.25
X116.0Y66.0
X116.0Y30.75
X116.0Y26.25
X116.25Y53.25
X116.25Y52.25
X116.5Y22.5
X116.75Y49.25
X116.75Y30.5
X117.0Y26.25
X117.25Y28.0
X118.0Y39.5
X118.0Y26.25
X118.25Y30.5
X118.75Y39.5
X119.0Y45.0
X119.0Y44.25
X119.0Y38.25
X119.0Y26.25
X119.25Y48.0
X119.25Y47.0
X119.25Y37.25
X119.25Y36.5
X119.5Y45.5
X119.5Y39.5
X119.5Y34.5
X119.5Y33.5
X119.67Y7.5
X119.75Y38.25
X119.75Y8.5
X120.0Y27.75
X120.0Y26.75
X120.0Y22.5
X122.25Y40.75
X122.25Y39.75
X122.25Y36.05
X122.25Y33.5
X122.5Y49.75
X122.5Y47.75
X122.5Y46.75
X122.5Y45.75
X123.25Y40.5
X123.25Y39.5
X123.25Y37.0
X123.25Y36.0
X123.25Y35.0
X123.5Y49.75
X123.5Y48.75
X123.5Y47.75
X123.5Y46.75
X123.5Y45.75
X123.5Y44.75
X124.25Y40.5
X124.25Y39.5
X124.25Y37.0
X124.25Y36.0
X124.25Y35.0
X124.67Y7.5
X124.75Y29.25
X124.75Y28.25
X124.75Y24.5
X124.75Y8.5
X125.0Y65.0
X125.25Y37.0
X125.25Y36.0
X125.25Y35.0
X125.5Y40.5
X125.5Y39.25
X126.4Y45.85
X126.5Y40.5
X126.5Y39.25
X126.5Y33.5
X127.0Y47.25
X127.0Y34.0
X127.0Y33.0
X127.17Y7.5
X127.25Y8.5
X127.5Y40.5
X127.5Y39.25
X127.5Y33.5
X127.5Y22.5
X128.0Y42.75
X128.6Y44.15
X129.0Y30.5
X129.5Y29.5
X129.67Y7.5
X129.75Y8.5
X130.0Y51.0
X130.5Y50.5
X131.5Y40.725
X131.5Y39.275
X132.17Y7.5
X132.25Y12.5
X132.25Y8.5
X132.5Y48.0
X132.5Y47.0
X132.75Y49.0
X133.5Y49.5
X133.5Y47.75
X134.062Y48.45
X134.365Y42.625
X136.0Y17.25
X137.0Y19.25
X137.0Y13.75
X138.5Y18.17
X138.5Y16.42
X138.5Y14.08
X139.25Y40.17
X139.5Y41.75
X139.5Y38.25
X140.0Y16.75
X140.0Y13.75
X140.25Y39.83
X141.0Y17.75
X141.0Y12.75
X141.5Y42.5
X141.5Y37.5
X145.0Y77.5
X145.0Y75.0
X145.0Y5.0
X145.0Y2.5
X147.5Y77.5
X147.5Y75.0
X147.5Y5.0
X147.5Y2.5
T2
X17.5Y40.0
X37.5Y40.5
X37.5Y32.5
X41.5Y39.0
X75.0Y25.0
X105.75Y21.5
X111.25Y20.0
X113.75Y20.0
X121.25Y55.0
X123.75Y55.0
X133.75Y32.5
X136.25Y32.5
X140.0Y47.5
T4
X46.2Y66.265
X46.2Y63.725
X48.74Y66.265
X48.74Y63.725
X51.28Y66.265
X51.28Y63.725
X53.82Y66.265
X53.82Y63.725
X80.0Y57.5
X80.0Y54.96
X80.0Y52.42
X80.0Y49.88
X80.0Y47.34
X80.0Y44.8
X80.0Y42.26
X80.0Y39.72
X80.0Y37.18
X80.0Y34.64
X80.0Y32.1
X80.0Y29.56
X80.0Y27.02
X80.0Y24.48
X82.54Y57.5
X82.54Y54.96
X82.54Y52.42
X82.54Y49.88
X82.54Y47.34
X82.54Y44.8
X82.54Y42.26
X82.54Y39.72
X82.54Y37.18
X82.54Y34.64
X82.54Y32.1
X82.54Y29.56
X82.54Y27.02
X82.54Y24.48
X89.925Y5.0
X90.0Y27.54
X90.0Y25.0
X92.465Y5.0
X95.005Y5.0
X97.545Y5.0
X100.085Y5.0
X116.125Y5.0
X118.665Y5.0
X121.205Y5.0
X123.745Y5.0
X126.285Y5.0
X128.825Y5.0
X131.365Y5.0
X133.905Y5.0
T5
X10.0Y40.0
T6
X7.46Y42.54
X7.46Y37.46
X12.54Y42.54
X12.54Y37.46
T3
X142.67Y44.32G85X143.77Y44.32
G05
X142.67Y35.68G85X143.77Y35.68
G05
X142.67Y19.32G85X143.77Y19.32
G05
X142.67Y10.68G85X143.77Y10.68
G05
X147.1Y44.32G85X147.7Y44.32
G05
X147.1Y35.68G85X147.7Y35.68
G05
X147.1Y19.32G85X147.7Y19.32
G05
X147.1Y10.68G85X147.7Y10.68
G05
M30
