%TF.GenerationSoftware,KiCad,Pcbnew,8.0.9-8.0.9-0~ubuntu22.04.1*%
%TF.CreationDate,2025-02-26T12:05:28+08:00*%
%TF.ProjectId,dcmiad32h7,64636d69-6164-4333-9268-372e6b696361,rev?*%
%TF.SameCoordinates,PX2faf080PY8583b00*%
%TF.FileFunction,Drillmap*%
%TF.FilePolarity,Positive*%
%FSLAX45Y45*%
G04 Gerber Fmt 4.5, Leading zero omitted, Abs format (unit mm)*
G04 Created by KiCad (PCBNEW 8.0.9-8.0.9-0~ubuntu22.04.1) date 2025-02-26 12:05:28*
%MOMM*%
%LPD*%
G01*
G04 APERTURE LIST*
%ADD10C,0.050000*%
%ADD11C,0.200000*%
%ADD12C,0.100000*%
%ADD13C,0.150000*%
%ADD14C,0.170000*%
G04 APERTURE END LIST*
D10*
X0Y8000000D02*
X15000000Y8000000D01*
X15000000Y0D01*
X0Y0D01*
X0Y8000000D01*
D11*
D12*
X2510000Y4040000D02*
X2540000Y4010000D01*
X2540000Y4040000D02*
X2510000Y4010000D01*
X2510000Y3940000D02*
X2540000Y3910000D01*
X2540000Y3940000D02*
X2510000Y3910000D01*
X2910000Y3590000D02*
X2940000Y3560000D01*
X2940000Y3590000D02*
X2910000Y3560000D01*
X2910000Y3490000D02*
X2940000Y3460000D01*
X2940000Y3490000D02*
X2910000Y3460000D01*
X2990000Y3315000D02*
X3020000Y3285000D01*
X3020000Y3315000D02*
X2990000Y3285000D01*
X3010000Y3565000D02*
X3040000Y3535000D01*
X3040000Y3565000D02*
X3010000Y3535000D01*
X3010000Y3465000D02*
X3040000Y3435000D01*
X3040000Y3465000D02*
X3010000Y3435000D01*
X3048500Y4262500D02*
X3078500Y4232500D01*
X3078500Y4262500D02*
X3048500Y4232500D01*
X3180000Y3315000D02*
X3210000Y3285000D01*
X3210000Y3315000D02*
X3180000Y3285000D01*
X3210000Y4115000D02*
X3240000Y4085000D01*
X3240000Y4115000D02*
X3210000Y4085000D01*
X3435000Y3965000D02*
X3465000Y3935000D01*
X3465000Y3965000D02*
X3435000Y3935000D01*
X4960000Y4465000D02*
X4990000Y4435000D01*
X4990000Y4465000D02*
X4960000Y4435000D01*
X4960000Y4365000D02*
X4990000Y4335000D01*
X4990000Y4365000D02*
X4960000Y4335000D01*
X5010000Y3940000D02*
X5040000Y3910000D01*
X5040000Y3940000D02*
X5010000Y3910000D01*
X5010000Y3640000D02*
X5040000Y3610000D01*
X5040000Y3640000D02*
X5010000Y3610000D01*
X5210000Y4110000D02*
X5240000Y4080000D01*
X5240000Y4110000D02*
X5210000Y4080000D01*
X5210000Y3920000D02*
X5240000Y3890000D01*
X5240000Y3920000D02*
X5210000Y3890000D01*
X5210000Y3660000D02*
X5240000Y3630000D01*
X5240000Y3660000D02*
X5210000Y3630000D01*
X5210000Y3470000D02*
X5240000Y3440000D01*
X5240000Y3470000D02*
X5210000Y3440000D01*
X5385000Y4635000D02*
X5415000Y4605000D01*
X5415000Y4635000D02*
X5385000Y4605000D01*
X5385000Y3965000D02*
X5415000Y3935000D01*
X5415000Y3965000D02*
X5385000Y3935000D01*
X5387500Y4442500D02*
X5417500Y4412500D01*
X5417500Y4442500D02*
X5387500Y4412500D01*
X5435000Y3790000D02*
X5465000Y3760000D01*
X5465000Y3790000D02*
X5435000Y3760000D01*
X5485000Y3965000D02*
X5515000Y3935000D01*
X5515000Y3965000D02*
X5485000Y3935000D01*
X5535000Y4440000D02*
X5565000Y4410000D01*
X5565000Y4440000D02*
X5535000Y4410000D01*
X5535000Y4365000D02*
X5565000Y4335000D01*
X5565000Y4365000D02*
X5535000Y4335000D01*
X5535000Y3790000D02*
X5565000Y3760000D01*
X5565000Y3790000D02*
X5535000Y3760000D01*
X5685000Y2965000D02*
X5715000Y2935000D01*
X5715000Y2965000D02*
X5685000Y2935000D01*
X5685000Y2890000D02*
X5715000Y2860000D01*
X5715000Y2890000D02*
X5685000Y2860000D01*
X5685000Y2815000D02*
X5715000Y2785000D01*
X5715000Y2815000D02*
X5685000Y2785000D01*
X5735000Y3215000D02*
X5765000Y3185000D01*
X5765000Y3215000D02*
X5735000Y3185000D01*
X5760000Y2890000D02*
X5790000Y2860000D01*
X5790000Y2890000D02*
X5760000Y2860000D01*
X5760000Y2815000D02*
X5790000Y2785000D01*
X5790000Y2815000D02*
X5760000Y2785000D01*
X5785000Y3065000D02*
X5815000Y3035000D01*
X5815000Y3065000D02*
X5785000Y3035000D01*
X5785000Y2965000D02*
X5815000Y2935000D01*
X5815000Y2965000D02*
X5785000Y2935000D01*
X5835000Y4690000D02*
X5865000Y4660000D01*
X5865000Y4690000D02*
X5835000Y4660000D01*
X5835000Y4590000D02*
X5865000Y4560000D01*
X5865000Y4590000D02*
X5835000Y4560000D01*
X5835000Y4315000D02*
X5865000Y4285000D01*
X5865000Y4315000D02*
X5835000Y4285000D01*
X5902500Y3090000D02*
X5932500Y3060000D01*
X5932500Y3090000D02*
X5902500Y3060000D01*
X6091250Y2765000D02*
X6121250Y2735000D01*
X6121250Y2765000D02*
X6091250Y2735000D01*
X6185000Y2815000D02*
X6215000Y2785000D01*
X6215000Y2815000D02*
X6185000Y2785000D01*
X6185000Y2715000D02*
X6215000Y2685000D01*
X6215000Y2715000D02*
X6185000Y2685000D01*
X6435000Y4095000D02*
X6465000Y4065000D01*
X6465000Y4095000D02*
X6435000Y4065000D01*
X6535000Y4195000D02*
X6565000Y4165000D01*
X6565000Y4195000D02*
X6535000Y4165000D01*
X6535000Y4095000D02*
X6565000Y4065000D01*
X6565000Y4095000D02*
X6535000Y4065000D01*
X6685000Y4235000D02*
X6715000Y4205000D01*
X6715000Y4235000D02*
X6685000Y4205000D01*
X6685000Y4045000D02*
X6715000Y4015000D01*
X6715000Y4045000D02*
X6685000Y4015000D01*
X8835000Y3515000D02*
X8865000Y3485000D01*
X8865000Y3515000D02*
X8835000Y3485000D01*
X8835000Y3415000D02*
X8865000Y3385000D01*
X8865000Y3415000D02*
X8835000Y3385000D01*
X8935000Y3515000D02*
X8965000Y3485000D01*
X8965000Y3515000D02*
X8935000Y3485000D01*
X8935000Y3415000D02*
X8965000Y3385000D01*
X8965000Y3415000D02*
X8935000Y3385000D01*
X8985000Y7765000D02*
X9015000Y7735000D01*
X9015000Y7765000D02*
X8985000Y7735000D01*
X8985000Y7515000D02*
X9015000Y7485000D01*
X9015000Y7515000D02*
X8985000Y7485000D01*
X8985000Y6015000D02*
X9015000Y5985000D01*
X9015000Y6015000D02*
X8985000Y5985000D01*
X8985000Y5015000D02*
X9015000Y4985000D01*
X9015000Y5015000D02*
X8985000Y4985000D01*
X8985000Y3965000D02*
X9015000Y3935000D01*
X9015000Y3965000D02*
X8985000Y3935000D01*
X8985000Y3715000D02*
X9015000Y3685000D01*
X9015000Y3715000D02*
X8985000Y3685000D01*
X8985000Y3265000D02*
X9015000Y3235000D01*
X9015000Y3265000D02*
X8985000Y3235000D01*
X8985000Y2265000D02*
X9015000Y2235000D01*
X9015000Y2265000D02*
X8985000Y2235000D01*
X8985000Y1765000D02*
X9015000Y1735000D01*
X9015000Y1765000D02*
X8985000Y1735000D01*
X8985000Y1265000D02*
X9015000Y1235000D01*
X9015000Y1265000D02*
X8985000Y1235000D01*
X8985000Y765000D02*
X9015000Y735000D01*
X9015000Y765000D02*
X8985000Y735000D01*
X8985000Y265000D02*
X9015000Y235000D01*
X9015000Y265000D02*
X8985000Y235000D01*
X9135000Y3840000D02*
X9165000Y3810000D01*
X9165000Y3840000D02*
X9135000Y3810000D01*
X9135000Y3665000D02*
X9165000Y3635000D01*
X9165000Y3665000D02*
X9135000Y3635000D01*
X9185000Y3915000D02*
X9215000Y3885000D01*
X9215000Y3915000D02*
X9185000Y3885000D01*
X9185000Y3615000D02*
X9215000Y3585000D01*
X9215000Y3615000D02*
X9185000Y3585000D01*
X9235000Y7765000D02*
X9265000Y7735000D01*
X9265000Y7765000D02*
X9235000Y7735000D01*
X9235000Y7515000D02*
X9265000Y7485000D01*
X9265000Y7515000D02*
X9235000Y7485000D01*
X9235000Y4015000D02*
X9265000Y3985000D01*
X9265000Y4015000D02*
X9235000Y3985000D01*
X9235000Y2765000D02*
X9265000Y2735000D01*
X9265000Y2765000D02*
X9235000Y2735000D01*
X9235000Y765000D02*
X9265000Y735000D01*
X9265000Y765000D02*
X9235000Y735000D01*
X9235000Y265000D02*
X9265000Y235000D01*
X9265000Y265000D02*
X9235000Y235000D01*
X9285000Y4365000D02*
X9315000Y4335000D01*
X9315000Y4365000D02*
X9285000Y4335000D01*
X9285000Y2965000D02*
X9315000Y2935000D01*
X9315000Y2965000D02*
X9285000Y2935000D01*
X9335000Y4415000D02*
X9365000Y4385000D01*
X9365000Y4415000D02*
X9335000Y4385000D01*
X9335000Y2715000D02*
X9365000Y2685000D01*
X9365000Y2715000D02*
X9335000Y2685000D01*
X9385000Y3965000D02*
X9415000Y3935000D01*
X9415000Y3965000D02*
X9385000Y3935000D01*
X9385000Y2665000D02*
X9415000Y2635000D01*
X9415000Y2665000D02*
X9385000Y2635000D01*
X9435000Y4015000D02*
X9465000Y3985000D01*
X9465000Y4015000D02*
X9435000Y3985000D01*
X9435000Y2615000D02*
X9465000Y2585000D01*
X9465000Y2615000D02*
X9435000Y2585000D01*
X9485000Y5015000D02*
X9515000Y4985000D01*
X9515000Y5015000D02*
X9485000Y4985000D01*
X9485000Y4065000D02*
X9515000Y4035000D01*
X9515000Y4065000D02*
X9485000Y4035000D01*
X9485000Y2565000D02*
X9515000Y2535000D01*
X9515000Y2565000D02*
X9485000Y2535000D01*
X9535000Y1840000D02*
X9565000Y1810000D01*
X9565000Y1840000D02*
X9535000Y1810000D01*
X9585000Y1565000D02*
X9615000Y1535000D01*
X9615000Y1565000D02*
X9585000Y1535000D01*
X9610000Y3615000D02*
X9640000Y3585000D01*
X9640000Y3615000D02*
X9610000Y3585000D01*
X9635000Y3390000D02*
X9665000Y3360000D01*
X9665000Y3390000D02*
X9635000Y3360000D01*
X9635000Y3290000D02*
X9665000Y3260000D01*
X9665000Y3290000D02*
X9635000Y3260000D01*
X9635000Y3190000D02*
X9665000Y3160000D01*
X9665000Y3190000D02*
X9635000Y3160000D01*
X9660000Y4590000D02*
X9690000Y4560000D01*
X9690000Y4590000D02*
X9660000Y4560000D01*
X9660000Y4140000D02*
X9690000Y4110000D01*
X9690000Y4140000D02*
X9660000Y4110000D01*
X9660000Y4040000D02*
X9690000Y4010000D01*
X9690000Y4040000D02*
X9660000Y4010000D01*
X9660000Y3940000D02*
X9690000Y3910000D01*
X9690000Y3940000D02*
X9660000Y3910000D01*
X9685000Y3565000D02*
X9715000Y3535000D01*
X9715000Y3565000D02*
X9685000Y3535000D01*
X9685000Y1490000D02*
X9715000Y1460000D01*
X9715000Y1490000D02*
X9685000Y1460000D01*
X9735000Y3515000D02*
X9765000Y3485000D01*
X9765000Y3515000D02*
X9735000Y3485000D01*
X9735000Y3190000D02*
X9765000Y3160000D01*
X9765000Y3190000D02*
X9735000Y3160000D01*
X9735000Y3065000D02*
X9765000Y3035000D01*
X9765000Y3065000D02*
X9735000Y3035000D01*
X9760000Y4590000D02*
X9790000Y4560000D01*
X9790000Y4590000D02*
X9760000Y4560000D01*
X9760000Y4140000D02*
X9790000Y4110000D01*
X9790000Y4140000D02*
X9760000Y4110000D01*
X9760000Y3940000D02*
X9790000Y3910000D01*
X9790000Y3940000D02*
X9760000Y3910000D01*
X9785000Y3465000D02*
X9815000Y3435000D01*
X9815000Y3465000D02*
X9785000Y3435000D01*
X9860000Y3040000D02*
X9890000Y3010000D01*
X9890000Y3040000D02*
X9860000Y3010000D01*
X9860000Y2465000D02*
X9890000Y2435000D01*
X9890000Y2465000D02*
X9860000Y2435000D01*
X10035000Y4540000D02*
X10065000Y4510000D01*
X10065000Y4540000D02*
X10035000Y4510000D01*
X10035000Y4090000D02*
X10065000Y4060000D01*
X10065000Y4090000D02*
X10035000Y4060000D01*
X10035000Y3390000D02*
X10065000Y3360000D01*
X10065000Y3390000D02*
X10035000Y3360000D01*
X10035000Y3290000D02*
X10065000Y3260000D01*
X10065000Y3290000D02*
X10035000Y3260000D01*
X10085000Y3340000D02*
X10115000Y3310000D01*
X10115000Y3340000D02*
X10085000Y3310000D01*
X10135000Y5365000D02*
X10165000Y5335000D01*
X10165000Y5365000D02*
X10135000Y5335000D01*
X10135000Y5265000D02*
X10165000Y5235000D01*
X10165000Y5265000D02*
X10135000Y5235000D01*
X10185000Y4965000D02*
X10215000Y4935000D01*
X10215000Y4965000D02*
X10185000Y4935000D01*
X10235000Y5365000D02*
X10265000Y5335000D01*
X10265000Y5365000D02*
X10235000Y5335000D01*
X10260000Y4915000D02*
X10290000Y4885000D01*
X10290000Y4915000D02*
X10260000Y4885000D01*
X10335000Y5365000D02*
X10365000Y5335000D01*
X10365000Y5365000D02*
X10335000Y5335000D01*
X10335000Y4965000D02*
X10365000Y4935000D01*
X10365000Y4965000D02*
X10335000Y4935000D01*
X10560000Y6015000D02*
X10590000Y5985000D01*
X10590000Y6015000D02*
X10560000Y5985000D01*
X10560000Y3065000D02*
X10590000Y3035000D01*
X10590000Y3065000D02*
X10560000Y3035000D01*
X10610000Y2790000D02*
X10640000Y2760000D01*
X10640000Y2790000D02*
X10610000Y2760000D01*
X10610000Y2690000D02*
X10640000Y2660000D01*
X10640000Y2690000D02*
X10610000Y2660000D01*
X10735000Y1765000D02*
X10765000Y1735000D01*
X10765000Y1765000D02*
X10735000Y1735000D01*
X10735000Y1265000D02*
X10765000Y1235000D01*
X10765000Y1265000D02*
X10735000Y1235000D01*
X10735000Y265000D02*
X10765000Y235000D01*
X10765000Y265000D02*
X10735000Y235000D01*
X10760000Y5840000D02*
X10790000Y5810000D01*
X10790000Y5840000D02*
X10760000Y5810000D01*
X10760000Y4690000D02*
X10790000Y4660000D01*
X10790000Y4690000D02*
X10760000Y4660000D01*
X10760000Y3065000D02*
X10790000Y3035000D01*
X10790000Y3065000D02*
X10760000Y3035000D01*
X10760000Y2372500D02*
X10790000Y2342500D01*
X10790000Y2372500D02*
X10760000Y2342500D01*
X10910000Y5340000D02*
X10940000Y5310000D01*
X10940000Y5340000D02*
X10910000Y5310000D01*
X10910000Y5240000D02*
X10940000Y5210000D01*
X10940000Y5240000D02*
X10910000Y5210000D01*
X10910000Y4940000D02*
X10940000Y4910000D01*
X10940000Y4940000D02*
X10910000Y4910000D01*
X10960000Y5840000D02*
X10990000Y5810000D01*
X10990000Y5840000D02*
X10960000Y5810000D01*
X10960000Y4640000D02*
X10990000Y4610000D01*
X10990000Y4640000D02*
X10960000Y4610000D01*
X10985000Y4015000D02*
X11015000Y3985000D01*
X11015000Y4015000D02*
X10985000Y3985000D01*
X11010000Y4940000D02*
X11040000Y4910000D01*
X11040000Y4940000D02*
X11010000Y4910000D01*
X11060000Y3065000D02*
X11090000Y3035000D01*
X11090000Y3065000D02*
X11060000Y3035000D01*
X11085000Y6265000D02*
X11115000Y6235000D01*
X11115000Y6265000D02*
X11085000Y6235000D01*
X11110000Y2790000D02*
X11140000Y2760000D01*
X11140000Y2790000D02*
X11110000Y2760000D01*
X11110000Y2690000D02*
X11140000Y2660000D01*
X11140000Y2690000D02*
X11110000Y2660000D01*
X11160000Y5840000D02*
X11190000Y5810000D01*
X11190000Y5840000D02*
X11160000Y5810000D01*
X11160000Y4565000D02*
X11190000Y4535000D01*
X11190000Y4565000D02*
X11160000Y4535000D01*
X11185000Y6265000D02*
X11215000Y6235000D01*
X11215000Y6265000D02*
X11185000Y6235000D01*
X11210000Y2690000D02*
X11240000Y2660000D01*
X11240000Y2690000D02*
X11210000Y2660000D01*
X11235000Y7265000D02*
X11265000Y7235000D01*
X11265000Y7265000D02*
X11235000Y7235000D01*
X11235000Y3765000D02*
X11265000Y3735000D01*
X11265000Y3765000D02*
X11235000Y3735000D01*
X11260000Y3090000D02*
X11290000Y3060000D01*
X11290000Y3090000D02*
X11260000Y3060000D01*
X11260000Y1265000D02*
X11290000Y1235000D01*
X11290000Y1265000D02*
X11260000Y1235000D01*
X11335000Y7265000D02*
X11365000Y7235000D01*
X11365000Y7265000D02*
X11335000Y7235000D01*
X11335000Y7165000D02*
X11365000Y7135000D01*
X11365000Y7165000D02*
X11335000Y7135000D01*
X11335000Y7015000D02*
X11365000Y6985000D01*
X11365000Y7015000D02*
X11335000Y6985000D01*
X11385000Y6715000D02*
X11415000Y6685000D01*
X11415000Y6715000D02*
X11385000Y6685000D01*
X11385000Y5840000D02*
X11415000Y5810000D01*
X11415000Y5840000D02*
X11385000Y5810000D01*
X11385000Y4415000D02*
X11415000Y4385000D01*
X11415000Y4415000D02*
X11385000Y4385000D01*
X11385000Y3090000D02*
X11415000Y3060000D01*
X11415000Y3090000D02*
X11385000Y3060000D01*
X11435000Y7265000D02*
X11465000Y7235000D01*
X11465000Y7265000D02*
X11435000Y7235000D01*
X11435000Y2515000D02*
X11465000Y2485000D01*
X11465000Y2515000D02*
X11435000Y2485000D01*
X11435000Y2372500D02*
X11465000Y2342500D01*
X11465000Y2372500D02*
X11435000Y2342500D01*
X11460000Y5340000D02*
X11490000Y5310000D01*
X11490000Y5340000D02*
X11460000Y5310000D01*
X11485000Y7765000D02*
X11515000Y7735000D01*
X11515000Y7765000D02*
X11485000Y7735000D01*
X11485000Y6715000D02*
X11515000Y6685000D01*
X11515000Y6715000D02*
X11485000Y6685000D01*
X11485000Y6365000D02*
X11515000Y6335000D01*
X11515000Y6365000D02*
X11485000Y6335000D01*
X11485000Y6265000D02*
X11515000Y6235000D01*
X11515000Y6265000D02*
X11485000Y6235000D01*
X11560000Y4940000D02*
X11590000Y4910000D01*
X11590000Y4940000D02*
X11560000Y4910000D01*
X11585000Y6615000D02*
X11615000Y6585000D01*
X11615000Y6615000D02*
X11585000Y6585000D01*
X11585000Y3090000D02*
X11615000Y3060000D01*
X11615000Y3090000D02*
X11585000Y3060000D01*
X11585000Y2640000D02*
X11615000Y2610000D01*
X11615000Y2640000D02*
X11585000Y2610000D01*
X11610000Y5340000D02*
X11640000Y5310000D01*
X11640000Y5340000D02*
X11610000Y5310000D01*
X11610000Y5240000D02*
X11640000Y5210000D01*
X11640000Y5240000D02*
X11610000Y5210000D01*
X11635000Y2265000D02*
X11665000Y2235000D01*
X11665000Y2265000D02*
X11635000Y2235000D01*
X11660000Y4940000D02*
X11690000Y4910000D01*
X11690000Y4940000D02*
X11660000Y4910000D01*
X11660000Y3065000D02*
X11690000Y3035000D01*
X11690000Y3065000D02*
X11660000Y3035000D01*
X11685000Y2640000D02*
X11715000Y2610000D01*
X11715000Y2640000D02*
X11685000Y2610000D01*
X11710000Y2815000D02*
X11740000Y2785000D01*
X11740000Y2815000D02*
X11710000Y2785000D01*
X11785000Y3965000D02*
X11815000Y3935000D01*
X11815000Y3965000D02*
X11785000Y3935000D01*
X11785000Y2640000D02*
X11815000Y2610000D01*
X11815000Y2640000D02*
X11785000Y2610000D01*
X11810000Y3065000D02*
X11840000Y3035000D01*
X11840000Y3065000D02*
X11810000Y3035000D01*
X11860000Y3965000D02*
X11890000Y3935000D01*
X11890000Y3965000D02*
X11860000Y3935000D01*
X11885000Y4515000D02*
X11915000Y4485000D01*
X11915000Y4515000D02*
X11885000Y4485000D01*
X11885000Y4440000D02*
X11915000Y4410000D01*
X11915000Y4440000D02*
X11885000Y4410000D01*
X11885000Y3840000D02*
X11915000Y3810000D01*
X11915000Y3840000D02*
X11885000Y3810000D01*
X11885000Y2640000D02*
X11915000Y2610000D01*
X11915000Y2640000D02*
X11885000Y2610000D01*
X11910000Y4815000D02*
X11940000Y4785000D01*
X11940000Y4815000D02*
X11910000Y4785000D01*
X11910000Y4715000D02*
X11940000Y4685000D01*
X11940000Y4715000D02*
X11910000Y4685000D01*
X11910000Y3740000D02*
X11940000Y3710000D01*
X11940000Y3740000D02*
X11910000Y3710000D01*
X11910000Y3665000D02*
X11940000Y3635000D01*
X11940000Y3665000D02*
X11910000Y3635000D01*
X11935000Y4565000D02*
X11965000Y4535000D01*
X11965000Y4565000D02*
X11935000Y4535000D01*
X11935000Y3965000D02*
X11965000Y3935000D01*
X11965000Y3965000D02*
X11935000Y3935000D01*
X11935000Y3465000D02*
X11965000Y3435000D01*
X11965000Y3465000D02*
X11935000Y3435000D01*
X11935000Y3365000D02*
X11965000Y3335000D01*
X11965000Y3365000D02*
X11935000Y3335000D01*
X11952000Y765000D02*
X11982000Y735000D01*
X11982000Y765000D02*
X11952000Y735000D01*
X11960000Y3840000D02*
X11990000Y3810000D01*
X11990000Y3840000D02*
X11960000Y3810000D01*
X11960000Y865000D02*
X11990000Y835000D01*
X11990000Y865000D02*
X11960000Y835000D01*
X11985000Y2790000D02*
X12015000Y2760000D01*
X12015000Y2790000D02*
X11985000Y2760000D01*
X11985000Y2690000D02*
X12015000Y2660000D01*
X12015000Y2690000D02*
X11985000Y2660000D01*
X11985000Y2265000D02*
X12015000Y2235000D01*
X12015000Y2265000D02*
X11985000Y2235000D01*
X12210000Y4090000D02*
X12240000Y4060000D01*
X12240000Y4090000D02*
X12210000Y4060000D01*
X12210000Y3990000D02*
X12240000Y3960000D01*
X12240000Y3990000D02*
X12210000Y3960000D01*
X12210000Y3620000D02*
X12240000Y3590000D01*
X12240000Y3620000D02*
X12210000Y3590000D01*
X12210000Y3365000D02*
X12240000Y3335000D01*
X12240000Y3365000D02*
X12210000Y3335000D01*
X12235000Y4990000D02*
X12265000Y4960000D01*
X12265000Y4990000D02*
X12235000Y4960000D01*
X12235000Y4790000D02*
X12265000Y4760000D01*
X12265000Y4790000D02*
X12235000Y4760000D01*
X12235000Y4690000D02*
X12265000Y4660000D01*
X12265000Y4690000D02*
X12235000Y4660000D01*
X12235000Y4590000D02*
X12265000Y4560000D01*
X12265000Y4590000D02*
X12235000Y4560000D01*
X12310000Y4065000D02*
X12340000Y4035000D01*
X12340000Y4065000D02*
X12310000Y4035000D01*
X12310000Y3965000D02*
X12340000Y3935000D01*
X12340000Y3965000D02*
X12310000Y3935000D01*
X12310000Y3715000D02*
X12340000Y3685000D01*
X12340000Y3715000D02*
X12310000Y3685000D01*
X12310000Y3615000D02*
X12340000Y3585000D01*
X12340000Y3615000D02*
X12310000Y3585000D01*
X12310000Y3515000D02*
X12340000Y3485000D01*
X12340000Y3515000D02*
X12310000Y3485000D01*
X12335000Y4990000D02*
X12365000Y4960000D01*
X12365000Y4990000D02*
X12335000Y4960000D01*
X12335000Y4890000D02*
X12365000Y4860000D01*
X12365000Y4890000D02*
X12335000Y4860000D01*
X12335000Y4790000D02*
X12365000Y4760000D01*
X12365000Y4790000D02*
X12335000Y4760000D01*
X12335000Y4690000D02*
X12365000Y4660000D01*
X12365000Y4690000D02*
X12335000Y4660000D01*
X12335000Y4590000D02*
X12365000Y4560000D01*
X12365000Y4590000D02*
X12335000Y4560000D01*
X12335000Y4490000D02*
X12365000Y4460000D01*
X12365000Y4490000D02*
X12335000Y4460000D01*
X12410000Y4065000D02*
X12440000Y4035000D01*
X12440000Y4065000D02*
X12410000Y4035000D01*
X12410000Y3965000D02*
X12440000Y3935000D01*
X12440000Y3965000D02*
X12410000Y3935000D01*
X12410000Y3715000D02*
X12440000Y3685000D01*
X12440000Y3715000D02*
X12410000Y3685000D01*
X12410000Y3615000D02*
X12440000Y3585000D01*
X12440000Y3615000D02*
X12410000Y3585000D01*
X12410000Y3515000D02*
X12440000Y3485000D01*
X12440000Y3515000D02*
X12410000Y3485000D01*
X12452000Y765000D02*
X12482000Y735000D01*
X12482000Y765000D02*
X12452000Y735000D01*
X12460000Y2940000D02*
X12490000Y2910000D01*
X12490000Y2940000D02*
X12460000Y2910000D01*
X12460000Y2840000D02*
X12490000Y2810000D01*
X12490000Y2840000D02*
X12460000Y2810000D01*
X12460000Y2465000D02*
X12490000Y2435000D01*
X12490000Y2465000D02*
X12460000Y2435000D01*
X12460000Y865000D02*
X12490000Y835000D01*
X12490000Y865000D02*
X12460000Y835000D01*
X12485000Y6515000D02*
X12515000Y6485000D01*
X12515000Y6515000D02*
X12485000Y6485000D01*
X12510000Y3715000D02*
X12540000Y3685000D01*
X12540000Y3715000D02*
X12510000Y3685000D01*
X12510000Y3615000D02*
X12540000Y3585000D01*
X12540000Y3615000D02*
X12510000Y3585000D01*
X12510000Y3515000D02*
X12540000Y3485000D01*
X12540000Y3515000D02*
X12510000Y3485000D01*
X12535000Y4065000D02*
X12565000Y4035000D01*
X12565000Y4065000D02*
X12535000Y4035000D01*
X12535000Y3940000D02*
X12565000Y3910000D01*
X12565000Y3940000D02*
X12535000Y3910000D01*
X12625000Y4600000D02*
X12655000Y4570000D01*
X12655000Y4600000D02*
X12625000Y4570000D01*
X12635000Y4065000D02*
X12665000Y4035000D01*
X12665000Y4065000D02*
X12635000Y4035000D01*
X12635000Y3940000D02*
X12665000Y3910000D01*
X12665000Y3940000D02*
X12635000Y3910000D01*
X12635000Y3365000D02*
X12665000Y3335000D01*
X12665000Y3365000D02*
X12635000Y3335000D01*
X12685000Y4740000D02*
X12715000Y4710000D01*
X12715000Y4740000D02*
X12685000Y4710000D01*
X12685000Y3415000D02*
X12715000Y3385000D01*
X12715000Y3415000D02*
X12685000Y3385000D01*
X12685000Y3315000D02*
X12715000Y3285000D01*
X12715000Y3315000D02*
X12685000Y3285000D01*
X12702000Y765000D02*
X12732000Y735000D01*
X12732000Y765000D02*
X12702000Y735000D01*
X12710000Y865000D02*
X12740000Y835000D01*
X12740000Y865000D02*
X12710000Y835000D01*
X12735000Y4065000D02*
X12765000Y4035000D01*
X12765000Y4065000D02*
X12735000Y4035000D01*
X12735000Y3940000D02*
X12765000Y3910000D01*
X12765000Y3940000D02*
X12735000Y3910000D01*
X12735000Y3365000D02*
X12765000Y3335000D01*
X12765000Y3365000D02*
X12735000Y3335000D01*
X12735000Y2265000D02*
X12765000Y2235000D01*
X12765000Y2265000D02*
X12735000Y2235000D01*
X12785000Y4290000D02*
X12815000Y4260000D01*
X12815000Y4290000D02*
X12785000Y4260000D01*
X12845000Y4430000D02*
X12875000Y4400000D01*
X12875000Y4430000D02*
X12845000Y4400000D01*
X12885000Y3065000D02*
X12915000Y3035000D01*
X12915000Y3065000D02*
X12885000Y3035000D01*
X12935000Y2965000D02*
X12965000Y2935000D01*
X12965000Y2965000D02*
X12935000Y2935000D01*
X12952000Y765000D02*
X12982000Y735000D01*
X12982000Y765000D02*
X12952000Y735000D01*
X12960000Y865000D02*
X12990000Y835000D01*
X12990000Y865000D02*
X12960000Y835000D01*
X12985000Y5115000D02*
X13015000Y5085000D01*
X13015000Y5115000D02*
X12985000Y5085000D01*
X13035000Y5065000D02*
X13065000Y5035000D01*
X13065000Y5065000D02*
X13035000Y5035000D01*
X13135000Y4087500D02*
X13165000Y4057500D01*
X13165000Y4087500D02*
X13135000Y4057500D01*
X13135000Y3942500D02*
X13165000Y3912500D01*
X13165000Y3942500D02*
X13135000Y3912500D01*
X13202000Y765000D02*
X13232000Y735000D01*
X13232000Y765000D02*
X13202000Y735000D01*
X13210000Y1265000D02*
X13240000Y1235000D01*
X13240000Y1265000D02*
X13210000Y1235000D01*
X13210000Y865000D02*
X13240000Y835000D01*
X13240000Y865000D02*
X13210000Y835000D01*
X13235000Y4815000D02*
X13265000Y4785000D01*
X13265000Y4815000D02*
X13235000Y4785000D01*
X13235000Y4715000D02*
X13265000Y4685000D01*
X13265000Y4715000D02*
X13235000Y4685000D01*
X13260000Y4915000D02*
X13290000Y4885000D01*
X13290000Y4915000D02*
X13260000Y4885000D01*
X13335000Y4965000D02*
X13365000Y4935000D01*
X13365000Y4965000D02*
X13335000Y4935000D01*
X13335000Y4790000D02*
X13365000Y4760000D01*
X13365000Y4790000D02*
X13335000Y4760000D01*
X13391250Y4860000D02*
X13421250Y4830000D01*
X13421250Y4860000D02*
X13391250Y4830000D01*
X13421500Y4277500D02*
X13451500Y4247500D01*
X13451500Y4277500D02*
X13421500Y4247500D01*
X13585000Y1740000D02*
X13615000Y1710000D01*
X13615000Y1740000D02*
X13585000Y1710000D01*
X13685000Y1940000D02*
X13715000Y1910000D01*
X13715000Y1940000D02*
X13685000Y1910000D01*
X13685000Y1390000D02*
X13715000Y1360000D01*
X13715000Y1390000D02*
X13685000Y1360000D01*
X13835000Y1832000D02*
X13865000Y1802000D01*
X13865000Y1832000D02*
X13835000Y1802000D01*
X13835000Y1657000D02*
X13865000Y1627000D01*
X13865000Y1657000D02*
X13835000Y1627000D01*
X13835000Y1423000D02*
X13865000Y1393000D01*
X13865000Y1423000D02*
X13835000Y1393000D01*
X13910000Y4032000D02*
X13940000Y4002000D01*
X13940000Y4032000D02*
X13910000Y4002000D01*
X13935000Y4190000D02*
X13965000Y4160000D01*
X13965000Y4190000D02*
X13935000Y4160000D01*
X13935000Y3840000D02*
X13965000Y3810000D01*
X13965000Y3840000D02*
X13935000Y3810000D01*
X13985000Y1690000D02*
X14015000Y1660000D01*
X14015000Y1690000D02*
X13985000Y1660000D01*
X13985000Y1390000D02*
X14015000Y1360000D01*
X14015000Y1390000D02*
X13985000Y1360000D01*
X14010000Y3998000D02*
X14040000Y3968000D01*
X14040000Y3998000D02*
X14010000Y3968000D01*
X14085000Y1790000D02*
X14115000Y1760000D01*
X14115000Y1790000D02*
X14085000Y1760000D01*
X14085000Y1290000D02*
X14115000Y1260000D01*
X14115000Y1290000D02*
X14085000Y1260000D01*
X14135000Y4265000D02*
X14165000Y4235000D01*
X14165000Y4265000D02*
X14135000Y4235000D01*
X14135000Y3765000D02*
X14165000Y3735000D01*
X14165000Y3765000D02*
X14135000Y3735000D01*
X14485000Y7765000D02*
X14515000Y7735000D01*
X14515000Y7765000D02*
X14485000Y7735000D01*
X14485000Y7515000D02*
X14515000Y7485000D01*
X14515000Y7515000D02*
X14485000Y7485000D01*
X14485000Y515000D02*
X14515000Y485000D01*
X14515000Y515000D02*
X14485000Y485000D01*
X14485000Y265000D02*
X14515000Y235000D01*
X14515000Y265000D02*
X14485000Y235000D01*
X14735000Y7765000D02*
X14765000Y7735000D01*
X14765000Y7765000D02*
X14735000Y7735000D01*
X14735000Y7515000D02*
X14765000Y7485000D01*
X14765000Y7515000D02*
X14735000Y7485000D01*
X14735000Y515000D02*
X14765000Y485000D01*
X14765000Y515000D02*
X14735000Y485000D01*
X14735000Y265000D02*
X14765000Y235000D01*
X14765000Y265000D02*
X14735000Y235000D01*
X1775000Y4000000D02*
G75*
G02*
X1725000Y4000000I-25000J0D01*
G01*
X1725000Y4000000D02*
G75*
G02*
X1775000Y4000000I25000J0D01*
G01*
X3775000Y4050000D02*
G75*
G02*
X3725000Y4050000I-25000J0D01*
G01*
X3725000Y4050000D02*
G75*
G02*
X3775000Y4050000I25000J0D01*
G01*
X3775000Y3250000D02*
G75*
G02*
X3725000Y3250000I-25000J0D01*
G01*
X3725000Y3250000D02*
G75*
G02*
X3775000Y3250000I25000J0D01*
G01*
X4175000Y3900000D02*
G75*
G02*
X4125000Y3900000I-25000J0D01*
G01*
X4125000Y3900000D02*
G75*
G02*
X4175000Y3900000I25000J0D01*
G01*
X7525000Y2500000D02*
G75*
G02*
X7475000Y2500000I-25000J0D01*
G01*
X7475000Y2500000D02*
G75*
G02*
X7525000Y2500000I25000J0D01*
G01*
X10600000Y2150000D02*
G75*
G02*
X10550000Y2150000I-25000J0D01*
G01*
X10550000Y2150000D02*
G75*
G02*
X10600000Y2150000I25000J0D01*
G01*
X11150000Y2000000D02*
G75*
G02*
X11100000Y2000000I-25000J0D01*
G01*
X11100000Y2000000D02*
G75*
G02*
X11150000Y2000000I25000J0D01*
G01*
X11400000Y2000000D02*
G75*
G02*
X11350000Y2000000I-25000J0D01*
G01*
X11350000Y2000000D02*
G75*
G02*
X11400000Y2000000I25000J0D01*
G01*
X12150000Y5500000D02*
G75*
G02*
X12100000Y5500000I-25000J0D01*
G01*
X12100000Y5500000D02*
G75*
G02*
X12150000Y5500000I25000J0D01*
G01*
X12400000Y5500000D02*
G75*
G02*
X12350000Y5500000I-25000J0D01*
G01*
X12350000Y5500000D02*
G75*
G02*
X12400000Y5500000I25000J0D01*
G01*
X13400000Y3250000D02*
G75*
G02*
X13350000Y3250000I-25000J0D01*
G01*
X13350000Y3250000D02*
G75*
G02*
X13400000Y3250000I25000J0D01*
G01*
X13650000Y3250000D02*
G75*
G02*
X13600000Y3250000I-25000J0D01*
G01*
X13600000Y3250000D02*
G75*
G02*
X13650000Y3250000I25000J0D01*
G01*
X14025000Y4750000D02*
G75*
G02*
X13975000Y4750000I-25000J0D01*
G01*
X13975000Y4750000D02*
G75*
G02*
X14025000Y4750000I25000J0D01*
G01*
X14322000Y4462000D02*
X14322000Y4402000D01*
X14292000Y4432000D02*
X14352000Y4432000D01*
X14267000Y4402000D02*
X14377000Y4402000D01*
X14377000Y4462000D02*
G75*
G02*
X14377000Y4402000I0J-30000D01*
G01*
X14377000Y4462000D02*
X14267000Y4462000D01*
X14267000Y4462000D02*
G75*
G03*
X14267000Y4402000I0J-30000D01*
G01*
X14322000Y3598000D02*
X14322000Y3538000D01*
X14292000Y3568000D02*
X14352000Y3568000D01*
X14267000Y3538000D02*
X14377000Y3538000D01*
X14377000Y3598000D02*
G75*
G02*
X14377000Y3538000I0J-30000D01*
G01*
X14377000Y3598000D02*
X14267000Y3598000D01*
X14267000Y3598000D02*
G75*
G03*
X14267000Y3538000I0J-30000D01*
G01*
X14322000Y1962000D02*
X14322000Y1902000D01*
X14292000Y1932000D02*
X14352000Y1932000D01*
X14267000Y1902000D02*
X14377000Y1902000D01*
X14377000Y1962000D02*
G75*
G02*
X14377000Y1902000I0J-30000D01*
G01*
X14377000Y1962000D02*
X14267000Y1962000D01*
X14267000Y1962000D02*
G75*
G03*
X14267000Y1902000I0J-30000D01*
G01*
X14322000Y1098000D02*
X14322000Y1038000D01*
X14292000Y1068000D02*
X14352000Y1068000D01*
X14267000Y1038000D02*
X14377000Y1038000D01*
X14377000Y1098000D02*
G75*
G02*
X14377000Y1038000I0J-30000D01*
G01*
X14377000Y1098000D02*
X14267000Y1098000D01*
X14267000Y1098000D02*
G75*
G03*
X14267000Y1038000I0J-30000D01*
G01*
X14740000Y4462000D02*
X14740000Y4402000D01*
X14710000Y4432000D02*
X14770000Y4432000D01*
X14710000Y4402000D02*
X14770000Y4402000D01*
X14770000Y4462000D02*
G75*
G02*
X14770000Y4402000I0J-30000D01*
G01*
X14770000Y4462000D02*
X14710000Y4462000D01*
X14710000Y4462000D02*
G75*
G03*
X14710000Y4402000I0J-30000D01*
G01*
X14740000Y3598000D02*
X14740000Y3538000D01*
X14710000Y3568000D02*
X14770000Y3568000D01*
X14710000Y3538000D02*
X14770000Y3538000D01*
X14770000Y3598000D02*
G75*
G02*
X14770000Y3538000I0J-30000D01*
G01*
X14770000Y3598000D02*
X14710000Y3598000D01*
X14710000Y3598000D02*
G75*
G03*
X14710000Y3538000I0J-30000D01*
G01*
X14740000Y1962000D02*
X14740000Y1902000D01*
X14710000Y1932000D02*
X14770000Y1932000D01*
X14710000Y1902000D02*
X14770000Y1902000D01*
X14770000Y1962000D02*
G75*
G02*
X14770000Y1902000I0J-30000D01*
G01*
X14770000Y1962000D02*
X14710000Y1962000D01*
X14710000Y1962000D02*
G75*
G03*
X14710000Y1902000I0J-30000D01*
G01*
X14740000Y1098000D02*
X14740000Y1038000D01*
X14710000Y1068000D02*
X14770000Y1068000D01*
X14710000Y1038000D02*
X14770000Y1038000D01*
X14770000Y1098000D02*
G75*
G02*
X14770000Y1038000I0J-30000D01*
G01*
X14770000Y1098000D02*
X14710000Y1098000D01*
X14710000Y1098000D02*
G75*
G03*
X14710000Y1038000I0J-30000D01*
G01*
X4655356Y6591144D02*
X4655356Y6661856D01*
X4584644Y6661856D01*
X4584644Y6591144D01*
X4655356Y6591144D01*
X4655356Y6337144D02*
X4655356Y6407856D01*
X4584644Y6407856D01*
X4584644Y6337144D01*
X4655356Y6337144D01*
X4909356Y6591144D02*
X4909356Y6661856D01*
X4838644Y6661856D01*
X4838644Y6591144D01*
X4909356Y6591144D01*
X4909356Y6337144D02*
X4909356Y6407856D01*
X4838644Y6407856D01*
X4838644Y6337144D01*
X4909356Y6337144D01*
X5163356Y6591144D02*
X5163356Y6661856D01*
X5092644Y6661856D01*
X5092644Y6591144D01*
X5163356Y6591144D01*
X5163356Y6337144D02*
X5163356Y6407856D01*
X5092644Y6407856D01*
X5092644Y6337144D01*
X5163356Y6337144D01*
X5417356Y6591144D02*
X5417356Y6661856D01*
X5346644Y6661856D01*
X5346644Y6591144D01*
X5417356Y6591144D01*
X5417356Y6337144D02*
X5417356Y6407856D01*
X5346644Y6407856D01*
X5346644Y6337144D01*
X5417356Y6337144D01*
X8035356Y5714644D02*
X8035356Y5785356D01*
X7964644Y5785356D01*
X7964644Y5714644D01*
X8035356Y5714644D01*
X8035356Y5460644D02*
X8035356Y5531356D01*
X7964644Y5531356D01*
X7964644Y5460644D01*
X8035356Y5460644D01*
X8035356Y5206644D02*
X8035356Y5277356D01*
X7964644Y5277356D01*
X7964644Y5206644D01*
X8035356Y5206644D01*
X8035356Y4952644D02*
X8035356Y5023356D01*
X7964644Y5023356D01*
X7964644Y4952644D01*
X8035356Y4952644D01*
X8035356Y4698644D02*
X8035356Y4769356D01*
X7964644Y4769356D01*
X7964644Y4698644D01*
X8035356Y4698644D01*
X8035356Y4444644D02*
X8035356Y4515356D01*
X7964644Y4515356D01*
X7964644Y4444644D01*
X8035356Y4444644D01*
X8035356Y4190644D02*
X8035356Y4261356D01*
X7964644Y4261356D01*
X7964644Y4190644D01*
X8035356Y4190644D01*
X8035356Y3936644D02*
X8035356Y4007356D01*
X7964644Y4007356D01*
X7964644Y3936644D01*
X8035356Y3936644D01*
X8035356Y3682644D02*
X8035356Y3753356D01*
X7964644Y3753356D01*
X7964644Y3682644D01*
X8035356Y3682644D01*
X8035356Y3428644D02*
X8035356Y3499356D01*
X7964644Y3499356D01*
X7964644Y3428644D01*
X8035356Y3428644D01*
X8035356Y3174644D02*
X8035356Y3245356D01*
X7964644Y3245356D01*
X7964644Y3174644D01*
X8035356Y3174644D01*
X8035356Y2920644D02*
X8035356Y2991356D01*
X7964644Y2991356D01*
X7964644Y2920644D01*
X8035356Y2920644D01*
X8035356Y2666644D02*
X8035356Y2737356D01*
X7964644Y2737356D01*
X7964644Y2666644D01*
X8035356Y2666644D01*
X8035356Y2412644D02*
X8035356Y2483356D01*
X7964644Y2483356D01*
X7964644Y2412644D01*
X8035356Y2412644D01*
X8289356Y5714644D02*
X8289356Y5785356D01*
X8218644Y5785356D01*
X8218644Y5714644D01*
X8289356Y5714644D01*
X8289356Y5460644D02*
X8289356Y5531356D01*
X8218644Y5531356D01*
X8218644Y5460644D01*
X8289356Y5460644D01*
X8289356Y5206644D02*
X8289356Y5277356D01*
X8218644Y5277356D01*
X8218644Y5206644D01*
X8289356Y5206644D01*
X8289356Y4952644D02*
X8289356Y5023356D01*
X8218644Y5023356D01*
X8218644Y4952644D01*
X8289356Y4952644D01*
X8289356Y4698644D02*
X8289356Y4769356D01*
X8218644Y4769356D01*
X8218644Y4698644D01*
X8289356Y4698644D01*
X8289356Y4444644D02*
X8289356Y4515356D01*
X8218644Y4515356D01*
X8218644Y4444644D01*
X8289356Y4444644D01*
X8289356Y4190644D02*
X8289356Y4261356D01*
X8218644Y4261356D01*
X8218644Y4190644D01*
X8289356Y4190644D01*
X8289356Y3936644D02*
X8289356Y4007356D01*
X8218644Y4007356D01*
X8218644Y3936644D01*
X8289356Y3936644D01*
X8289356Y3682644D02*
X8289356Y3753356D01*
X8218644Y3753356D01*
X8218644Y3682644D01*
X8289356Y3682644D01*
X8289356Y3428644D02*
X8289356Y3499356D01*
X8218644Y3499356D01*
X8218644Y3428644D01*
X8289356Y3428644D01*
X8289356Y3174644D02*
X8289356Y3245356D01*
X8218644Y3245356D01*
X8218644Y3174644D01*
X8289356Y3174644D01*
X8289356Y2920644D02*
X8289356Y2991356D01*
X8218644Y2991356D01*
X8218644Y2920644D01*
X8289356Y2920644D01*
X8289356Y2666644D02*
X8289356Y2737356D01*
X8218644Y2737356D01*
X8218644Y2666644D01*
X8289356Y2666644D01*
X8289356Y2412644D02*
X8289356Y2483356D01*
X8218644Y2483356D01*
X8218644Y2412644D01*
X8289356Y2412644D01*
X9027856Y464644D02*
X9027856Y535356D01*
X8957144Y535356D01*
X8957144Y464644D01*
X9027856Y464644D01*
X9035356Y2718644D02*
X9035356Y2789356D01*
X8964644Y2789356D01*
X8964644Y2718644D01*
X9035356Y2718644D01*
X9035356Y2464644D02*
X9035356Y2535356D01*
X8964644Y2535356D01*
X8964644Y2464644D01*
X9035356Y2464644D01*
X9281856Y464644D02*
X9281856Y535356D01*
X9211144Y535356D01*
X9211144Y464644D01*
X9281856Y464644D01*
X9535856Y464644D02*
X9535856Y535356D01*
X9465144Y535356D01*
X9465144Y464644D01*
X9535856Y464644D01*
X9789856Y464644D02*
X9789856Y535356D01*
X9719144Y535356D01*
X9719144Y464644D01*
X9789856Y464644D01*
X10043856Y464644D02*
X10043856Y535356D01*
X9973144Y535356D01*
X9973144Y464644D01*
X10043856Y464644D01*
X11647856Y464644D02*
X11647856Y535356D01*
X11577144Y535356D01*
X11577144Y464644D01*
X11647856Y464644D01*
X11901856Y464644D02*
X11901856Y535356D01*
X11831144Y535356D01*
X11831144Y464644D01*
X11901856Y464644D01*
X12155856Y464644D02*
X12155856Y535356D01*
X12085144Y535356D01*
X12085144Y464644D01*
X12155856Y464644D01*
X12409856Y464644D02*
X12409856Y535356D01*
X12339144Y535356D01*
X12339144Y464644D01*
X12409856Y464644D01*
X12663856Y464644D02*
X12663856Y535356D01*
X12593144Y535356D01*
X12593144Y464644D01*
X12663856Y464644D01*
X12917856Y464644D02*
X12917856Y535356D01*
X12847144Y535356D01*
X12847144Y464644D01*
X12917856Y464644D01*
X13171856Y464644D02*
X13171856Y535356D01*
X13101144Y535356D01*
X13101144Y464644D01*
X13171856Y464644D01*
X13425856Y464644D02*
X13425856Y535356D01*
X13355144Y535356D01*
X13355144Y464644D01*
X13425856Y464644D01*
D13*
X1000000Y3925000D02*
X1075000Y4000000D01*
X1000000Y4075000D01*
X925000Y4000000D01*
X1000000Y3925000D01*
D14*
X661000Y4339000D02*
X831000Y4169000D01*
X831000Y4339000D02*
X661000Y4169000D01*
X831000Y4254000D02*
G75*
G02*
X661000Y4254000I-85000J0D01*
G01*
X661000Y4254000D02*
G75*
G02*
X831000Y4254000I85000J0D01*
G01*
X661000Y3831000D02*
X831000Y3661000D01*
X831000Y3831000D02*
X661000Y3661000D01*
X831000Y3746000D02*
G75*
G02*
X661000Y3746000I-85000J0D01*
G01*
X661000Y3746000D02*
G75*
G02*
X831000Y3746000I85000J0D01*
G01*
X1169000Y4339000D02*
X1339000Y4169000D01*
X1339000Y4339000D02*
X1169000Y4169000D01*
X1339000Y4254000D02*
G75*
G02*
X1169000Y4254000I-85000J0D01*
G01*
X1169000Y4254000D02*
G75*
G02*
X1339000Y4254000I85000J0D01*
G01*
X1169000Y3831000D02*
X1339000Y3661000D01*
X1339000Y3831000D02*
X1169000Y3661000D01*
X1339000Y3746000D02*
G75*
G02*
X1169000Y3746000I-85000J0D01*
G01*
X1169000Y3746000D02*
G75*
G02*
X1339000Y3746000I85000J0D01*
G01*
D11*
X258277Y-313984D02*
X258277Y-113984D01*
X258277Y-113984D02*
X305896Y-113984D01*
X305896Y-113984D02*
X334467Y-123508D01*
X334467Y-123508D02*
X353515Y-142555D01*
X353515Y-142555D02*
X363039Y-161603D01*
X363039Y-161603D02*
X372562Y-199698D01*
X372562Y-199698D02*
X372562Y-228269D01*
X372562Y-228269D02*
X363039Y-266365D01*
X363039Y-266365D02*
X353515Y-285412D01*
X353515Y-285412D02*
X334467Y-304460D01*
X334467Y-304460D02*
X305896Y-313984D01*
X305896Y-313984D02*
X258277Y-313984D01*
X458277Y-313984D02*
X458277Y-180650D01*
X458277Y-218746D02*
X467801Y-199698D01*
X467801Y-199698D02*
X477324Y-190174D01*
X477324Y-190174D02*
X496372Y-180650D01*
X496372Y-180650D02*
X515420Y-180650D01*
X582086Y-313984D02*
X582086Y-180650D01*
X582086Y-113984D02*
X572563Y-123508D01*
X572563Y-123508D02*
X582086Y-133031D01*
X582086Y-133031D02*
X591610Y-123508D01*
X591610Y-123508D02*
X582086Y-113984D01*
X582086Y-113984D02*
X582086Y-133031D01*
X705896Y-313984D02*
X686848Y-304460D01*
X686848Y-304460D02*
X677324Y-285412D01*
X677324Y-285412D02*
X677324Y-113984D01*
X810658Y-313984D02*
X791610Y-304460D01*
X791610Y-304460D02*
X782086Y-285412D01*
X782086Y-285412D02*
X782086Y-113984D01*
X1039229Y-313984D02*
X1039229Y-113984D01*
X1039229Y-113984D02*
X1105896Y-256841D01*
X1105896Y-256841D02*
X1172563Y-113984D01*
X1172563Y-113984D02*
X1172563Y-313984D01*
X1353515Y-313984D02*
X1353515Y-209222D01*
X1353515Y-209222D02*
X1343991Y-190174D01*
X1343991Y-190174D02*
X1324944Y-180650D01*
X1324944Y-180650D02*
X1286848Y-180650D01*
X1286848Y-180650D02*
X1267801Y-190174D01*
X1353515Y-304460D02*
X1334467Y-313984D01*
X1334467Y-313984D02*
X1286848Y-313984D01*
X1286848Y-313984D02*
X1267801Y-304460D01*
X1267801Y-304460D02*
X1258277Y-285412D01*
X1258277Y-285412D02*
X1258277Y-266365D01*
X1258277Y-266365D02*
X1267801Y-247317D01*
X1267801Y-247317D02*
X1286848Y-237793D01*
X1286848Y-237793D02*
X1334467Y-237793D01*
X1334467Y-237793D02*
X1353515Y-228269D01*
X1448753Y-180650D02*
X1448753Y-380650D01*
X1448753Y-190174D02*
X1467801Y-180650D01*
X1467801Y-180650D02*
X1505896Y-180650D01*
X1505896Y-180650D02*
X1524943Y-190174D01*
X1524943Y-190174D02*
X1534467Y-199698D01*
X1534467Y-199698D02*
X1543991Y-218746D01*
X1543991Y-218746D02*
X1543991Y-275889D01*
X1543991Y-275889D02*
X1534467Y-294936D01*
X1534467Y-294936D02*
X1524943Y-304460D01*
X1524943Y-304460D02*
X1505896Y-313984D01*
X1505896Y-313984D02*
X1467801Y-313984D01*
X1467801Y-313984D02*
X1448753Y-304460D01*
X1629705Y-294936D02*
X1639229Y-304460D01*
X1639229Y-304460D02*
X1629705Y-313984D01*
X1629705Y-313984D02*
X1620182Y-304460D01*
X1620182Y-304460D02*
X1629705Y-294936D01*
X1629705Y-294936D02*
X1629705Y-313984D01*
X1629705Y-190174D02*
X1639229Y-199698D01*
X1639229Y-199698D02*
X1629705Y-209222D01*
X1629705Y-209222D02*
X1620182Y-199698D01*
X1620182Y-199698D02*
X1629705Y-190174D01*
X1629705Y-190174D02*
X1629705Y-209222D01*
D12*
X-32500Y-627500D02*
X-2500Y-657500D01*
X-2500Y-627500D02*
X-32500Y-657500D01*
D11*
X296372Y-533984D02*
X315420Y-533984D01*
X315420Y-533984D02*
X334467Y-543508D01*
X334467Y-543508D02*
X343991Y-553031D01*
X343991Y-553031D02*
X353515Y-572079D01*
X353515Y-572079D02*
X363039Y-610174D01*
X363039Y-610174D02*
X363039Y-657793D01*
X363039Y-657793D02*
X353515Y-695889D01*
X353515Y-695889D02*
X343991Y-714936D01*
X343991Y-714936D02*
X334467Y-724460D01*
X334467Y-724460D02*
X315420Y-733984D01*
X315420Y-733984D02*
X296372Y-733984D01*
X296372Y-733984D02*
X277324Y-724460D01*
X277324Y-724460D02*
X267801Y-714936D01*
X267801Y-714936D02*
X258277Y-695889D01*
X258277Y-695889D02*
X248753Y-657793D01*
X248753Y-657793D02*
X248753Y-610174D01*
X248753Y-610174D02*
X258277Y-572079D01*
X258277Y-572079D02*
X267801Y-553031D01*
X267801Y-553031D02*
X277324Y-543508D01*
X277324Y-543508D02*
X296372Y-533984D01*
X448753Y-714936D02*
X458277Y-724460D01*
X458277Y-724460D02*
X448753Y-733984D01*
X448753Y-733984D02*
X439229Y-724460D01*
X439229Y-724460D02*
X448753Y-714936D01*
X448753Y-714936D02*
X448753Y-733984D01*
X524944Y-533984D02*
X648753Y-533984D01*
X648753Y-533984D02*
X582086Y-610174D01*
X582086Y-610174D02*
X610658Y-610174D01*
X610658Y-610174D02*
X629705Y-619698D01*
X629705Y-619698D02*
X639229Y-629222D01*
X639229Y-629222D02*
X648753Y-648270D01*
X648753Y-648270D02*
X648753Y-695889D01*
X648753Y-695889D02*
X639229Y-714936D01*
X639229Y-714936D02*
X629705Y-724460D01*
X629705Y-724460D02*
X610658Y-733984D01*
X610658Y-733984D02*
X553515Y-733984D01*
X553515Y-733984D02*
X534467Y-724460D01*
X534467Y-724460D02*
X524944Y-714936D01*
X772562Y-533984D02*
X791610Y-533984D01*
X791610Y-533984D02*
X810658Y-543508D01*
X810658Y-543508D02*
X820182Y-553031D01*
X820182Y-553031D02*
X829705Y-572079D01*
X829705Y-572079D02*
X839229Y-610174D01*
X839229Y-610174D02*
X839229Y-657793D01*
X839229Y-657793D02*
X829705Y-695889D01*
X829705Y-695889D02*
X820182Y-714936D01*
X820182Y-714936D02*
X810658Y-724460D01*
X810658Y-724460D02*
X791610Y-733984D01*
X791610Y-733984D02*
X772562Y-733984D01*
X772562Y-733984D02*
X753515Y-724460D01*
X753515Y-724460D02*
X743991Y-714936D01*
X743991Y-714936D02*
X734467Y-695889D01*
X734467Y-695889D02*
X724943Y-657793D01*
X724943Y-657793D02*
X724943Y-610174D01*
X724943Y-610174D02*
X734467Y-572079D01*
X734467Y-572079D02*
X743991Y-553031D01*
X743991Y-553031D02*
X753515Y-543508D01*
X753515Y-543508D02*
X772562Y-533984D01*
X963039Y-533984D02*
X982086Y-533984D01*
X982086Y-533984D02*
X1001134Y-543508D01*
X1001134Y-543508D02*
X1010658Y-553031D01*
X1010658Y-553031D02*
X1020182Y-572079D01*
X1020182Y-572079D02*
X1029705Y-610174D01*
X1029705Y-610174D02*
X1029705Y-657793D01*
X1029705Y-657793D02*
X1020182Y-695889D01*
X1020182Y-695889D02*
X1010658Y-714936D01*
X1010658Y-714936D02*
X1001134Y-724460D01*
X1001134Y-724460D02*
X982086Y-733984D01*
X982086Y-733984D02*
X963039Y-733984D01*
X963039Y-733984D02*
X943991Y-724460D01*
X943991Y-724460D02*
X934467Y-714936D01*
X934467Y-714936D02*
X924943Y-695889D01*
X924943Y-695889D02*
X915420Y-657793D01*
X915420Y-657793D02*
X915420Y-610174D01*
X915420Y-610174D02*
X924943Y-572079D01*
X924943Y-572079D02*
X934467Y-553031D01*
X934467Y-553031D02*
X943991Y-543508D01*
X943991Y-543508D02*
X963039Y-533984D01*
X1115420Y-733984D02*
X1115420Y-600650D01*
X1115420Y-619698D02*
X1124944Y-610174D01*
X1124944Y-610174D02*
X1143991Y-600650D01*
X1143991Y-600650D02*
X1172563Y-600650D01*
X1172563Y-600650D02*
X1191610Y-610174D01*
X1191610Y-610174D02*
X1201134Y-629222D01*
X1201134Y-629222D02*
X1201134Y-733984D01*
X1201134Y-629222D02*
X1210658Y-610174D01*
X1210658Y-610174D02*
X1229705Y-600650D01*
X1229705Y-600650D02*
X1258277Y-600650D01*
X1258277Y-600650D02*
X1277325Y-610174D01*
X1277325Y-610174D02*
X1286848Y-629222D01*
X1286848Y-629222D02*
X1286848Y-733984D01*
X1382086Y-733984D02*
X1382086Y-600650D01*
X1382086Y-619698D02*
X1391610Y-610174D01*
X1391610Y-610174D02*
X1410658Y-600650D01*
X1410658Y-600650D02*
X1439229Y-600650D01*
X1439229Y-600650D02*
X1458277Y-610174D01*
X1458277Y-610174D02*
X1467801Y-629222D01*
X1467801Y-629222D02*
X1467801Y-733984D01*
X1467801Y-629222D02*
X1477324Y-610174D01*
X1477324Y-610174D02*
X1496372Y-600650D01*
X1496372Y-600650D02*
X1524943Y-600650D01*
X1524943Y-600650D02*
X1543991Y-610174D01*
X1543991Y-610174D02*
X1553515Y-629222D01*
X1553515Y-629222D02*
X1553515Y-733984D01*
X1943991Y-524460D02*
X1772563Y-781603D01*
X2201134Y-533984D02*
X2220182Y-533984D01*
X2220182Y-533984D02*
X2239229Y-543508D01*
X2239229Y-543508D02*
X2248753Y-553031D01*
X2248753Y-553031D02*
X2258277Y-572079D01*
X2258277Y-572079D02*
X2267801Y-610174D01*
X2267801Y-610174D02*
X2267801Y-657793D01*
X2267801Y-657793D02*
X2258277Y-695889D01*
X2258277Y-695889D02*
X2248753Y-714936D01*
X2248753Y-714936D02*
X2239229Y-724460D01*
X2239229Y-724460D02*
X2220182Y-733984D01*
X2220182Y-733984D02*
X2201134Y-733984D01*
X2201134Y-733984D02*
X2182087Y-724460D01*
X2182087Y-724460D02*
X2172563Y-714936D01*
X2172563Y-714936D02*
X2163039Y-695889D01*
X2163039Y-695889D02*
X2153515Y-657793D01*
X2153515Y-657793D02*
X2153515Y-610174D01*
X2153515Y-610174D02*
X2163039Y-572079D01*
X2163039Y-572079D02*
X2172563Y-553031D01*
X2172563Y-553031D02*
X2182087Y-543508D01*
X2182087Y-543508D02*
X2201134Y-533984D01*
X2353515Y-714936D02*
X2363039Y-724460D01*
X2363039Y-724460D02*
X2353515Y-733984D01*
X2353515Y-733984D02*
X2343991Y-724460D01*
X2343991Y-724460D02*
X2353515Y-714936D01*
X2353515Y-714936D02*
X2353515Y-733984D01*
X2486848Y-533984D02*
X2505896Y-533984D01*
X2505896Y-533984D02*
X2524944Y-543508D01*
X2524944Y-543508D02*
X2534468Y-553031D01*
X2534468Y-553031D02*
X2543991Y-572079D01*
X2543991Y-572079D02*
X2553515Y-610174D01*
X2553515Y-610174D02*
X2553515Y-657793D01*
X2553515Y-657793D02*
X2543991Y-695889D01*
X2543991Y-695889D02*
X2534468Y-714936D01*
X2534468Y-714936D02*
X2524944Y-724460D01*
X2524944Y-724460D02*
X2505896Y-733984D01*
X2505896Y-733984D02*
X2486848Y-733984D01*
X2486848Y-733984D02*
X2467801Y-724460D01*
X2467801Y-724460D02*
X2458277Y-714936D01*
X2458277Y-714936D02*
X2448753Y-695889D01*
X2448753Y-695889D02*
X2439229Y-657793D01*
X2439229Y-657793D02*
X2439229Y-610174D01*
X2439229Y-610174D02*
X2448753Y-572079D01*
X2448753Y-572079D02*
X2458277Y-553031D01*
X2458277Y-553031D02*
X2467801Y-543508D01*
X2467801Y-543508D02*
X2486848Y-533984D01*
X2743991Y-733984D02*
X2629706Y-733984D01*
X2686848Y-733984D02*
X2686848Y-533984D01*
X2686848Y-533984D02*
X2667801Y-562555D01*
X2667801Y-562555D02*
X2648753Y-581603D01*
X2648753Y-581603D02*
X2629706Y-591127D01*
X2934467Y-733984D02*
X2820182Y-733984D01*
X2877325Y-733984D02*
X2877325Y-533984D01*
X2877325Y-533984D02*
X2858277Y-562555D01*
X2858277Y-562555D02*
X2839229Y-581603D01*
X2839229Y-581603D02*
X2820182Y-591127D01*
X3048753Y-619698D02*
X3029706Y-610174D01*
X3029706Y-610174D02*
X3020182Y-600650D01*
X3020182Y-600650D02*
X3010658Y-581603D01*
X3010658Y-581603D02*
X3010658Y-572079D01*
X3010658Y-572079D02*
X3020182Y-553031D01*
X3020182Y-553031D02*
X3029706Y-543508D01*
X3029706Y-543508D02*
X3048753Y-533984D01*
X3048753Y-533984D02*
X3086848Y-533984D01*
X3086848Y-533984D02*
X3105896Y-543508D01*
X3105896Y-543508D02*
X3115420Y-553031D01*
X3115420Y-553031D02*
X3124944Y-572079D01*
X3124944Y-572079D02*
X3124944Y-581603D01*
X3124944Y-581603D02*
X3115420Y-600650D01*
X3115420Y-600650D02*
X3105896Y-610174D01*
X3105896Y-610174D02*
X3086848Y-619698D01*
X3086848Y-619698D02*
X3048753Y-619698D01*
X3048753Y-619698D02*
X3029706Y-629222D01*
X3029706Y-629222D02*
X3020182Y-638746D01*
X3020182Y-638746D02*
X3010658Y-657793D01*
X3010658Y-657793D02*
X3010658Y-695889D01*
X3010658Y-695889D02*
X3020182Y-714936D01*
X3020182Y-714936D02*
X3029706Y-724460D01*
X3029706Y-724460D02*
X3048753Y-733984D01*
X3048753Y-733984D02*
X3086848Y-733984D01*
X3086848Y-733984D02*
X3105896Y-724460D01*
X3105896Y-724460D02*
X3115420Y-714936D01*
X3115420Y-714936D02*
X3124944Y-695889D01*
X3124944Y-695889D02*
X3124944Y-657793D01*
X3124944Y-657793D02*
X3115420Y-638746D01*
X3115420Y-638746D02*
X3105896Y-629222D01*
X3105896Y-629222D02*
X3086848Y-619698D01*
X3201134Y-533984D02*
X3201134Y-572079D01*
X3277325Y-533984D02*
X3277325Y-572079D01*
X3572563Y-810174D02*
X3563039Y-800650D01*
X3563039Y-800650D02*
X3543991Y-772079D01*
X3543991Y-772079D02*
X3534468Y-753031D01*
X3534468Y-753031D02*
X3524944Y-724460D01*
X3524944Y-724460D02*
X3515420Y-676841D01*
X3515420Y-676841D02*
X3515420Y-638746D01*
X3515420Y-638746D02*
X3524944Y-591127D01*
X3524944Y-591127D02*
X3534468Y-562555D01*
X3534468Y-562555D02*
X3543991Y-543508D01*
X3543991Y-543508D02*
X3563039Y-514936D01*
X3563039Y-514936D02*
X3572563Y-505412D01*
X3639229Y-553031D02*
X3648753Y-543508D01*
X3648753Y-543508D02*
X3667801Y-533984D01*
X3667801Y-533984D02*
X3715420Y-533984D01*
X3715420Y-533984D02*
X3734468Y-543508D01*
X3734468Y-543508D02*
X3743991Y-553031D01*
X3743991Y-553031D02*
X3753515Y-572079D01*
X3753515Y-572079D02*
X3753515Y-591127D01*
X3753515Y-591127D02*
X3743991Y-619698D01*
X3743991Y-619698D02*
X3629706Y-733984D01*
X3629706Y-733984D02*
X3753515Y-733984D01*
X3867801Y-619698D02*
X3848753Y-610174D01*
X3848753Y-610174D02*
X3839229Y-600650D01*
X3839229Y-600650D02*
X3829706Y-581603D01*
X3829706Y-581603D02*
X3829706Y-572079D01*
X3829706Y-572079D02*
X3839229Y-553031D01*
X3839229Y-553031D02*
X3848753Y-543508D01*
X3848753Y-543508D02*
X3867801Y-533984D01*
X3867801Y-533984D02*
X3905896Y-533984D01*
X3905896Y-533984D02*
X3924944Y-543508D01*
X3924944Y-543508D02*
X3934468Y-553031D01*
X3934468Y-553031D02*
X3943991Y-572079D01*
X3943991Y-572079D02*
X3943991Y-581603D01*
X3943991Y-581603D02*
X3934468Y-600650D01*
X3934468Y-600650D02*
X3924944Y-610174D01*
X3924944Y-610174D02*
X3905896Y-619698D01*
X3905896Y-619698D02*
X3867801Y-619698D01*
X3867801Y-619698D02*
X3848753Y-629222D01*
X3848753Y-629222D02*
X3839229Y-638746D01*
X3839229Y-638746D02*
X3829706Y-657793D01*
X3829706Y-657793D02*
X3829706Y-695889D01*
X3829706Y-695889D02*
X3839229Y-714936D01*
X3839229Y-714936D02*
X3848753Y-724460D01*
X3848753Y-724460D02*
X3867801Y-733984D01*
X3867801Y-733984D02*
X3905896Y-733984D01*
X3905896Y-733984D02*
X3924944Y-724460D01*
X3924944Y-724460D02*
X3934468Y-714936D01*
X3934468Y-714936D02*
X3943991Y-695889D01*
X3943991Y-695889D02*
X3943991Y-657793D01*
X3943991Y-657793D02*
X3934468Y-638746D01*
X3934468Y-638746D02*
X3924944Y-629222D01*
X3924944Y-629222D02*
X3905896Y-619698D01*
X4010658Y-533984D02*
X4143991Y-533984D01*
X4143991Y-533984D02*
X4058277Y-733984D01*
X4372563Y-733984D02*
X4372563Y-533984D01*
X4458277Y-733984D02*
X4458277Y-629222D01*
X4458277Y-629222D02*
X4448753Y-610174D01*
X4448753Y-610174D02*
X4429706Y-600650D01*
X4429706Y-600650D02*
X4401134Y-600650D01*
X4401134Y-600650D02*
X4382087Y-610174D01*
X4382087Y-610174D02*
X4372563Y-619698D01*
X4582087Y-733984D02*
X4563039Y-724460D01*
X4563039Y-724460D02*
X4553515Y-714936D01*
X4553515Y-714936D02*
X4543992Y-695889D01*
X4543992Y-695889D02*
X4543992Y-638746D01*
X4543992Y-638746D02*
X4553515Y-619698D01*
X4553515Y-619698D02*
X4563039Y-610174D01*
X4563039Y-610174D02*
X4582087Y-600650D01*
X4582087Y-600650D02*
X4610658Y-600650D01*
X4610658Y-600650D02*
X4629706Y-610174D01*
X4629706Y-610174D02*
X4639230Y-619698D01*
X4639230Y-619698D02*
X4648753Y-638746D01*
X4648753Y-638746D02*
X4648753Y-695889D01*
X4648753Y-695889D02*
X4639230Y-714936D01*
X4639230Y-714936D02*
X4629706Y-724460D01*
X4629706Y-724460D02*
X4610658Y-733984D01*
X4610658Y-733984D02*
X4582087Y-733984D01*
X4763039Y-733984D02*
X4743992Y-724460D01*
X4743992Y-724460D02*
X4734468Y-705412D01*
X4734468Y-705412D02*
X4734468Y-533984D01*
X4915420Y-724460D02*
X4896373Y-733984D01*
X4896373Y-733984D02*
X4858277Y-733984D01*
X4858277Y-733984D02*
X4839230Y-724460D01*
X4839230Y-724460D02*
X4829706Y-705412D01*
X4829706Y-705412D02*
X4829706Y-629222D01*
X4829706Y-629222D02*
X4839230Y-610174D01*
X4839230Y-610174D02*
X4858277Y-600650D01*
X4858277Y-600650D02*
X4896373Y-600650D01*
X4896373Y-600650D02*
X4915420Y-610174D01*
X4915420Y-610174D02*
X4924944Y-629222D01*
X4924944Y-629222D02*
X4924944Y-648270D01*
X4924944Y-648270D02*
X4829706Y-667317D01*
X5001134Y-724460D02*
X5020182Y-733984D01*
X5020182Y-733984D02*
X5058277Y-733984D01*
X5058277Y-733984D02*
X5077325Y-724460D01*
X5077325Y-724460D02*
X5086849Y-705412D01*
X5086849Y-705412D02*
X5086849Y-695889D01*
X5086849Y-695889D02*
X5077325Y-676841D01*
X5077325Y-676841D02*
X5058277Y-667317D01*
X5058277Y-667317D02*
X5029706Y-667317D01*
X5029706Y-667317D02*
X5010658Y-657793D01*
X5010658Y-657793D02*
X5001134Y-638746D01*
X5001134Y-638746D02*
X5001134Y-629222D01*
X5001134Y-629222D02*
X5010658Y-610174D01*
X5010658Y-610174D02*
X5029706Y-600650D01*
X5029706Y-600650D02*
X5058277Y-600650D01*
X5058277Y-600650D02*
X5077325Y-610174D01*
X5153515Y-810174D02*
X5163039Y-800650D01*
X5163039Y-800650D02*
X5182087Y-772079D01*
X5182087Y-772079D02*
X5191611Y-753031D01*
X5191611Y-753031D02*
X5201134Y-724460D01*
X5201134Y-724460D02*
X5210658Y-676841D01*
X5210658Y-676841D02*
X5210658Y-638746D01*
X5210658Y-638746D02*
X5201134Y-591127D01*
X5201134Y-591127D02*
X5191611Y-562555D01*
X5191611Y-562555D02*
X5182087Y-543508D01*
X5182087Y-543508D02*
X5163039Y-514936D01*
X5163039Y-514936D02*
X5153515Y-505412D01*
D12*
X-2500Y-906500D02*
G75*
G02*
X-52500Y-906500I-25000J0D01*
G01*
X-52500Y-906500D02*
G75*
G02*
X-2500Y-906500I25000J0D01*
G01*
D11*
X296372Y-797984D02*
X315420Y-797984D01*
X315420Y-797984D02*
X334467Y-807508D01*
X334467Y-807508D02*
X343991Y-817031D01*
X343991Y-817031D02*
X353515Y-836079D01*
X353515Y-836079D02*
X363039Y-874174D01*
X363039Y-874174D02*
X363039Y-921793D01*
X363039Y-921793D02*
X353515Y-959888D01*
X353515Y-959888D02*
X343991Y-978936D01*
X343991Y-978936D02*
X334467Y-988460D01*
X334467Y-988460D02*
X315420Y-997984D01*
X315420Y-997984D02*
X296372Y-997984D01*
X296372Y-997984D02*
X277324Y-988460D01*
X277324Y-988460D02*
X267801Y-978936D01*
X267801Y-978936D02*
X258277Y-959888D01*
X258277Y-959888D02*
X248753Y-921793D01*
X248753Y-921793D02*
X248753Y-874174D01*
X248753Y-874174D02*
X258277Y-836079D01*
X258277Y-836079D02*
X267801Y-817031D01*
X267801Y-817031D02*
X277324Y-807508D01*
X277324Y-807508D02*
X296372Y-797984D01*
X448753Y-978936D02*
X458277Y-988460D01*
X458277Y-988460D02*
X448753Y-997984D01*
X448753Y-997984D02*
X439229Y-988460D01*
X439229Y-988460D02*
X448753Y-978936D01*
X448753Y-978936D02*
X448753Y-997984D01*
X639229Y-797984D02*
X543991Y-797984D01*
X543991Y-797984D02*
X534467Y-893222D01*
X534467Y-893222D02*
X543991Y-883698D01*
X543991Y-883698D02*
X563039Y-874174D01*
X563039Y-874174D02*
X610658Y-874174D01*
X610658Y-874174D02*
X629705Y-883698D01*
X629705Y-883698D02*
X639229Y-893222D01*
X639229Y-893222D02*
X648753Y-912269D01*
X648753Y-912269D02*
X648753Y-959888D01*
X648753Y-959888D02*
X639229Y-978936D01*
X639229Y-978936D02*
X629705Y-988460D01*
X629705Y-988460D02*
X610658Y-997984D01*
X610658Y-997984D02*
X563039Y-997984D01*
X563039Y-997984D02*
X543991Y-988460D01*
X543991Y-988460D02*
X534467Y-978936D01*
X772562Y-797984D02*
X791610Y-797984D01*
X791610Y-797984D02*
X810658Y-807508D01*
X810658Y-807508D02*
X820182Y-817031D01*
X820182Y-817031D02*
X829705Y-836079D01*
X829705Y-836079D02*
X839229Y-874174D01*
X839229Y-874174D02*
X839229Y-921793D01*
X839229Y-921793D02*
X829705Y-959888D01*
X829705Y-959888D02*
X820182Y-978936D01*
X820182Y-978936D02*
X810658Y-988460D01*
X810658Y-988460D02*
X791610Y-997984D01*
X791610Y-997984D02*
X772562Y-997984D01*
X772562Y-997984D02*
X753515Y-988460D01*
X753515Y-988460D02*
X743991Y-978936D01*
X743991Y-978936D02*
X734467Y-959888D01*
X734467Y-959888D02*
X724943Y-921793D01*
X724943Y-921793D02*
X724943Y-874174D01*
X724943Y-874174D02*
X734467Y-836079D01*
X734467Y-836079D02*
X743991Y-817031D01*
X743991Y-817031D02*
X753515Y-807508D01*
X753515Y-807508D02*
X772562Y-797984D01*
X963039Y-797984D02*
X982086Y-797984D01*
X982086Y-797984D02*
X1001134Y-807508D01*
X1001134Y-807508D02*
X1010658Y-817031D01*
X1010658Y-817031D02*
X1020182Y-836079D01*
X1020182Y-836079D02*
X1029705Y-874174D01*
X1029705Y-874174D02*
X1029705Y-921793D01*
X1029705Y-921793D02*
X1020182Y-959888D01*
X1020182Y-959888D02*
X1010658Y-978936D01*
X1010658Y-978936D02*
X1001134Y-988460D01*
X1001134Y-988460D02*
X982086Y-997984D01*
X982086Y-997984D02*
X963039Y-997984D01*
X963039Y-997984D02*
X943991Y-988460D01*
X943991Y-988460D02*
X934467Y-978936D01*
X934467Y-978936D02*
X924943Y-959888D01*
X924943Y-959888D02*
X915420Y-921793D01*
X915420Y-921793D02*
X915420Y-874174D01*
X915420Y-874174D02*
X924943Y-836079D01*
X924943Y-836079D02*
X934467Y-817031D01*
X934467Y-817031D02*
X943991Y-807508D01*
X943991Y-807508D02*
X963039Y-797984D01*
X1115420Y-997984D02*
X1115420Y-864650D01*
X1115420Y-883698D02*
X1124944Y-874174D01*
X1124944Y-874174D02*
X1143991Y-864650D01*
X1143991Y-864650D02*
X1172563Y-864650D01*
X1172563Y-864650D02*
X1191610Y-874174D01*
X1191610Y-874174D02*
X1201134Y-893222D01*
X1201134Y-893222D02*
X1201134Y-997984D01*
X1201134Y-893222D02*
X1210658Y-874174D01*
X1210658Y-874174D02*
X1229705Y-864650D01*
X1229705Y-864650D02*
X1258277Y-864650D01*
X1258277Y-864650D02*
X1277325Y-874174D01*
X1277325Y-874174D02*
X1286848Y-893222D01*
X1286848Y-893222D02*
X1286848Y-997984D01*
X1382086Y-997984D02*
X1382086Y-864650D01*
X1382086Y-883698D02*
X1391610Y-874174D01*
X1391610Y-874174D02*
X1410658Y-864650D01*
X1410658Y-864650D02*
X1439229Y-864650D01*
X1439229Y-864650D02*
X1458277Y-874174D01*
X1458277Y-874174D02*
X1467801Y-893222D01*
X1467801Y-893222D02*
X1467801Y-997984D01*
X1467801Y-893222D02*
X1477324Y-874174D01*
X1477324Y-874174D02*
X1496372Y-864650D01*
X1496372Y-864650D02*
X1524943Y-864650D01*
X1524943Y-864650D02*
X1543991Y-874174D01*
X1543991Y-874174D02*
X1553515Y-893222D01*
X1553515Y-893222D02*
X1553515Y-997984D01*
X1943991Y-788460D02*
X1772563Y-1045603D01*
X2201134Y-797984D02*
X2220182Y-797984D01*
X2220182Y-797984D02*
X2239229Y-807508D01*
X2239229Y-807508D02*
X2248753Y-817031D01*
X2248753Y-817031D02*
X2258277Y-836079D01*
X2258277Y-836079D02*
X2267801Y-874174D01*
X2267801Y-874174D02*
X2267801Y-921793D01*
X2267801Y-921793D02*
X2258277Y-959888D01*
X2258277Y-959888D02*
X2248753Y-978936D01*
X2248753Y-978936D02*
X2239229Y-988460D01*
X2239229Y-988460D02*
X2220182Y-997984D01*
X2220182Y-997984D02*
X2201134Y-997984D01*
X2201134Y-997984D02*
X2182087Y-988460D01*
X2182087Y-988460D02*
X2172563Y-978936D01*
X2172563Y-978936D02*
X2163039Y-959888D01*
X2163039Y-959888D02*
X2153515Y-921793D01*
X2153515Y-921793D02*
X2153515Y-874174D01*
X2153515Y-874174D02*
X2163039Y-836079D01*
X2163039Y-836079D02*
X2172563Y-817031D01*
X2172563Y-817031D02*
X2182087Y-807508D01*
X2182087Y-807508D02*
X2201134Y-797984D01*
X2353515Y-978936D02*
X2363039Y-988460D01*
X2363039Y-988460D02*
X2353515Y-997984D01*
X2353515Y-997984D02*
X2343991Y-988460D01*
X2343991Y-988460D02*
X2353515Y-978936D01*
X2353515Y-978936D02*
X2353515Y-997984D01*
X2486848Y-797984D02*
X2505896Y-797984D01*
X2505896Y-797984D02*
X2524944Y-807508D01*
X2524944Y-807508D02*
X2534468Y-817031D01*
X2534468Y-817031D02*
X2543991Y-836079D01*
X2543991Y-836079D02*
X2553515Y-874174D01*
X2553515Y-874174D02*
X2553515Y-921793D01*
X2553515Y-921793D02*
X2543991Y-959888D01*
X2543991Y-959888D02*
X2534468Y-978936D01*
X2534468Y-978936D02*
X2524944Y-988460D01*
X2524944Y-988460D02*
X2505896Y-997984D01*
X2505896Y-997984D02*
X2486848Y-997984D01*
X2486848Y-997984D02*
X2467801Y-988460D01*
X2467801Y-988460D02*
X2458277Y-978936D01*
X2458277Y-978936D02*
X2448753Y-959888D01*
X2448753Y-959888D02*
X2439229Y-921793D01*
X2439229Y-921793D02*
X2439229Y-874174D01*
X2439229Y-874174D02*
X2448753Y-836079D01*
X2448753Y-836079D02*
X2458277Y-817031D01*
X2458277Y-817031D02*
X2467801Y-807508D01*
X2467801Y-807508D02*
X2486848Y-797984D01*
X2743991Y-997984D02*
X2629706Y-997984D01*
X2686848Y-997984D02*
X2686848Y-797984D01*
X2686848Y-797984D02*
X2667801Y-826555D01*
X2667801Y-826555D02*
X2648753Y-845603D01*
X2648753Y-845603D02*
X2629706Y-855127D01*
X2839229Y-997984D02*
X2877325Y-997984D01*
X2877325Y-997984D02*
X2896372Y-988460D01*
X2896372Y-988460D02*
X2905896Y-978936D01*
X2905896Y-978936D02*
X2924944Y-950365D01*
X2924944Y-950365D02*
X2934467Y-912269D01*
X2934467Y-912269D02*
X2934467Y-836079D01*
X2934467Y-836079D02*
X2924944Y-817031D01*
X2924944Y-817031D02*
X2915420Y-807508D01*
X2915420Y-807508D02*
X2896372Y-797984D01*
X2896372Y-797984D02*
X2858277Y-797984D01*
X2858277Y-797984D02*
X2839229Y-807508D01*
X2839229Y-807508D02*
X2829706Y-817031D01*
X2829706Y-817031D02*
X2820182Y-836079D01*
X2820182Y-836079D02*
X2820182Y-883698D01*
X2820182Y-883698D02*
X2829706Y-902746D01*
X2829706Y-902746D02*
X2839229Y-912269D01*
X2839229Y-912269D02*
X2858277Y-921793D01*
X2858277Y-921793D02*
X2896372Y-921793D01*
X2896372Y-921793D02*
X2915420Y-912269D01*
X2915420Y-912269D02*
X2924944Y-902746D01*
X2924944Y-902746D02*
X2934467Y-883698D01*
X3001134Y-797984D02*
X3134467Y-797984D01*
X3134467Y-797984D02*
X3048753Y-997984D01*
X3201134Y-797984D02*
X3201134Y-836079D01*
X3277325Y-797984D02*
X3277325Y-836079D01*
X3572563Y-1074174D02*
X3563039Y-1064650D01*
X3563039Y-1064650D02*
X3543991Y-1036079D01*
X3543991Y-1036079D02*
X3534468Y-1017031D01*
X3534468Y-1017031D02*
X3524944Y-988460D01*
X3524944Y-988460D02*
X3515420Y-940841D01*
X3515420Y-940841D02*
X3515420Y-902746D01*
X3515420Y-902746D02*
X3524944Y-855127D01*
X3524944Y-855127D02*
X3534468Y-826555D01*
X3534468Y-826555D02*
X3543991Y-807508D01*
X3543991Y-807508D02*
X3563039Y-778936D01*
X3563039Y-778936D02*
X3572563Y-769412D01*
X3753515Y-997984D02*
X3639229Y-997984D01*
X3696372Y-997984D02*
X3696372Y-797984D01*
X3696372Y-797984D02*
X3677325Y-826555D01*
X3677325Y-826555D02*
X3658277Y-845603D01*
X3658277Y-845603D02*
X3639229Y-855127D01*
X3820182Y-797984D02*
X3943991Y-797984D01*
X3943991Y-797984D02*
X3877325Y-874174D01*
X3877325Y-874174D02*
X3905896Y-874174D01*
X3905896Y-874174D02*
X3924944Y-883698D01*
X3924944Y-883698D02*
X3934468Y-893222D01*
X3934468Y-893222D02*
X3943991Y-912269D01*
X3943991Y-912269D02*
X3943991Y-959888D01*
X3943991Y-959888D02*
X3934468Y-978936D01*
X3934468Y-978936D02*
X3924944Y-988460D01*
X3924944Y-988460D02*
X3905896Y-997984D01*
X3905896Y-997984D02*
X3848753Y-997984D01*
X3848753Y-997984D02*
X3829706Y-988460D01*
X3829706Y-988460D02*
X3820182Y-978936D01*
X4182087Y-997984D02*
X4182087Y-797984D01*
X4267801Y-997984D02*
X4267801Y-893222D01*
X4267801Y-893222D02*
X4258277Y-874174D01*
X4258277Y-874174D02*
X4239230Y-864650D01*
X4239230Y-864650D02*
X4210658Y-864650D01*
X4210658Y-864650D02*
X4191610Y-874174D01*
X4191610Y-874174D02*
X4182087Y-883698D01*
X4391611Y-997984D02*
X4372563Y-988460D01*
X4372563Y-988460D02*
X4363039Y-978936D01*
X4363039Y-978936D02*
X4353515Y-959888D01*
X4353515Y-959888D02*
X4353515Y-902746D01*
X4353515Y-902746D02*
X4363039Y-883698D01*
X4363039Y-883698D02*
X4372563Y-874174D01*
X4372563Y-874174D02*
X4391611Y-864650D01*
X4391611Y-864650D02*
X4420182Y-864650D01*
X4420182Y-864650D02*
X4439230Y-874174D01*
X4439230Y-874174D02*
X4448753Y-883698D01*
X4448753Y-883698D02*
X4458277Y-902746D01*
X4458277Y-902746D02*
X4458277Y-959888D01*
X4458277Y-959888D02*
X4448753Y-978936D01*
X4448753Y-978936D02*
X4439230Y-988460D01*
X4439230Y-988460D02*
X4420182Y-997984D01*
X4420182Y-997984D02*
X4391611Y-997984D01*
X4572563Y-997984D02*
X4553515Y-988460D01*
X4553515Y-988460D02*
X4543992Y-969412D01*
X4543992Y-969412D02*
X4543992Y-797984D01*
X4724944Y-988460D02*
X4705896Y-997984D01*
X4705896Y-997984D02*
X4667801Y-997984D01*
X4667801Y-997984D02*
X4648753Y-988460D01*
X4648753Y-988460D02*
X4639230Y-969412D01*
X4639230Y-969412D02*
X4639230Y-893222D01*
X4639230Y-893222D02*
X4648753Y-874174D01*
X4648753Y-874174D02*
X4667801Y-864650D01*
X4667801Y-864650D02*
X4705896Y-864650D01*
X4705896Y-864650D02*
X4724944Y-874174D01*
X4724944Y-874174D02*
X4734468Y-893222D01*
X4734468Y-893222D02*
X4734468Y-912269D01*
X4734468Y-912269D02*
X4639230Y-931317D01*
X4810658Y-988460D02*
X4829706Y-997984D01*
X4829706Y-997984D02*
X4867801Y-997984D01*
X4867801Y-997984D02*
X4886849Y-988460D01*
X4886849Y-988460D02*
X4896373Y-969412D01*
X4896373Y-969412D02*
X4896373Y-959888D01*
X4896373Y-959888D02*
X4886849Y-940841D01*
X4886849Y-940841D02*
X4867801Y-931317D01*
X4867801Y-931317D02*
X4839230Y-931317D01*
X4839230Y-931317D02*
X4820182Y-921793D01*
X4820182Y-921793D02*
X4810658Y-902746D01*
X4810658Y-902746D02*
X4810658Y-893222D01*
X4810658Y-893222D02*
X4820182Y-874174D01*
X4820182Y-874174D02*
X4839230Y-864650D01*
X4839230Y-864650D02*
X4867801Y-864650D01*
X4867801Y-864650D02*
X4886849Y-874174D01*
X4963039Y-1074174D02*
X4972563Y-1064650D01*
X4972563Y-1064650D02*
X4991611Y-1036079D01*
X4991611Y-1036079D02*
X5001134Y-1017031D01*
X5001134Y-1017031D02*
X5010658Y-988460D01*
X5010658Y-988460D02*
X5020182Y-940841D01*
X5020182Y-940841D02*
X5020182Y-902746D01*
X5020182Y-902746D02*
X5010658Y-855127D01*
X5010658Y-855127D02*
X5001134Y-826555D01*
X5001134Y-826555D02*
X4991611Y-807508D01*
X4991611Y-807508D02*
X4972563Y-778936D01*
X4972563Y-778936D02*
X4963039Y-769412D01*
D12*
X-32500Y-1140500D02*
X-32500Y-1200500D01*
X-62500Y-1170500D02*
X-2500Y-1170500D01*
D11*
X296372Y-1061984D02*
X315420Y-1061984D01*
X315420Y-1061984D02*
X334467Y-1071508D01*
X334467Y-1071508D02*
X343991Y-1081031D01*
X343991Y-1081031D02*
X353515Y-1100079D01*
X353515Y-1100079D02*
X363039Y-1138174D01*
X363039Y-1138174D02*
X363039Y-1185793D01*
X363039Y-1185793D02*
X353515Y-1223889D01*
X353515Y-1223889D02*
X343991Y-1242936D01*
X343991Y-1242936D02*
X334467Y-1252460D01*
X334467Y-1252460D02*
X315420Y-1261984D01*
X315420Y-1261984D02*
X296372Y-1261984D01*
X296372Y-1261984D02*
X277324Y-1252460D01*
X277324Y-1252460D02*
X267801Y-1242936D01*
X267801Y-1242936D02*
X258277Y-1223889D01*
X258277Y-1223889D02*
X248753Y-1185793D01*
X248753Y-1185793D02*
X248753Y-1138174D01*
X248753Y-1138174D02*
X258277Y-1100079D01*
X258277Y-1100079D02*
X267801Y-1081031D01*
X267801Y-1081031D02*
X277324Y-1071508D01*
X277324Y-1071508D02*
X296372Y-1061984D01*
X448753Y-1242936D02*
X458277Y-1252460D01*
X458277Y-1252460D02*
X448753Y-1261984D01*
X448753Y-1261984D02*
X439229Y-1252460D01*
X439229Y-1252460D02*
X448753Y-1242936D01*
X448753Y-1242936D02*
X448753Y-1261984D01*
X629705Y-1061984D02*
X591610Y-1061984D01*
X591610Y-1061984D02*
X572563Y-1071508D01*
X572563Y-1071508D02*
X563039Y-1081031D01*
X563039Y-1081031D02*
X543991Y-1109603D01*
X543991Y-1109603D02*
X534467Y-1147698D01*
X534467Y-1147698D02*
X534467Y-1223889D01*
X534467Y-1223889D02*
X543991Y-1242936D01*
X543991Y-1242936D02*
X553515Y-1252460D01*
X553515Y-1252460D02*
X572563Y-1261984D01*
X572563Y-1261984D02*
X610658Y-1261984D01*
X610658Y-1261984D02*
X629705Y-1252460D01*
X629705Y-1252460D02*
X639229Y-1242936D01*
X639229Y-1242936D02*
X648753Y-1223889D01*
X648753Y-1223889D02*
X648753Y-1176270D01*
X648753Y-1176270D02*
X639229Y-1157222D01*
X639229Y-1157222D02*
X629705Y-1147698D01*
X629705Y-1147698D02*
X610658Y-1138174D01*
X610658Y-1138174D02*
X572563Y-1138174D01*
X572563Y-1138174D02*
X553515Y-1147698D01*
X553515Y-1147698D02*
X543991Y-1157222D01*
X543991Y-1157222D02*
X534467Y-1176270D01*
X772562Y-1061984D02*
X791610Y-1061984D01*
X791610Y-1061984D02*
X810658Y-1071508D01*
X810658Y-1071508D02*
X820182Y-1081031D01*
X820182Y-1081031D02*
X829705Y-1100079D01*
X829705Y-1100079D02*
X839229Y-1138174D01*
X839229Y-1138174D02*
X839229Y-1185793D01*
X839229Y-1185793D02*
X829705Y-1223889D01*
X829705Y-1223889D02*
X820182Y-1242936D01*
X820182Y-1242936D02*
X810658Y-1252460D01*
X810658Y-1252460D02*
X791610Y-1261984D01*
X791610Y-1261984D02*
X772562Y-1261984D01*
X772562Y-1261984D02*
X753515Y-1252460D01*
X753515Y-1252460D02*
X743991Y-1242936D01*
X743991Y-1242936D02*
X734467Y-1223889D01*
X734467Y-1223889D02*
X724943Y-1185793D01*
X724943Y-1185793D02*
X724943Y-1138174D01*
X724943Y-1138174D02*
X734467Y-1100079D01*
X734467Y-1100079D02*
X743991Y-1081031D01*
X743991Y-1081031D02*
X753515Y-1071508D01*
X753515Y-1071508D02*
X772562Y-1061984D01*
X963039Y-1061984D02*
X982086Y-1061984D01*
X982086Y-1061984D02*
X1001134Y-1071508D01*
X1001134Y-1071508D02*
X1010658Y-1081031D01*
X1010658Y-1081031D02*
X1020182Y-1100079D01*
X1020182Y-1100079D02*
X1029705Y-1138174D01*
X1029705Y-1138174D02*
X1029705Y-1185793D01*
X1029705Y-1185793D02*
X1020182Y-1223889D01*
X1020182Y-1223889D02*
X1010658Y-1242936D01*
X1010658Y-1242936D02*
X1001134Y-1252460D01*
X1001134Y-1252460D02*
X982086Y-1261984D01*
X982086Y-1261984D02*
X963039Y-1261984D01*
X963039Y-1261984D02*
X943991Y-1252460D01*
X943991Y-1252460D02*
X934467Y-1242936D01*
X934467Y-1242936D02*
X924943Y-1223889D01*
X924943Y-1223889D02*
X915420Y-1185793D01*
X915420Y-1185793D02*
X915420Y-1138174D01*
X915420Y-1138174D02*
X924943Y-1100079D01*
X924943Y-1100079D02*
X934467Y-1081031D01*
X934467Y-1081031D02*
X943991Y-1071508D01*
X943991Y-1071508D02*
X963039Y-1061984D01*
X1115420Y-1261984D02*
X1115420Y-1128650D01*
X1115420Y-1147698D02*
X1124944Y-1138174D01*
X1124944Y-1138174D02*
X1143991Y-1128650D01*
X1143991Y-1128650D02*
X1172563Y-1128650D01*
X1172563Y-1128650D02*
X1191610Y-1138174D01*
X1191610Y-1138174D02*
X1201134Y-1157222D01*
X1201134Y-1157222D02*
X1201134Y-1261984D01*
X1201134Y-1157222D02*
X1210658Y-1138174D01*
X1210658Y-1138174D02*
X1229705Y-1128650D01*
X1229705Y-1128650D02*
X1258277Y-1128650D01*
X1258277Y-1128650D02*
X1277325Y-1138174D01*
X1277325Y-1138174D02*
X1286848Y-1157222D01*
X1286848Y-1157222D02*
X1286848Y-1261984D01*
X1382086Y-1261984D02*
X1382086Y-1128650D01*
X1382086Y-1147698D02*
X1391610Y-1138174D01*
X1391610Y-1138174D02*
X1410658Y-1128650D01*
X1410658Y-1128650D02*
X1439229Y-1128650D01*
X1439229Y-1128650D02*
X1458277Y-1138174D01*
X1458277Y-1138174D02*
X1467801Y-1157222D01*
X1467801Y-1157222D02*
X1467801Y-1261984D01*
X1467801Y-1157222D02*
X1477324Y-1138174D01*
X1477324Y-1138174D02*
X1496372Y-1128650D01*
X1496372Y-1128650D02*
X1524943Y-1128650D01*
X1524943Y-1128650D02*
X1543991Y-1138174D01*
X1543991Y-1138174D02*
X1553515Y-1157222D01*
X1553515Y-1157222D02*
X1553515Y-1261984D01*
X1943991Y-1052460D02*
X1772563Y-1309603D01*
X2201134Y-1061984D02*
X2220182Y-1061984D01*
X2220182Y-1061984D02*
X2239229Y-1071508D01*
X2239229Y-1071508D02*
X2248753Y-1081031D01*
X2248753Y-1081031D02*
X2258277Y-1100079D01*
X2258277Y-1100079D02*
X2267801Y-1138174D01*
X2267801Y-1138174D02*
X2267801Y-1185793D01*
X2267801Y-1185793D02*
X2258277Y-1223889D01*
X2258277Y-1223889D02*
X2248753Y-1242936D01*
X2248753Y-1242936D02*
X2239229Y-1252460D01*
X2239229Y-1252460D02*
X2220182Y-1261984D01*
X2220182Y-1261984D02*
X2201134Y-1261984D01*
X2201134Y-1261984D02*
X2182087Y-1252460D01*
X2182087Y-1252460D02*
X2172563Y-1242936D01*
X2172563Y-1242936D02*
X2163039Y-1223889D01*
X2163039Y-1223889D02*
X2153515Y-1185793D01*
X2153515Y-1185793D02*
X2153515Y-1138174D01*
X2153515Y-1138174D02*
X2163039Y-1100079D01*
X2163039Y-1100079D02*
X2172563Y-1081031D01*
X2172563Y-1081031D02*
X2182087Y-1071508D01*
X2182087Y-1071508D02*
X2201134Y-1061984D01*
X2353515Y-1242936D02*
X2363039Y-1252460D01*
X2363039Y-1252460D02*
X2353515Y-1261984D01*
X2353515Y-1261984D02*
X2343991Y-1252460D01*
X2343991Y-1252460D02*
X2353515Y-1242936D01*
X2353515Y-1242936D02*
X2353515Y-1261984D01*
X2486848Y-1061984D02*
X2505896Y-1061984D01*
X2505896Y-1061984D02*
X2524944Y-1071508D01*
X2524944Y-1071508D02*
X2534468Y-1081031D01*
X2534468Y-1081031D02*
X2543991Y-1100079D01*
X2543991Y-1100079D02*
X2553515Y-1138174D01*
X2553515Y-1138174D02*
X2553515Y-1185793D01*
X2553515Y-1185793D02*
X2543991Y-1223889D01*
X2543991Y-1223889D02*
X2534468Y-1242936D01*
X2534468Y-1242936D02*
X2524944Y-1252460D01*
X2524944Y-1252460D02*
X2505896Y-1261984D01*
X2505896Y-1261984D02*
X2486848Y-1261984D01*
X2486848Y-1261984D02*
X2467801Y-1252460D01*
X2467801Y-1252460D02*
X2458277Y-1242936D01*
X2458277Y-1242936D02*
X2448753Y-1223889D01*
X2448753Y-1223889D02*
X2439229Y-1185793D01*
X2439229Y-1185793D02*
X2439229Y-1138174D01*
X2439229Y-1138174D02*
X2448753Y-1100079D01*
X2448753Y-1100079D02*
X2458277Y-1081031D01*
X2458277Y-1081031D02*
X2467801Y-1071508D01*
X2467801Y-1071508D02*
X2486848Y-1061984D01*
X2629706Y-1081031D02*
X2639229Y-1071508D01*
X2639229Y-1071508D02*
X2658277Y-1061984D01*
X2658277Y-1061984D02*
X2705896Y-1061984D01*
X2705896Y-1061984D02*
X2724944Y-1071508D01*
X2724944Y-1071508D02*
X2734468Y-1081031D01*
X2734468Y-1081031D02*
X2743991Y-1100079D01*
X2743991Y-1100079D02*
X2743991Y-1119127D01*
X2743991Y-1119127D02*
X2734468Y-1147698D01*
X2734468Y-1147698D02*
X2620182Y-1261984D01*
X2620182Y-1261984D02*
X2743991Y-1261984D01*
X2810658Y-1061984D02*
X2934467Y-1061984D01*
X2934467Y-1061984D02*
X2867801Y-1138174D01*
X2867801Y-1138174D02*
X2896372Y-1138174D01*
X2896372Y-1138174D02*
X2915420Y-1147698D01*
X2915420Y-1147698D02*
X2924944Y-1157222D01*
X2924944Y-1157222D02*
X2934467Y-1176270D01*
X2934467Y-1176270D02*
X2934467Y-1223889D01*
X2934467Y-1223889D02*
X2924944Y-1242936D01*
X2924944Y-1242936D02*
X2915420Y-1252460D01*
X2915420Y-1252460D02*
X2896372Y-1261984D01*
X2896372Y-1261984D02*
X2839229Y-1261984D01*
X2839229Y-1261984D02*
X2820182Y-1252460D01*
X2820182Y-1252460D02*
X2810658Y-1242936D01*
X3105896Y-1061984D02*
X3067801Y-1061984D01*
X3067801Y-1061984D02*
X3048753Y-1071508D01*
X3048753Y-1071508D02*
X3039229Y-1081031D01*
X3039229Y-1081031D02*
X3020182Y-1109603D01*
X3020182Y-1109603D02*
X3010658Y-1147698D01*
X3010658Y-1147698D02*
X3010658Y-1223889D01*
X3010658Y-1223889D02*
X3020182Y-1242936D01*
X3020182Y-1242936D02*
X3029706Y-1252460D01*
X3029706Y-1252460D02*
X3048753Y-1261984D01*
X3048753Y-1261984D02*
X3086848Y-1261984D01*
X3086848Y-1261984D02*
X3105896Y-1252460D01*
X3105896Y-1252460D02*
X3115420Y-1242936D01*
X3115420Y-1242936D02*
X3124944Y-1223889D01*
X3124944Y-1223889D02*
X3124944Y-1176270D01*
X3124944Y-1176270D02*
X3115420Y-1157222D01*
X3115420Y-1157222D02*
X3105896Y-1147698D01*
X3105896Y-1147698D02*
X3086848Y-1138174D01*
X3086848Y-1138174D02*
X3048753Y-1138174D01*
X3048753Y-1138174D02*
X3029706Y-1147698D01*
X3029706Y-1147698D02*
X3020182Y-1157222D01*
X3020182Y-1157222D02*
X3010658Y-1176270D01*
X3201134Y-1061984D02*
X3201134Y-1100079D01*
X3277325Y-1061984D02*
X3277325Y-1100079D01*
X3572563Y-1338174D02*
X3563039Y-1328650D01*
X3563039Y-1328650D02*
X3543991Y-1300079D01*
X3543991Y-1300079D02*
X3534468Y-1281031D01*
X3534468Y-1281031D02*
X3524944Y-1252460D01*
X3524944Y-1252460D02*
X3515420Y-1204841D01*
X3515420Y-1204841D02*
X3515420Y-1166746D01*
X3515420Y-1166746D02*
X3524944Y-1119127D01*
X3524944Y-1119127D02*
X3534468Y-1090555D01*
X3534468Y-1090555D02*
X3543991Y-1071508D01*
X3543991Y-1071508D02*
X3563039Y-1042936D01*
X3563039Y-1042936D02*
X3572563Y-1033412D01*
X3686848Y-1061984D02*
X3705896Y-1061984D01*
X3705896Y-1061984D02*
X3724944Y-1071508D01*
X3724944Y-1071508D02*
X3734468Y-1081031D01*
X3734468Y-1081031D02*
X3743991Y-1100079D01*
X3743991Y-1100079D02*
X3753515Y-1138174D01*
X3753515Y-1138174D02*
X3753515Y-1185793D01*
X3753515Y-1185793D02*
X3743991Y-1223889D01*
X3743991Y-1223889D02*
X3734468Y-1242936D01*
X3734468Y-1242936D02*
X3724944Y-1252460D01*
X3724944Y-1252460D02*
X3705896Y-1261984D01*
X3705896Y-1261984D02*
X3686848Y-1261984D01*
X3686848Y-1261984D02*
X3667801Y-1252460D01*
X3667801Y-1252460D02*
X3658277Y-1242936D01*
X3658277Y-1242936D02*
X3648753Y-1223889D01*
X3648753Y-1223889D02*
X3639229Y-1185793D01*
X3639229Y-1185793D02*
X3639229Y-1138174D01*
X3639229Y-1138174D02*
X3648753Y-1100079D01*
X3648753Y-1100079D02*
X3658277Y-1081031D01*
X3658277Y-1081031D02*
X3667801Y-1071508D01*
X3667801Y-1071508D02*
X3686848Y-1061984D01*
X3991610Y-1261984D02*
X3991610Y-1061984D01*
X4077325Y-1261984D02*
X4077325Y-1157222D01*
X4077325Y-1157222D02*
X4067801Y-1138174D01*
X4067801Y-1138174D02*
X4048753Y-1128650D01*
X4048753Y-1128650D02*
X4020182Y-1128650D01*
X4020182Y-1128650D02*
X4001134Y-1138174D01*
X4001134Y-1138174D02*
X3991610Y-1147698D01*
X4201134Y-1261984D02*
X4182087Y-1252460D01*
X4182087Y-1252460D02*
X4172563Y-1242936D01*
X4172563Y-1242936D02*
X4163039Y-1223889D01*
X4163039Y-1223889D02*
X4163039Y-1166746D01*
X4163039Y-1166746D02*
X4172563Y-1147698D01*
X4172563Y-1147698D02*
X4182087Y-1138174D01*
X4182087Y-1138174D02*
X4201134Y-1128650D01*
X4201134Y-1128650D02*
X4229706Y-1128650D01*
X4229706Y-1128650D02*
X4248753Y-1138174D01*
X4248753Y-1138174D02*
X4258277Y-1147698D01*
X4258277Y-1147698D02*
X4267801Y-1166746D01*
X4267801Y-1166746D02*
X4267801Y-1223889D01*
X4267801Y-1223889D02*
X4258277Y-1242936D01*
X4258277Y-1242936D02*
X4248753Y-1252460D01*
X4248753Y-1252460D02*
X4229706Y-1261984D01*
X4229706Y-1261984D02*
X4201134Y-1261984D01*
X4382087Y-1261984D02*
X4363039Y-1252460D01*
X4363039Y-1252460D02*
X4353515Y-1233412D01*
X4353515Y-1233412D02*
X4353515Y-1061984D01*
X4534468Y-1252460D02*
X4515420Y-1261984D01*
X4515420Y-1261984D02*
X4477325Y-1261984D01*
X4477325Y-1261984D02*
X4458277Y-1252460D01*
X4458277Y-1252460D02*
X4448753Y-1233412D01*
X4448753Y-1233412D02*
X4448753Y-1157222D01*
X4448753Y-1157222D02*
X4458277Y-1138174D01*
X4458277Y-1138174D02*
X4477325Y-1128650D01*
X4477325Y-1128650D02*
X4515420Y-1128650D01*
X4515420Y-1128650D02*
X4534468Y-1138174D01*
X4534468Y-1138174D02*
X4543992Y-1157222D01*
X4543992Y-1157222D02*
X4543992Y-1176270D01*
X4543992Y-1176270D02*
X4448753Y-1195317D01*
X4620182Y-1252460D02*
X4639230Y-1261984D01*
X4639230Y-1261984D02*
X4677325Y-1261984D01*
X4677325Y-1261984D02*
X4696373Y-1252460D01*
X4696373Y-1252460D02*
X4705896Y-1233412D01*
X4705896Y-1233412D02*
X4705896Y-1223889D01*
X4705896Y-1223889D02*
X4696373Y-1204841D01*
X4696373Y-1204841D02*
X4677325Y-1195317D01*
X4677325Y-1195317D02*
X4648753Y-1195317D01*
X4648753Y-1195317D02*
X4629706Y-1185793D01*
X4629706Y-1185793D02*
X4620182Y-1166746D01*
X4620182Y-1166746D02*
X4620182Y-1157222D01*
X4620182Y-1157222D02*
X4629706Y-1138174D01*
X4629706Y-1138174D02*
X4648753Y-1128650D01*
X4648753Y-1128650D02*
X4677325Y-1128650D01*
X4677325Y-1128650D02*
X4696373Y-1138174D01*
X4943992Y-1185793D02*
X5096373Y-1185793D01*
X5020182Y-1261984D02*
X5020182Y-1109603D01*
X5372563Y-1147698D02*
X5353515Y-1138174D01*
X5353515Y-1138174D02*
X5343992Y-1128650D01*
X5343992Y-1128650D02*
X5334468Y-1109603D01*
X5334468Y-1109603D02*
X5334468Y-1100079D01*
X5334468Y-1100079D02*
X5343992Y-1081031D01*
X5343992Y-1081031D02*
X5353515Y-1071508D01*
X5353515Y-1071508D02*
X5372563Y-1061984D01*
X5372563Y-1061984D02*
X5410658Y-1061984D01*
X5410658Y-1061984D02*
X5429706Y-1071508D01*
X5429706Y-1071508D02*
X5439230Y-1081031D01*
X5439230Y-1081031D02*
X5448754Y-1100079D01*
X5448754Y-1100079D02*
X5448754Y-1109603D01*
X5448754Y-1109603D02*
X5439230Y-1128650D01*
X5439230Y-1128650D02*
X5429706Y-1138174D01*
X5429706Y-1138174D02*
X5410658Y-1147698D01*
X5410658Y-1147698D02*
X5372563Y-1147698D01*
X5372563Y-1147698D02*
X5353515Y-1157222D01*
X5353515Y-1157222D02*
X5343992Y-1166746D01*
X5343992Y-1166746D02*
X5334468Y-1185793D01*
X5334468Y-1185793D02*
X5334468Y-1223889D01*
X5334468Y-1223889D02*
X5343992Y-1242936D01*
X5343992Y-1242936D02*
X5353515Y-1252460D01*
X5353515Y-1252460D02*
X5372563Y-1261984D01*
X5372563Y-1261984D02*
X5410658Y-1261984D01*
X5410658Y-1261984D02*
X5429706Y-1252460D01*
X5429706Y-1252460D02*
X5439230Y-1242936D01*
X5439230Y-1242936D02*
X5448754Y-1223889D01*
X5448754Y-1223889D02*
X5448754Y-1185793D01*
X5448754Y-1185793D02*
X5439230Y-1166746D01*
X5439230Y-1166746D02*
X5429706Y-1157222D01*
X5429706Y-1157222D02*
X5410658Y-1147698D01*
X5677325Y-1252460D02*
X5696373Y-1261984D01*
X5696373Y-1261984D02*
X5734468Y-1261984D01*
X5734468Y-1261984D02*
X5753515Y-1252460D01*
X5753515Y-1252460D02*
X5763039Y-1233412D01*
X5763039Y-1233412D02*
X5763039Y-1223889D01*
X5763039Y-1223889D02*
X5753515Y-1204841D01*
X5753515Y-1204841D02*
X5734468Y-1195317D01*
X5734468Y-1195317D02*
X5705896Y-1195317D01*
X5705896Y-1195317D02*
X5686849Y-1185793D01*
X5686849Y-1185793D02*
X5677325Y-1166746D01*
X5677325Y-1166746D02*
X5677325Y-1157222D01*
X5677325Y-1157222D02*
X5686849Y-1138174D01*
X5686849Y-1138174D02*
X5705896Y-1128650D01*
X5705896Y-1128650D02*
X5734468Y-1128650D01*
X5734468Y-1128650D02*
X5753515Y-1138174D01*
X5877325Y-1261984D02*
X5858277Y-1252460D01*
X5858277Y-1252460D02*
X5848754Y-1233412D01*
X5848754Y-1233412D02*
X5848754Y-1061984D01*
X5982087Y-1261984D02*
X5963039Y-1252460D01*
X5963039Y-1252460D02*
X5953515Y-1242936D01*
X5953515Y-1242936D02*
X5943992Y-1223889D01*
X5943992Y-1223889D02*
X5943992Y-1166746D01*
X5943992Y-1166746D02*
X5953515Y-1147698D01*
X5953515Y-1147698D02*
X5963039Y-1138174D01*
X5963039Y-1138174D02*
X5982087Y-1128650D01*
X5982087Y-1128650D02*
X6010658Y-1128650D01*
X6010658Y-1128650D02*
X6029706Y-1138174D01*
X6029706Y-1138174D02*
X6039230Y-1147698D01*
X6039230Y-1147698D02*
X6048754Y-1166746D01*
X6048754Y-1166746D02*
X6048754Y-1223889D01*
X6048754Y-1223889D02*
X6039230Y-1242936D01*
X6039230Y-1242936D02*
X6029706Y-1252460D01*
X6029706Y-1252460D02*
X6010658Y-1261984D01*
X6010658Y-1261984D02*
X5982087Y-1261984D01*
X6105896Y-1128650D02*
X6182087Y-1128650D01*
X6134468Y-1061984D02*
X6134468Y-1233412D01*
X6134468Y-1233412D02*
X6143992Y-1252460D01*
X6143992Y-1252460D02*
X6163039Y-1261984D01*
X6163039Y-1261984D02*
X6182087Y-1261984D01*
X6239230Y-1252460D02*
X6258277Y-1261984D01*
X6258277Y-1261984D02*
X6296373Y-1261984D01*
X6296373Y-1261984D02*
X6315420Y-1252460D01*
X6315420Y-1252460D02*
X6324944Y-1233412D01*
X6324944Y-1233412D02*
X6324944Y-1223889D01*
X6324944Y-1223889D02*
X6315420Y-1204841D01*
X6315420Y-1204841D02*
X6296373Y-1195317D01*
X6296373Y-1195317D02*
X6267801Y-1195317D01*
X6267801Y-1195317D02*
X6248754Y-1185793D01*
X6248754Y-1185793D02*
X6239230Y-1166746D01*
X6239230Y-1166746D02*
X6239230Y-1157222D01*
X6239230Y-1157222D02*
X6248754Y-1138174D01*
X6248754Y-1138174D02*
X6267801Y-1128650D01*
X6267801Y-1128650D02*
X6296373Y-1128650D01*
X6296373Y-1128650D02*
X6315420Y-1138174D01*
X6391611Y-1338174D02*
X6401135Y-1328650D01*
X6401135Y-1328650D02*
X6420182Y-1300079D01*
X6420182Y-1300079D02*
X6429706Y-1281031D01*
X6429706Y-1281031D02*
X6439230Y-1252460D01*
X6439230Y-1252460D02*
X6448754Y-1204841D01*
X6448754Y-1204841D02*
X6448754Y-1166746D01*
X6448754Y-1166746D02*
X6439230Y-1119127D01*
X6439230Y-1119127D02*
X6429706Y-1090555D01*
X6429706Y-1090555D02*
X6420182Y-1071508D01*
X6420182Y-1071508D02*
X6401135Y-1042936D01*
X6401135Y-1042936D02*
X6391611Y-1033412D01*
D12*
X-17144Y-1469856D02*
X-17144Y-1399144D01*
X-87856Y-1399144D01*
X-87856Y-1469856D01*
X-17144Y-1469856D01*
D11*
X363039Y-1525984D02*
X248753Y-1525984D01*
X305896Y-1525984D02*
X305896Y-1325984D01*
X305896Y-1325984D02*
X286848Y-1354555D01*
X286848Y-1354555D02*
X267801Y-1373603D01*
X267801Y-1373603D02*
X248753Y-1383127D01*
X448753Y-1506936D02*
X458277Y-1516460D01*
X458277Y-1516460D02*
X448753Y-1525984D01*
X448753Y-1525984D02*
X439229Y-1516460D01*
X439229Y-1516460D02*
X448753Y-1506936D01*
X448753Y-1506936D02*
X448753Y-1525984D01*
X582086Y-1325984D02*
X601134Y-1325984D01*
X601134Y-1325984D02*
X620182Y-1335508D01*
X620182Y-1335508D02*
X629705Y-1345031D01*
X629705Y-1345031D02*
X639229Y-1364079D01*
X639229Y-1364079D02*
X648753Y-1402174D01*
X648753Y-1402174D02*
X648753Y-1449793D01*
X648753Y-1449793D02*
X639229Y-1487888D01*
X639229Y-1487888D02*
X629705Y-1506936D01*
X629705Y-1506936D02*
X620182Y-1516460D01*
X620182Y-1516460D02*
X601134Y-1525984D01*
X601134Y-1525984D02*
X582086Y-1525984D01*
X582086Y-1525984D02*
X563039Y-1516460D01*
X563039Y-1516460D02*
X553515Y-1506936D01*
X553515Y-1506936D02*
X543991Y-1487888D01*
X543991Y-1487888D02*
X534467Y-1449793D01*
X534467Y-1449793D02*
X534467Y-1402174D01*
X534467Y-1402174D02*
X543991Y-1364079D01*
X543991Y-1364079D02*
X553515Y-1345031D01*
X553515Y-1345031D02*
X563039Y-1335508D01*
X563039Y-1335508D02*
X582086Y-1325984D01*
X772562Y-1325984D02*
X791610Y-1325984D01*
X791610Y-1325984D02*
X810658Y-1335508D01*
X810658Y-1335508D02*
X820182Y-1345031D01*
X820182Y-1345031D02*
X829705Y-1364079D01*
X829705Y-1364079D02*
X839229Y-1402174D01*
X839229Y-1402174D02*
X839229Y-1449793D01*
X839229Y-1449793D02*
X829705Y-1487888D01*
X829705Y-1487888D02*
X820182Y-1506936D01*
X820182Y-1506936D02*
X810658Y-1516460D01*
X810658Y-1516460D02*
X791610Y-1525984D01*
X791610Y-1525984D02*
X772562Y-1525984D01*
X772562Y-1525984D02*
X753515Y-1516460D01*
X753515Y-1516460D02*
X743991Y-1506936D01*
X743991Y-1506936D02*
X734467Y-1487888D01*
X734467Y-1487888D02*
X724943Y-1449793D01*
X724943Y-1449793D02*
X724943Y-1402174D01*
X724943Y-1402174D02*
X734467Y-1364079D01*
X734467Y-1364079D02*
X743991Y-1345031D01*
X743991Y-1345031D02*
X753515Y-1335508D01*
X753515Y-1335508D02*
X772562Y-1325984D01*
X963039Y-1325984D02*
X982086Y-1325984D01*
X982086Y-1325984D02*
X1001134Y-1335508D01*
X1001134Y-1335508D02*
X1010658Y-1345031D01*
X1010658Y-1345031D02*
X1020182Y-1364079D01*
X1020182Y-1364079D02*
X1029705Y-1402174D01*
X1029705Y-1402174D02*
X1029705Y-1449793D01*
X1029705Y-1449793D02*
X1020182Y-1487888D01*
X1020182Y-1487888D02*
X1010658Y-1506936D01*
X1010658Y-1506936D02*
X1001134Y-1516460D01*
X1001134Y-1516460D02*
X982086Y-1525984D01*
X982086Y-1525984D02*
X963039Y-1525984D01*
X963039Y-1525984D02*
X943991Y-1516460D01*
X943991Y-1516460D02*
X934467Y-1506936D01*
X934467Y-1506936D02*
X924943Y-1487888D01*
X924943Y-1487888D02*
X915420Y-1449793D01*
X915420Y-1449793D02*
X915420Y-1402174D01*
X915420Y-1402174D02*
X924943Y-1364079D01*
X924943Y-1364079D02*
X934467Y-1345031D01*
X934467Y-1345031D02*
X943991Y-1335508D01*
X943991Y-1335508D02*
X963039Y-1325984D01*
X1115420Y-1525984D02*
X1115420Y-1392650D01*
X1115420Y-1411698D02*
X1124944Y-1402174D01*
X1124944Y-1402174D02*
X1143991Y-1392650D01*
X1143991Y-1392650D02*
X1172563Y-1392650D01*
X1172563Y-1392650D02*
X1191610Y-1402174D01*
X1191610Y-1402174D02*
X1201134Y-1421222D01*
X1201134Y-1421222D02*
X1201134Y-1525984D01*
X1201134Y-1421222D02*
X1210658Y-1402174D01*
X1210658Y-1402174D02*
X1229705Y-1392650D01*
X1229705Y-1392650D02*
X1258277Y-1392650D01*
X1258277Y-1392650D02*
X1277325Y-1402174D01*
X1277325Y-1402174D02*
X1286848Y-1421222D01*
X1286848Y-1421222D02*
X1286848Y-1525984D01*
X1382086Y-1525984D02*
X1382086Y-1392650D01*
X1382086Y-1411698D02*
X1391610Y-1402174D01*
X1391610Y-1402174D02*
X1410658Y-1392650D01*
X1410658Y-1392650D02*
X1439229Y-1392650D01*
X1439229Y-1392650D02*
X1458277Y-1402174D01*
X1458277Y-1402174D02*
X1467801Y-1421222D01*
X1467801Y-1421222D02*
X1467801Y-1525984D01*
X1467801Y-1421222D02*
X1477324Y-1402174D01*
X1477324Y-1402174D02*
X1496372Y-1392650D01*
X1496372Y-1392650D02*
X1524943Y-1392650D01*
X1524943Y-1392650D02*
X1543991Y-1402174D01*
X1543991Y-1402174D02*
X1553515Y-1421222D01*
X1553515Y-1421222D02*
X1553515Y-1525984D01*
X1943991Y-1316460D02*
X1772563Y-1573603D01*
X2201134Y-1325984D02*
X2220182Y-1325984D01*
X2220182Y-1325984D02*
X2239229Y-1335508D01*
X2239229Y-1335508D02*
X2248753Y-1345031D01*
X2248753Y-1345031D02*
X2258277Y-1364079D01*
X2258277Y-1364079D02*
X2267801Y-1402174D01*
X2267801Y-1402174D02*
X2267801Y-1449793D01*
X2267801Y-1449793D02*
X2258277Y-1487888D01*
X2258277Y-1487888D02*
X2248753Y-1506936D01*
X2248753Y-1506936D02*
X2239229Y-1516460D01*
X2239229Y-1516460D02*
X2220182Y-1525984D01*
X2220182Y-1525984D02*
X2201134Y-1525984D01*
X2201134Y-1525984D02*
X2182087Y-1516460D01*
X2182087Y-1516460D02*
X2172563Y-1506936D01*
X2172563Y-1506936D02*
X2163039Y-1487888D01*
X2163039Y-1487888D02*
X2153515Y-1449793D01*
X2153515Y-1449793D02*
X2153515Y-1402174D01*
X2153515Y-1402174D02*
X2163039Y-1364079D01*
X2163039Y-1364079D02*
X2172563Y-1345031D01*
X2172563Y-1345031D02*
X2182087Y-1335508D01*
X2182087Y-1335508D02*
X2201134Y-1325984D01*
X2353515Y-1506936D02*
X2363039Y-1516460D01*
X2363039Y-1516460D02*
X2353515Y-1525984D01*
X2353515Y-1525984D02*
X2343991Y-1516460D01*
X2343991Y-1516460D02*
X2353515Y-1506936D01*
X2353515Y-1506936D02*
X2353515Y-1525984D01*
X2486848Y-1325984D02*
X2505896Y-1325984D01*
X2505896Y-1325984D02*
X2524944Y-1335508D01*
X2524944Y-1335508D02*
X2534468Y-1345031D01*
X2534468Y-1345031D02*
X2543991Y-1364079D01*
X2543991Y-1364079D02*
X2553515Y-1402174D01*
X2553515Y-1402174D02*
X2553515Y-1449793D01*
X2553515Y-1449793D02*
X2543991Y-1487888D01*
X2543991Y-1487888D02*
X2534468Y-1506936D01*
X2534468Y-1506936D02*
X2524944Y-1516460D01*
X2524944Y-1516460D02*
X2505896Y-1525984D01*
X2505896Y-1525984D02*
X2486848Y-1525984D01*
X2486848Y-1525984D02*
X2467801Y-1516460D01*
X2467801Y-1516460D02*
X2458277Y-1506936D01*
X2458277Y-1506936D02*
X2448753Y-1487888D01*
X2448753Y-1487888D02*
X2439229Y-1449793D01*
X2439229Y-1449793D02*
X2439229Y-1402174D01*
X2439229Y-1402174D02*
X2448753Y-1364079D01*
X2448753Y-1364079D02*
X2458277Y-1345031D01*
X2458277Y-1345031D02*
X2467801Y-1335508D01*
X2467801Y-1335508D02*
X2486848Y-1325984D01*
X2620182Y-1325984D02*
X2743991Y-1325984D01*
X2743991Y-1325984D02*
X2677325Y-1402174D01*
X2677325Y-1402174D02*
X2705896Y-1402174D01*
X2705896Y-1402174D02*
X2724944Y-1411698D01*
X2724944Y-1411698D02*
X2734468Y-1421222D01*
X2734468Y-1421222D02*
X2743991Y-1440269D01*
X2743991Y-1440269D02*
X2743991Y-1487888D01*
X2743991Y-1487888D02*
X2734468Y-1506936D01*
X2734468Y-1506936D02*
X2724944Y-1516460D01*
X2724944Y-1516460D02*
X2705896Y-1525984D01*
X2705896Y-1525984D02*
X2648753Y-1525984D01*
X2648753Y-1525984D02*
X2629706Y-1516460D01*
X2629706Y-1516460D02*
X2620182Y-1506936D01*
X2839229Y-1525984D02*
X2877325Y-1525984D01*
X2877325Y-1525984D02*
X2896372Y-1516460D01*
X2896372Y-1516460D02*
X2905896Y-1506936D01*
X2905896Y-1506936D02*
X2924944Y-1478365D01*
X2924944Y-1478365D02*
X2934467Y-1440269D01*
X2934467Y-1440269D02*
X2934467Y-1364079D01*
X2934467Y-1364079D02*
X2924944Y-1345031D01*
X2924944Y-1345031D02*
X2915420Y-1335508D01*
X2915420Y-1335508D02*
X2896372Y-1325984D01*
X2896372Y-1325984D02*
X2858277Y-1325984D01*
X2858277Y-1325984D02*
X2839229Y-1335508D01*
X2839229Y-1335508D02*
X2829706Y-1345031D01*
X2829706Y-1345031D02*
X2820182Y-1364079D01*
X2820182Y-1364079D02*
X2820182Y-1411698D01*
X2820182Y-1411698D02*
X2829706Y-1430746D01*
X2829706Y-1430746D02*
X2839229Y-1440269D01*
X2839229Y-1440269D02*
X2858277Y-1449793D01*
X2858277Y-1449793D02*
X2896372Y-1449793D01*
X2896372Y-1449793D02*
X2915420Y-1440269D01*
X2915420Y-1440269D02*
X2924944Y-1430746D01*
X2924944Y-1430746D02*
X2934467Y-1411698D01*
X3105896Y-1392650D02*
X3105896Y-1525984D01*
X3058277Y-1316460D02*
X3010658Y-1459317D01*
X3010658Y-1459317D02*
X3134467Y-1459317D01*
X3201134Y-1325984D02*
X3201134Y-1364079D01*
X3277325Y-1325984D02*
X3277325Y-1364079D01*
X3572563Y-1602174D02*
X3563039Y-1592650D01*
X3563039Y-1592650D02*
X3543991Y-1564079D01*
X3543991Y-1564079D02*
X3534468Y-1545031D01*
X3534468Y-1545031D02*
X3524944Y-1516460D01*
X3524944Y-1516460D02*
X3515420Y-1468841D01*
X3515420Y-1468841D02*
X3515420Y-1430746D01*
X3515420Y-1430746D02*
X3524944Y-1383127D01*
X3524944Y-1383127D02*
X3534468Y-1354555D01*
X3534468Y-1354555D02*
X3543991Y-1335508D01*
X3543991Y-1335508D02*
X3563039Y-1306936D01*
X3563039Y-1306936D02*
X3572563Y-1297412D01*
X3743991Y-1325984D02*
X3648753Y-1325984D01*
X3648753Y-1325984D02*
X3639229Y-1421222D01*
X3639229Y-1421222D02*
X3648753Y-1411698D01*
X3648753Y-1411698D02*
X3667801Y-1402174D01*
X3667801Y-1402174D02*
X3715420Y-1402174D01*
X3715420Y-1402174D02*
X3734468Y-1411698D01*
X3734468Y-1411698D02*
X3743991Y-1421222D01*
X3743991Y-1421222D02*
X3753515Y-1440269D01*
X3753515Y-1440269D02*
X3753515Y-1487888D01*
X3753515Y-1487888D02*
X3743991Y-1506936D01*
X3743991Y-1506936D02*
X3734468Y-1516460D01*
X3734468Y-1516460D02*
X3715420Y-1525984D01*
X3715420Y-1525984D02*
X3667801Y-1525984D01*
X3667801Y-1525984D02*
X3648753Y-1516460D01*
X3648753Y-1516460D02*
X3639229Y-1506936D01*
X3943991Y-1525984D02*
X3829706Y-1525984D01*
X3886848Y-1525984D02*
X3886848Y-1325984D01*
X3886848Y-1325984D02*
X3867801Y-1354555D01*
X3867801Y-1354555D02*
X3848753Y-1373603D01*
X3848753Y-1373603D02*
X3829706Y-1383127D01*
X4182087Y-1525984D02*
X4182087Y-1325984D01*
X4267801Y-1525984D02*
X4267801Y-1421222D01*
X4267801Y-1421222D02*
X4258277Y-1402174D01*
X4258277Y-1402174D02*
X4239230Y-1392650D01*
X4239230Y-1392650D02*
X4210658Y-1392650D01*
X4210658Y-1392650D02*
X4191610Y-1402174D01*
X4191610Y-1402174D02*
X4182087Y-1411698D01*
X4391611Y-1525984D02*
X4372563Y-1516460D01*
X4372563Y-1516460D02*
X4363039Y-1506936D01*
X4363039Y-1506936D02*
X4353515Y-1487888D01*
X4353515Y-1487888D02*
X4353515Y-1430746D01*
X4353515Y-1430746D02*
X4363039Y-1411698D01*
X4363039Y-1411698D02*
X4372563Y-1402174D01*
X4372563Y-1402174D02*
X4391611Y-1392650D01*
X4391611Y-1392650D02*
X4420182Y-1392650D01*
X4420182Y-1392650D02*
X4439230Y-1402174D01*
X4439230Y-1402174D02*
X4448753Y-1411698D01*
X4448753Y-1411698D02*
X4458277Y-1430746D01*
X4458277Y-1430746D02*
X4458277Y-1487888D01*
X4458277Y-1487888D02*
X4448753Y-1506936D01*
X4448753Y-1506936D02*
X4439230Y-1516460D01*
X4439230Y-1516460D02*
X4420182Y-1525984D01*
X4420182Y-1525984D02*
X4391611Y-1525984D01*
X4572563Y-1525984D02*
X4553515Y-1516460D01*
X4553515Y-1516460D02*
X4543992Y-1497412D01*
X4543992Y-1497412D02*
X4543992Y-1325984D01*
X4724944Y-1516460D02*
X4705896Y-1525984D01*
X4705896Y-1525984D02*
X4667801Y-1525984D01*
X4667801Y-1525984D02*
X4648753Y-1516460D01*
X4648753Y-1516460D02*
X4639230Y-1497412D01*
X4639230Y-1497412D02*
X4639230Y-1421222D01*
X4639230Y-1421222D02*
X4648753Y-1402174D01*
X4648753Y-1402174D02*
X4667801Y-1392650D01*
X4667801Y-1392650D02*
X4705896Y-1392650D01*
X4705896Y-1392650D02*
X4724944Y-1402174D01*
X4724944Y-1402174D02*
X4734468Y-1421222D01*
X4734468Y-1421222D02*
X4734468Y-1440269D01*
X4734468Y-1440269D02*
X4639230Y-1459317D01*
X4810658Y-1516460D02*
X4829706Y-1525984D01*
X4829706Y-1525984D02*
X4867801Y-1525984D01*
X4867801Y-1525984D02*
X4886849Y-1516460D01*
X4886849Y-1516460D02*
X4896373Y-1497412D01*
X4896373Y-1497412D02*
X4896373Y-1487888D01*
X4896373Y-1487888D02*
X4886849Y-1468841D01*
X4886849Y-1468841D02*
X4867801Y-1459317D01*
X4867801Y-1459317D02*
X4839230Y-1459317D01*
X4839230Y-1459317D02*
X4820182Y-1449793D01*
X4820182Y-1449793D02*
X4810658Y-1430746D01*
X4810658Y-1430746D02*
X4810658Y-1421222D01*
X4810658Y-1421222D02*
X4820182Y-1402174D01*
X4820182Y-1402174D02*
X4839230Y-1392650D01*
X4839230Y-1392650D02*
X4867801Y-1392650D01*
X4867801Y-1392650D02*
X4886849Y-1402174D01*
X4963039Y-1602174D02*
X4972563Y-1592650D01*
X4972563Y-1592650D02*
X4991611Y-1564079D01*
X4991611Y-1564079D02*
X5001134Y-1545031D01*
X5001134Y-1545031D02*
X5010658Y-1516460D01*
X5010658Y-1516460D02*
X5020182Y-1468841D01*
X5020182Y-1468841D02*
X5020182Y-1430746D01*
X5020182Y-1430746D02*
X5010658Y-1383127D01*
X5010658Y-1383127D02*
X5001134Y-1354555D01*
X5001134Y-1354555D02*
X4991611Y-1335508D01*
X4991611Y-1335508D02*
X4972563Y-1306936D01*
X4972563Y-1306936D02*
X4963039Y-1297412D01*
D13*
X-77500Y-1773500D02*
X-2500Y-1698500D01*
X-77500Y-1623500D01*
X-152500Y-1698500D01*
X-77500Y-1773500D01*
D11*
X363039Y-1789984D02*
X248753Y-1789984D01*
X305896Y-1789984D02*
X305896Y-1589984D01*
X305896Y-1589984D02*
X286848Y-1618555D01*
X286848Y-1618555D02*
X267801Y-1637603D01*
X267801Y-1637603D02*
X248753Y-1647127D01*
X448753Y-1770936D02*
X458277Y-1780460D01*
X458277Y-1780460D02*
X448753Y-1789984D01*
X448753Y-1789984D02*
X439229Y-1780460D01*
X439229Y-1780460D02*
X448753Y-1770936D01*
X448753Y-1770936D02*
X448753Y-1789984D01*
X639229Y-1589984D02*
X543991Y-1589984D01*
X543991Y-1589984D02*
X534467Y-1685222D01*
X534467Y-1685222D02*
X543991Y-1675698D01*
X543991Y-1675698D02*
X563039Y-1666174D01*
X563039Y-1666174D02*
X610658Y-1666174D01*
X610658Y-1666174D02*
X629705Y-1675698D01*
X629705Y-1675698D02*
X639229Y-1685222D01*
X639229Y-1685222D02*
X648753Y-1704269D01*
X648753Y-1704269D02*
X648753Y-1751888D01*
X648753Y-1751888D02*
X639229Y-1770936D01*
X639229Y-1770936D02*
X629705Y-1780460D01*
X629705Y-1780460D02*
X610658Y-1789984D01*
X610658Y-1789984D02*
X563039Y-1789984D01*
X563039Y-1789984D02*
X543991Y-1780460D01*
X543991Y-1780460D02*
X534467Y-1770936D01*
X772562Y-1589984D02*
X791610Y-1589984D01*
X791610Y-1589984D02*
X810658Y-1599508D01*
X810658Y-1599508D02*
X820182Y-1609031D01*
X820182Y-1609031D02*
X829705Y-1628079D01*
X829705Y-1628079D02*
X839229Y-1666174D01*
X839229Y-1666174D02*
X839229Y-1713793D01*
X839229Y-1713793D02*
X829705Y-1751888D01*
X829705Y-1751888D02*
X820182Y-1770936D01*
X820182Y-1770936D02*
X810658Y-1780460D01*
X810658Y-1780460D02*
X791610Y-1789984D01*
X791610Y-1789984D02*
X772562Y-1789984D01*
X772562Y-1789984D02*
X753515Y-1780460D01*
X753515Y-1780460D02*
X743991Y-1770936D01*
X743991Y-1770936D02*
X734467Y-1751888D01*
X734467Y-1751888D02*
X724943Y-1713793D01*
X724943Y-1713793D02*
X724943Y-1666174D01*
X724943Y-1666174D02*
X734467Y-1628079D01*
X734467Y-1628079D02*
X743991Y-1609031D01*
X743991Y-1609031D02*
X753515Y-1599508D01*
X753515Y-1599508D02*
X772562Y-1589984D01*
X963039Y-1589984D02*
X982086Y-1589984D01*
X982086Y-1589984D02*
X1001134Y-1599508D01*
X1001134Y-1599508D02*
X1010658Y-1609031D01*
X1010658Y-1609031D02*
X1020182Y-1628079D01*
X1020182Y-1628079D02*
X1029705Y-1666174D01*
X1029705Y-1666174D02*
X1029705Y-1713793D01*
X1029705Y-1713793D02*
X1020182Y-1751888D01*
X1020182Y-1751888D02*
X1010658Y-1770936D01*
X1010658Y-1770936D02*
X1001134Y-1780460D01*
X1001134Y-1780460D02*
X982086Y-1789984D01*
X982086Y-1789984D02*
X963039Y-1789984D01*
X963039Y-1789984D02*
X943991Y-1780460D01*
X943991Y-1780460D02*
X934467Y-1770936D01*
X934467Y-1770936D02*
X924943Y-1751888D01*
X924943Y-1751888D02*
X915420Y-1713793D01*
X915420Y-1713793D02*
X915420Y-1666174D01*
X915420Y-1666174D02*
X924943Y-1628079D01*
X924943Y-1628079D02*
X934467Y-1609031D01*
X934467Y-1609031D02*
X943991Y-1599508D01*
X943991Y-1599508D02*
X963039Y-1589984D01*
X1115420Y-1789984D02*
X1115420Y-1656650D01*
X1115420Y-1675698D02*
X1124944Y-1666174D01*
X1124944Y-1666174D02*
X1143991Y-1656650D01*
X1143991Y-1656650D02*
X1172563Y-1656650D01*
X1172563Y-1656650D02*
X1191610Y-1666174D01*
X1191610Y-1666174D02*
X1201134Y-1685222D01*
X1201134Y-1685222D02*
X1201134Y-1789984D01*
X1201134Y-1685222D02*
X1210658Y-1666174D01*
X1210658Y-1666174D02*
X1229705Y-1656650D01*
X1229705Y-1656650D02*
X1258277Y-1656650D01*
X1258277Y-1656650D02*
X1277325Y-1666174D01*
X1277325Y-1666174D02*
X1286848Y-1685222D01*
X1286848Y-1685222D02*
X1286848Y-1789984D01*
X1382086Y-1789984D02*
X1382086Y-1656650D01*
X1382086Y-1675698D02*
X1391610Y-1666174D01*
X1391610Y-1666174D02*
X1410658Y-1656650D01*
X1410658Y-1656650D02*
X1439229Y-1656650D01*
X1439229Y-1656650D02*
X1458277Y-1666174D01*
X1458277Y-1666174D02*
X1467801Y-1685222D01*
X1467801Y-1685222D02*
X1467801Y-1789984D01*
X1467801Y-1685222D02*
X1477324Y-1666174D01*
X1477324Y-1666174D02*
X1496372Y-1656650D01*
X1496372Y-1656650D02*
X1524943Y-1656650D01*
X1524943Y-1656650D02*
X1543991Y-1666174D01*
X1543991Y-1666174D02*
X1553515Y-1685222D01*
X1553515Y-1685222D02*
X1553515Y-1789984D01*
X1943991Y-1580460D02*
X1772563Y-1837603D01*
X2201134Y-1589984D02*
X2220182Y-1589984D01*
X2220182Y-1589984D02*
X2239229Y-1599508D01*
X2239229Y-1599508D02*
X2248753Y-1609031D01*
X2248753Y-1609031D02*
X2258277Y-1628079D01*
X2258277Y-1628079D02*
X2267801Y-1666174D01*
X2267801Y-1666174D02*
X2267801Y-1713793D01*
X2267801Y-1713793D02*
X2258277Y-1751888D01*
X2258277Y-1751888D02*
X2248753Y-1770936D01*
X2248753Y-1770936D02*
X2239229Y-1780460D01*
X2239229Y-1780460D02*
X2220182Y-1789984D01*
X2220182Y-1789984D02*
X2201134Y-1789984D01*
X2201134Y-1789984D02*
X2182087Y-1780460D01*
X2182087Y-1780460D02*
X2172563Y-1770936D01*
X2172563Y-1770936D02*
X2163039Y-1751888D01*
X2163039Y-1751888D02*
X2153515Y-1713793D01*
X2153515Y-1713793D02*
X2153515Y-1666174D01*
X2153515Y-1666174D02*
X2163039Y-1628079D01*
X2163039Y-1628079D02*
X2172563Y-1609031D01*
X2172563Y-1609031D02*
X2182087Y-1599508D01*
X2182087Y-1599508D02*
X2201134Y-1589984D01*
X2353515Y-1770936D02*
X2363039Y-1780460D01*
X2363039Y-1780460D02*
X2353515Y-1789984D01*
X2353515Y-1789984D02*
X2343991Y-1780460D01*
X2343991Y-1780460D02*
X2353515Y-1770936D01*
X2353515Y-1770936D02*
X2353515Y-1789984D01*
X2486848Y-1589984D02*
X2505896Y-1589984D01*
X2505896Y-1589984D02*
X2524944Y-1599508D01*
X2524944Y-1599508D02*
X2534468Y-1609031D01*
X2534468Y-1609031D02*
X2543991Y-1628079D01*
X2543991Y-1628079D02*
X2553515Y-1666174D01*
X2553515Y-1666174D02*
X2553515Y-1713793D01*
X2553515Y-1713793D02*
X2543991Y-1751888D01*
X2543991Y-1751888D02*
X2534468Y-1770936D01*
X2534468Y-1770936D02*
X2524944Y-1780460D01*
X2524944Y-1780460D02*
X2505896Y-1789984D01*
X2505896Y-1789984D02*
X2486848Y-1789984D01*
X2486848Y-1789984D02*
X2467801Y-1780460D01*
X2467801Y-1780460D02*
X2458277Y-1770936D01*
X2458277Y-1770936D02*
X2448753Y-1751888D01*
X2448753Y-1751888D02*
X2439229Y-1713793D01*
X2439229Y-1713793D02*
X2439229Y-1666174D01*
X2439229Y-1666174D02*
X2448753Y-1628079D01*
X2448753Y-1628079D02*
X2458277Y-1609031D01*
X2458277Y-1609031D02*
X2467801Y-1599508D01*
X2467801Y-1599508D02*
X2486848Y-1589984D01*
X2734468Y-1589984D02*
X2639229Y-1589984D01*
X2639229Y-1589984D02*
X2629706Y-1685222D01*
X2629706Y-1685222D02*
X2639229Y-1675698D01*
X2639229Y-1675698D02*
X2658277Y-1666174D01*
X2658277Y-1666174D02*
X2705896Y-1666174D01*
X2705896Y-1666174D02*
X2724944Y-1675698D01*
X2724944Y-1675698D02*
X2734468Y-1685222D01*
X2734468Y-1685222D02*
X2743991Y-1704269D01*
X2743991Y-1704269D02*
X2743991Y-1751888D01*
X2743991Y-1751888D02*
X2734468Y-1770936D01*
X2734468Y-1770936D02*
X2724944Y-1780460D01*
X2724944Y-1780460D02*
X2705896Y-1789984D01*
X2705896Y-1789984D02*
X2658277Y-1789984D01*
X2658277Y-1789984D02*
X2639229Y-1780460D01*
X2639229Y-1780460D02*
X2629706Y-1770936D01*
X2839229Y-1789984D02*
X2877325Y-1789984D01*
X2877325Y-1789984D02*
X2896372Y-1780460D01*
X2896372Y-1780460D02*
X2905896Y-1770936D01*
X2905896Y-1770936D02*
X2924944Y-1742365D01*
X2924944Y-1742365D02*
X2934467Y-1704269D01*
X2934467Y-1704269D02*
X2934467Y-1628079D01*
X2934467Y-1628079D02*
X2924944Y-1609031D01*
X2924944Y-1609031D02*
X2915420Y-1599508D01*
X2915420Y-1599508D02*
X2896372Y-1589984D01*
X2896372Y-1589984D02*
X2858277Y-1589984D01*
X2858277Y-1589984D02*
X2839229Y-1599508D01*
X2839229Y-1599508D02*
X2829706Y-1609031D01*
X2829706Y-1609031D02*
X2820182Y-1628079D01*
X2820182Y-1628079D02*
X2820182Y-1675698D01*
X2820182Y-1675698D02*
X2829706Y-1694746D01*
X2829706Y-1694746D02*
X2839229Y-1704269D01*
X2839229Y-1704269D02*
X2858277Y-1713793D01*
X2858277Y-1713793D02*
X2896372Y-1713793D01*
X2896372Y-1713793D02*
X2915420Y-1704269D01*
X2915420Y-1704269D02*
X2924944Y-1694746D01*
X2924944Y-1694746D02*
X2934467Y-1675698D01*
X3124944Y-1789984D02*
X3010658Y-1789984D01*
X3067801Y-1789984D02*
X3067801Y-1589984D01*
X3067801Y-1589984D02*
X3048753Y-1618555D01*
X3048753Y-1618555D02*
X3029706Y-1637603D01*
X3029706Y-1637603D02*
X3010658Y-1647127D01*
X3201134Y-1589984D02*
X3201134Y-1628079D01*
X3277325Y-1589984D02*
X3277325Y-1628079D01*
X3572563Y-1866174D02*
X3563039Y-1856650D01*
X3563039Y-1856650D02*
X3543991Y-1828079D01*
X3543991Y-1828079D02*
X3534468Y-1809031D01*
X3534468Y-1809031D02*
X3524944Y-1780460D01*
X3524944Y-1780460D02*
X3515420Y-1732841D01*
X3515420Y-1732841D02*
X3515420Y-1694746D01*
X3515420Y-1694746D02*
X3524944Y-1647127D01*
X3524944Y-1647127D02*
X3534468Y-1618555D01*
X3534468Y-1618555D02*
X3543991Y-1599508D01*
X3543991Y-1599508D02*
X3563039Y-1570936D01*
X3563039Y-1570936D02*
X3572563Y-1561412D01*
X3753515Y-1789984D02*
X3639229Y-1789984D01*
X3696372Y-1789984D02*
X3696372Y-1589984D01*
X3696372Y-1589984D02*
X3677325Y-1618555D01*
X3677325Y-1618555D02*
X3658277Y-1637603D01*
X3658277Y-1637603D02*
X3639229Y-1647127D01*
X3991610Y-1789984D02*
X3991610Y-1589984D01*
X4077325Y-1789984D02*
X4077325Y-1685222D01*
X4077325Y-1685222D02*
X4067801Y-1666174D01*
X4067801Y-1666174D02*
X4048753Y-1656650D01*
X4048753Y-1656650D02*
X4020182Y-1656650D01*
X4020182Y-1656650D02*
X4001134Y-1666174D01*
X4001134Y-1666174D02*
X3991610Y-1675698D01*
X4201134Y-1789984D02*
X4182087Y-1780460D01*
X4182087Y-1780460D02*
X4172563Y-1770936D01*
X4172563Y-1770936D02*
X4163039Y-1751888D01*
X4163039Y-1751888D02*
X4163039Y-1694746D01*
X4163039Y-1694746D02*
X4172563Y-1675698D01*
X4172563Y-1675698D02*
X4182087Y-1666174D01*
X4182087Y-1666174D02*
X4201134Y-1656650D01*
X4201134Y-1656650D02*
X4229706Y-1656650D01*
X4229706Y-1656650D02*
X4248753Y-1666174D01*
X4248753Y-1666174D02*
X4258277Y-1675698D01*
X4258277Y-1675698D02*
X4267801Y-1694746D01*
X4267801Y-1694746D02*
X4267801Y-1751888D01*
X4267801Y-1751888D02*
X4258277Y-1770936D01*
X4258277Y-1770936D02*
X4248753Y-1780460D01*
X4248753Y-1780460D02*
X4229706Y-1789984D01*
X4229706Y-1789984D02*
X4201134Y-1789984D01*
X4382087Y-1789984D02*
X4363039Y-1780460D01*
X4363039Y-1780460D02*
X4353515Y-1761412D01*
X4353515Y-1761412D02*
X4353515Y-1589984D01*
X4534468Y-1780460D02*
X4515420Y-1789984D01*
X4515420Y-1789984D02*
X4477325Y-1789984D01*
X4477325Y-1789984D02*
X4458277Y-1780460D01*
X4458277Y-1780460D02*
X4448753Y-1761412D01*
X4448753Y-1761412D02*
X4448753Y-1685222D01*
X4448753Y-1685222D02*
X4458277Y-1666174D01*
X4458277Y-1666174D02*
X4477325Y-1656650D01*
X4477325Y-1656650D02*
X4515420Y-1656650D01*
X4515420Y-1656650D02*
X4534468Y-1666174D01*
X4534468Y-1666174D02*
X4543992Y-1685222D01*
X4543992Y-1685222D02*
X4543992Y-1704269D01*
X4543992Y-1704269D02*
X4448753Y-1723317D01*
X4610658Y-1866174D02*
X4620182Y-1856650D01*
X4620182Y-1856650D02*
X4639230Y-1828079D01*
X4639230Y-1828079D02*
X4648753Y-1809031D01*
X4648753Y-1809031D02*
X4658277Y-1780460D01*
X4658277Y-1780460D02*
X4667801Y-1732841D01*
X4667801Y-1732841D02*
X4667801Y-1694746D01*
X4667801Y-1694746D02*
X4658277Y-1647127D01*
X4658277Y-1647127D02*
X4648753Y-1618555D01*
X4648753Y-1618555D02*
X4639230Y-1599508D01*
X4639230Y-1599508D02*
X4620182Y-1570936D01*
X4620182Y-1570936D02*
X4610658Y-1561412D01*
D14*
X-172500Y-1883500D02*
X-2500Y-2053500D01*
X-2500Y-1883500D02*
X-172500Y-2053500D01*
X-2500Y-1968500D02*
G75*
G02*
X-172500Y-1968500I-85000J0D01*
G01*
X-172500Y-1968500D02*
G75*
G02*
X-2500Y-1968500I85000J0D01*
G01*
D11*
X363039Y-2059984D02*
X248753Y-2059984D01*
X305896Y-2059984D02*
X305896Y-1859984D01*
X305896Y-1859984D02*
X286848Y-1888555D01*
X286848Y-1888555D02*
X267801Y-1907603D01*
X267801Y-1907603D02*
X248753Y-1917127D01*
X448753Y-2040936D02*
X458277Y-2050460D01*
X458277Y-2050460D02*
X448753Y-2059984D01*
X448753Y-2059984D02*
X439229Y-2050460D01*
X439229Y-2050460D02*
X448753Y-2040936D01*
X448753Y-2040936D02*
X448753Y-2059984D01*
X524944Y-1859984D02*
X658277Y-1859984D01*
X658277Y-1859984D02*
X572563Y-2059984D01*
X772562Y-1859984D02*
X791610Y-1859984D01*
X791610Y-1859984D02*
X810658Y-1869508D01*
X810658Y-1869508D02*
X820182Y-1879031D01*
X820182Y-1879031D02*
X829705Y-1898079D01*
X829705Y-1898079D02*
X839229Y-1936174D01*
X839229Y-1936174D02*
X839229Y-1983793D01*
X839229Y-1983793D02*
X829705Y-2021888D01*
X829705Y-2021888D02*
X820182Y-2040936D01*
X820182Y-2040936D02*
X810658Y-2050460D01*
X810658Y-2050460D02*
X791610Y-2059984D01*
X791610Y-2059984D02*
X772562Y-2059984D01*
X772562Y-2059984D02*
X753515Y-2050460D01*
X753515Y-2050460D02*
X743991Y-2040936D01*
X743991Y-2040936D02*
X734467Y-2021888D01*
X734467Y-2021888D02*
X724943Y-1983793D01*
X724943Y-1983793D02*
X724943Y-1936174D01*
X724943Y-1936174D02*
X734467Y-1898079D01*
X734467Y-1898079D02*
X743991Y-1879031D01*
X743991Y-1879031D02*
X753515Y-1869508D01*
X753515Y-1869508D02*
X772562Y-1859984D01*
X963039Y-1859984D02*
X982086Y-1859984D01*
X982086Y-1859984D02*
X1001134Y-1869508D01*
X1001134Y-1869508D02*
X1010658Y-1879031D01*
X1010658Y-1879031D02*
X1020182Y-1898079D01*
X1020182Y-1898079D02*
X1029705Y-1936174D01*
X1029705Y-1936174D02*
X1029705Y-1983793D01*
X1029705Y-1983793D02*
X1020182Y-2021888D01*
X1020182Y-2021888D02*
X1010658Y-2040936D01*
X1010658Y-2040936D02*
X1001134Y-2050460D01*
X1001134Y-2050460D02*
X982086Y-2059984D01*
X982086Y-2059984D02*
X963039Y-2059984D01*
X963039Y-2059984D02*
X943991Y-2050460D01*
X943991Y-2050460D02*
X934467Y-2040936D01*
X934467Y-2040936D02*
X924943Y-2021888D01*
X924943Y-2021888D02*
X915420Y-1983793D01*
X915420Y-1983793D02*
X915420Y-1936174D01*
X915420Y-1936174D02*
X924943Y-1898079D01*
X924943Y-1898079D02*
X934467Y-1879031D01*
X934467Y-1879031D02*
X943991Y-1869508D01*
X943991Y-1869508D02*
X963039Y-1859984D01*
X1115420Y-2059984D02*
X1115420Y-1926650D01*
X1115420Y-1945698D02*
X1124944Y-1936174D01*
X1124944Y-1936174D02*
X1143991Y-1926650D01*
X1143991Y-1926650D02*
X1172563Y-1926650D01*
X1172563Y-1926650D02*
X1191610Y-1936174D01*
X1191610Y-1936174D02*
X1201134Y-1955222D01*
X1201134Y-1955222D02*
X1201134Y-2059984D01*
X1201134Y-1955222D02*
X1210658Y-1936174D01*
X1210658Y-1936174D02*
X1229705Y-1926650D01*
X1229705Y-1926650D02*
X1258277Y-1926650D01*
X1258277Y-1926650D02*
X1277325Y-1936174D01*
X1277325Y-1936174D02*
X1286848Y-1955222D01*
X1286848Y-1955222D02*
X1286848Y-2059984D01*
X1382086Y-2059984D02*
X1382086Y-1926650D01*
X1382086Y-1945698D02*
X1391610Y-1936174D01*
X1391610Y-1936174D02*
X1410658Y-1926650D01*
X1410658Y-1926650D02*
X1439229Y-1926650D01*
X1439229Y-1926650D02*
X1458277Y-1936174D01*
X1458277Y-1936174D02*
X1467801Y-1955222D01*
X1467801Y-1955222D02*
X1467801Y-2059984D01*
X1467801Y-1955222D02*
X1477324Y-1936174D01*
X1477324Y-1936174D02*
X1496372Y-1926650D01*
X1496372Y-1926650D02*
X1524943Y-1926650D01*
X1524943Y-1926650D02*
X1543991Y-1936174D01*
X1543991Y-1936174D02*
X1553515Y-1955222D01*
X1553515Y-1955222D02*
X1553515Y-2059984D01*
X1943991Y-1850460D02*
X1772563Y-2107603D01*
X2201134Y-1859984D02*
X2220182Y-1859984D01*
X2220182Y-1859984D02*
X2239229Y-1869508D01*
X2239229Y-1869508D02*
X2248753Y-1879031D01*
X2248753Y-1879031D02*
X2258277Y-1898079D01*
X2258277Y-1898079D02*
X2267801Y-1936174D01*
X2267801Y-1936174D02*
X2267801Y-1983793D01*
X2267801Y-1983793D02*
X2258277Y-2021888D01*
X2258277Y-2021888D02*
X2248753Y-2040936D01*
X2248753Y-2040936D02*
X2239229Y-2050460D01*
X2239229Y-2050460D02*
X2220182Y-2059984D01*
X2220182Y-2059984D02*
X2201134Y-2059984D01*
X2201134Y-2059984D02*
X2182087Y-2050460D01*
X2182087Y-2050460D02*
X2172563Y-2040936D01*
X2172563Y-2040936D02*
X2163039Y-2021888D01*
X2163039Y-2021888D02*
X2153515Y-1983793D01*
X2153515Y-1983793D02*
X2153515Y-1936174D01*
X2153515Y-1936174D02*
X2163039Y-1898079D01*
X2163039Y-1898079D02*
X2172563Y-1879031D01*
X2172563Y-1879031D02*
X2182087Y-1869508D01*
X2182087Y-1869508D02*
X2201134Y-1859984D01*
X2353515Y-2040936D02*
X2363039Y-2050460D01*
X2363039Y-2050460D02*
X2353515Y-2059984D01*
X2353515Y-2059984D02*
X2343991Y-2050460D01*
X2343991Y-2050460D02*
X2353515Y-2040936D01*
X2353515Y-2040936D02*
X2353515Y-2059984D01*
X2486848Y-1859984D02*
X2505896Y-1859984D01*
X2505896Y-1859984D02*
X2524944Y-1869508D01*
X2524944Y-1869508D02*
X2534468Y-1879031D01*
X2534468Y-1879031D02*
X2543991Y-1898079D01*
X2543991Y-1898079D02*
X2553515Y-1936174D01*
X2553515Y-1936174D02*
X2553515Y-1983793D01*
X2553515Y-1983793D02*
X2543991Y-2021888D01*
X2543991Y-2021888D02*
X2534468Y-2040936D01*
X2534468Y-2040936D02*
X2524944Y-2050460D01*
X2524944Y-2050460D02*
X2505896Y-2059984D01*
X2505896Y-2059984D02*
X2486848Y-2059984D01*
X2486848Y-2059984D02*
X2467801Y-2050460D01*
X2467801Y-2050460D02*
X2458277Y-2040936D01*
X2458277Y-2040936D02*
X2448753Y-2021888D01*
X2448753Y-2021888D02*
X2439229Y-1983793D01*
X2439229Y-1983793D02*
X2439229Y-1936174D01*
X2439229Y-1936174D02*
X2448753Y-1898079D01*
X2448753Y-1898079D02*
X2458277Y-1879031D01*
X2458277Y-1879031D02*
X2467801Y-1869508D01*
X2467801Y-1869508D02*
X2486848Y-1859984D01*
X2724944Y-1859984D02*
X2686848Y-1859984D01*
X2686848Y-1859984D02*
X2667801Y-1869508D01*
X2667801Y-1869508D02*
X2658277Y-1879031D01*
X2658277Y-1879031D02*
X2639229Y-1907603D01*
X2639229Y-1907603D02*
X2629706Y-1945698D01*
X2629706Y-1945698D02*
X2629706Y-2021888D01*
X2629706Y-2021888D02*
X2639229Y-2040936D01*
X2639229Y-2040936D02*
X2648753Y-2050460D01*
X2648753Y-2050460D02*
X2667801Y-2059984D01*
X2667801Y-2059984D02*
X2705896Y-2059984D01*
X2705896Y-2059984D02*
X2724944Y-2050460D01*
X2724944Y-2050460D02*
X2734468Y-2040936D01*
X2734468Y-2040936D02*
X2743991Y-2021888D01*
X2743991Y-2021888D02*
X2743991Y-1974269D01*
X2743991Y-1974269D02*
X2734468Y-1955222D01*
X2734468Y-1955222D02*
X2724944Y-1945698D01*
X2724944Y-1945698D02*
X2705896Y-1936174D01*
X2705896Y-1936174D02*
X2667801Y-1936174D01*
X2667801Y-1936174D02*
X2648753Y-1945698D01*
X2648753Y-1945698D02*
X2639229Y-1955222D01*
X2639229Y-1955222D02*
X2629706Y-1974269D01*
X2915420Y-1859984D02*
X2877325Y-1859984D01*
X2877325Y-1859984D02*
X2858277Y-1869508D01*
X2858277Y-1869508D02*
X2848753Y-1879031D01*
X2848753Y-1879031D02*
X2829706Y-1907603D01*
X2829706Y-1907603D02*
X2820182Y-1945698D01*
X2820182Y-1945698D02*
X2820182Y-2021888D01*
X2820182Y-2021888D02*
X2829706Y-2040936D01*
X2829706Y-2040936D02*
X2839229Y-2050460D01*
X2839229Y-2050460D02*
X2858277Y-2059984D01*
X2858277Y-2059984D02*
X2896372Y-2059984D01*
X2896372Y-2059984D02*
X2915420Y-2050460D01*
X2915420Y-2050460D02*
X2924944Y-2040936D01*
X2924944Y-2040936D02*
X2934467Y-2021888D01*
X2934467Y-2021888D02*
X2934467Y-1974269D01*
X2934467Y-1974269D02*
X2924944Y-1955222D01*
X2924944Y-1955222D02*
X2915420Y-1945698D01*
X2915420Y-1945698D02*
X2896372Y-1936174D01*
X2896372Y-1936174D02*
X2858277Y-1936174D01*
X2858277Y-1936174D02*
X2839229Y-1945698D01*
X2839229Y-1945698D02*
X2829706Y-1955222D01*
X2829706Y-1955222D02*
X2820182Y-1974269D01*
X3029706Y-2059984D02*
X3067801Y-2059984D01*
X3067801Y-2059984D02*
X3086848Y-2050460D01*
X3086848Y-2050460D02*
X3096372Y-2040936D01*
X3096372Y-2040936D02*
X3115420Y-2012365D01*
X3115420Y-2012365D02*
X3124944Y-1974269D01*
X3124944Y-1974269D02*
X3124944Y-1898079D01*
X3124944Y-1898079D02*
X3115420Y-1879031D01*
X3115420Y-1879031D02*
X3105896Y-1869508D01*
X3105896Y-1869508D02*
X3086848Y-1859984D01*
X3086848Y-1859984D02*
X3048753Y-1859984D01*
X3048753Y-1859984D02*
X3029706Y-1869508D01*
X3029706Y-1869508D02*
X3020182Y-1879031D01*
X3020182Y-1879031D02*
X3010658Y-1898079D01*
X3010658Y-1898079D02*
X3010658Y-1945698D01*
X3010658Y-1945698D02*
X3020182Y-1964746D01*
X3020182Y-1964746D02*
X3029706Y-1974269D01*
X3029706Y-1974269D02*
X3048753Y-1983793D01*
X3048753Y-1983793D02*
X3086848Y-1983793D01*
X3086848Y-1983793D02*
X3105896Y-1974269D01*
X3105896Y-1974269D02*
X3115420Y-1964746D01*
X3115420Y-1964746D02*
X3124944Y-1945698D01*
X3201134Y-1859984D02*
X3201134Y-1898079D01*
X3277325Y-1859984D02*
X3277325Y-1898079D01*
X3572563Y-2136174D02*
X3563039Y-2126650D01*
X3563039Y-2126650D02*
X3543991Y-2098079D01*
X3543991Y-2098079D02*
X3534468Y-2079031D01*
X3534468Y-2079031D02*
X3524944Y-2050460D01*
X3524944Y-2050460D02*
X3515420Y-2002841D01*
X3515420Y-2002841D02*
X3515420Y-1964746D01*
X3515420Y-1964746D02*
X3524944Y-1917127D01*
X3524944Y-1917127D02*
X3534468Y-1888555D01*
X3534468Y-1888555D02*
X3543991Y-1869508D01*
X3543991Y-1869508D02*
X3563039Y-1840936D01*
X3563039Y-1840936D02*
X3572563Y-1831412D01*
X3734468Y-1926650D02*
X3734468Y-2059984D01*
X3686848Y-1850460D02*
X3639229Y-1993317D01*
X3639229Y-1993317D02*
X3763039Y-1993317D01*
X3991610Y-2059984D02*
X3991610Y-1859984D01*
X4077325Y-2059984D02*
X4077325Y-1955222D01*
X4077325Y-1955222D02*
X4067801Y-1936174D01*
X4067801Y-1936174D02*
X4048753Y-1926650D01*
X4048753Y-1926650D02*
X4020182Y-1926650D01*
X4020182Y-1926650D02*
X4001134Y-1936174D01*
X4001134Y-1936174D02*
X3991610Y-1945698D01*
X4201134Y-2059984D02*
X4182087Y-2050460D01*
X4182087Y-2050460D02*
X4172563Y-2040936D01*
X4172563Y-2040936D02*
X4163039Y-2021888D01*
X4163039Y-2021888D02*
X4163039Y-1964746D01*
X4163039Y-1964746D02*
X4172563Y-1945698D01*
X4172563Y-1945698D02*
X4182087Y-1936174D01*
X4182087Y-1936174D02*
X4201134Y-1926650D01*
X4201134Y-1926650D02*
X4229706Y-1926650D01*
X4229706Y-1926650D02*
X4248753Y-1936174D01*
X4248753Y-1936174D02*
X4258277Y-1945698D01*
X4258277Y-1945698D02*
X4267801Y-1964746D01*
X4267801Y-1964746D02*
X4267801Y-2021888D01*
X4267801Y-2021888D02*
X4258277Y-2040936D01*
X4258277Y-2040936D02*
X4248753Y-2050460D01*
X4248753Y-2050460D02*
X4229706Y-2059984D01*
X4229706Y-2059984D02*
X4201134Y-2059984D01*
X4382087Y-2059984D02*
X4363039Y-2050460D01*
X4363039Y-2050460D02*
X4353515Y-2031412D01*
X4353515Y-2031412D02*
X4353515Y-1859984D01*
X4534468Y-2050460D02*
X4515420Y-2059984D01*
X4515420Y-2059984D02*
X4477325Y-2059984D01*
X4477325Y-2059984D02*
X4458277Y-2050460D01*
X4458277Y-2050460D02*
X4448753Y-2031412D01*
X4448753Y-2031412D02*
X4448753Y-1955222D01*
X4448753Y-1955222D02*
X4458277Y-1936174D01*
X4458277Y-1936174D02*
X4477325Y-1926650D01*
X4477325Y-1926650D02*
X4515420Y-1926650D01*
X4515420Y-1926650D02*
X4534468Y-1936174D01*
X4534468Y-1936174D02*
X4543992Y-1955222D01*
X4543992Y-1955222D02*
X4543992Y-1974269D01*
X4543992Y-1974269D02*
X4448753Y-1993317D01*
X4620182Y-2050460D02*
X4639230Y-2059984D01*
X4639230Y-2059984D02*
X4677325Y-2059984D01*
X4677325Y-2059984D02*
X4696373Y-2050460D01*
X4696373Y-2050460D02*
X4705896Y-2031412D01*
X4705896Y-2031412D02*
X4705896Y-2021888D01*
X4705896Y-2021888D02*
X4696373Y-2002841D01*
X4696373Y-2002841D02*
X4677325Y-1993317D01*
X4677325Y-1993317D02*
X4648753Y-1993317D01*
X4648753Y-1993317D02*
X4629706Y-1983793D01*
X4629706Y-1983793D02*
X4620182Y-1964746D01*
X4620182Y-1964746D02*
X4620182Y-1955222D01*
X4620182Y-1955222D02*
X4629706Y-1936174D01*
X4629706Y-1936174D02*
X4648753Y-1926650D01*
X4648753Y-1926650D02*
X4677325Y-1926650D01*
X4677325Y-1926650D02*
X4696373Y-1936174D01*
X4772563Y-2136174D02*
X4782087Y-2126650D01*
X4782087Y-2126650D02*
X4801134Y-2098079D01*
X4801134Y-2098079D02*
X4810658Y-2079031D01*
X4810658Y-2079031D02*
X4820182Y-2050460D01*
X4820182Y-2050460D02*
X4829706Y-2002841D01*
X4829706Y-2002841D02*
X4829706Y-1964746D01*
X4829706Y-1964746D02*
X4820182Y-1917127D01*
X4820182Y-1917127D02*
X4810658Y-1888555D01*
X4810658Y-1888555D02*
X4801134Y-1869508D01*
X4801134Y-1869508D02*
X4782087Y-1840936D01*
X4782087Y-1840936D02*
X4772563Y-1831412D01*
M02*
