G04 #@! TF.GenerationSoftware,KiCad,Pcbnew,8.0.9-8.0.9-0~ubuntu22.04.1*
G04 #@! TF.CreationDate,2025-02-26T12:05:10+08:00*
G04 #@! TF.ProjectId,dcmiad32h7,64636d69-6164-4333-9268-372e6b696361,rev?*
G04 #@! TF.SameCoordinates,Original*
G04 #@! TF.FileFunction,Soldermask,Top*
G04 #@! TF.FilePolarity,Negative*
%FSLAX46Y46*%
G04 Gerber Fmt 4.6, Leading zero omitted, Abs format (unit mm)*
G04 Created by KiCad (PCBNEW 8.0.9-8.0.9-0~ubuntu22.04.1) date 2025-02-26 12:05:10*
%MOMM*%
%LPD*%
G01*
G04 APERTURE LIST*
G04 Aperture macros list*
%AMRoundRect*
0 Rectangle with rounded corners*
0 $1 Rounding radius*
0 $2 $3 $4 $5 $6 $7 $8 $9 X,Y pos of 4 corners*
0 Add a 4 corners polygon primitive as box body*
4,1,4,$2,$3,$4,$5,$6,$7,$8,$9,$2,$3,0*
0 Add four circle primitives for the rounded corners*
1,1,$1+$1,$2,$3*
1,1,$1+$1,$4,$5*
1,1,$1+$1,$6,$7*
1,1,$1+$1,$8,$9*
0 Add four rect primitives between the rounded corners*
20,1,$1+$1,$2,$3,$4,$5,0*
20,1,$1+$1,$4,$5,$6,$7,0*
20,1,$1+$1,$6,$7,$8,$9,0*
20,1,$1+$1,$8,$9,$2,$3,0*%
G04 Aperture macros list end*
%ADD10C,1.000000*%
%ADD11RoundRect,0.145000X-0.165000X0.145000X-0.165000X-0.145000X0.165000X-0.145000X0.165000X0.145000X0*%
%ADD12RoundRect,0.145000X-0.145000X-0.165000X0.145000X-0.165000X0.145000X0.165000X-0.145000X0.165000X0*%
%ADD13RoundRect,0.200000X-0.200000X-0.275000X0.200000X-0.275000X0.200000X0.275000X-0.200000X0.275000X0*%
%ADD14RoundRect,0.145000X0.165000X-0.145000X0.165000X0.145000X-0.165000X0.145000X-0.165000X-0.145000X0*%
%ADD15RoundRect,0.145000X0.145000X0.165000X-0.145000X0.165000X-0.145000X-0.165000X0.145000X-0.165000X0*%
%ADD16RoundRect,0.250000X-0.475000X0.250000X-0.475000X-0.250000X0.475000X-0.250000X0.475000X0.250000X0*%
%ADD17RoundRect,0.250000X0.250000X0.475000X-0.250000X0.475000X-0.250000X-0.475000X0.250000X-0.475000X0*%
%ADD18C,0.400000*%
%ADD19RoundRect,0.150000X-0.587500X-0.150000X0.587500X-0.150000X0.587500X0.150000X-0.587500X0.150000X0*%
%ADD20RoundRect,0.150000X-0.150000X0.675000X-0.150000X-0.675000X0.150000X-0.675000X0.150000X0.675000X0*%
%ADD21RoundRect,0.200000X0.200000X0.275000X-0.200000X0.275000X-0.200000X-0.275000X0.200000X-0.275000X0*%
%ADD22R,1.700000X1.700000*%
%ADD23O,1.700000X1.700000*%
%ADD24C,0.650000*%
%ADD25R,1.150000X0.300000*%
%ADD26O,2.100000X1.000000*%
%ADD27O,1.600000X1.000000*%
%ADD28R,1.400000X1.200000*%
%ADD29RoundRect,0.200000X-0.275000X0.200000X-0.275000X-0.200000X0.275000X-0.200000X0.275000X0.200000X0*%
%ADD30RoundRect,0.062500X-0.117500X-0.062500X0.117500X-0.062500X0.117500X0.062500X-0.117500X0.062500X0*%
%ADD31RoundRect,0.062500X0.062500X-0.117500X0.062500X0.117500X-0.062500X0.117500X-0.062500X-0.117500X0*%
%ADD32RoundRect,0.075000X0.662500X0.075000X-0.662500X0.075000X-0.662500X-0.075000X0.662500X-0.075000X0*%
%ADD33RoundRect,0.075000X0.075000X0.662500X-0.075000X0.662500X-0.075000X-0.662500X0.075000X-0.662500X0*%
%ADD34RoundRect,0.250000X0.475000X-0.250000X0.475000X0.250000X-0.475000X0.250000X-0.475000X-0.250000X0*%
%ADD35RoundRect,0.100000X-0.637500X-0.100000X0.637500X-0.100000X0.637500X0.100000X-0.637500X0.100000X0*%
%ADD36RoundRect,0.250000X0.850000X-0.375000X0.850000X0.375000X-0.850000X0.375000X-0.850000X-0.375000X0*%
%ADD37RoundRect,0.218750X-0.218750X-0.381250X0.218750X-0.381250X0.218750X0.381250X-0.218750X0.381250X0*%
%ADD38R,1.800000X1.000000*%
%ADD39RoundRect,0.150000X0.150000X-0.825000X0.150000X0.825000X-0.150000X0.825000X-0.150000X-0.825000X0*%
%ADD40RoundRect,0.062500X-0.062500X0.117500X-0.062500X-0.117500X0.062500X-0.117500X0.062500X0.117500X0*%
%ADD41RoundRect,0.200000X0.275000X-0.200000X0.275000X0.200000X-0.275000X0.200000X-0.275000X-0.200000X0*%
%ADD42C,2.050000*%
%ADD43C,2.250000*%
G04 APERTURE END LIST*
D10*
X87500000Y-107500000D03*
D11*
X140000000Y-109000000D03*
X140000000Y-110000000D03*
D12*
X162500000Y-67500000D03*
X163500000Y-67500000D03*
D11*
X172250000Y-101100000D03*
X172250000Y-102100000D03*
D13*
X109275000Y-110750000D03*
X110725000Y-110750000D03*
D14*
X182500000Y-93000000D03*
X182500000Y-92000000D03*
X159250000Y-87750000D03*
X159250000Y-86750000D03*
D11*
X174750000Y-109750000D03*
X174750000Y-110750000D03*
D15*
X147750000Y-98750000D03*
X146750000Y-98750000D03*
D14*
X105500000Y-97500000D03*
X105500000Y-96500000D03*
D11*
X164000000Y-80750000D03*
X164000000Y-81750000D03*
D15*
X190500000Y-101750000D03*
X189500000Y-101750000D03*
D16*
X173750000Y-100800000D03*
X173750000Y-102700000D03*
D17*
X176950000Y-104750000D03*
X175050000Y-104750000D03*
D15*
X147750000Y-99750000D03*
X146750000Y-99750000D03*
D10*
X173750000Y-85000000D03*
D12*
X116500000Y-102000000D03*
X117500000Y-102000000D03*
D11*
X115500000Y-98200000D03*
X115500000Y-99200000D03*
D18*
X165500000Y-71500000D03*
X165500000Y-72500000D03*
X165500000Y-73500000D03*
X165500000Y-74500000D03*
X164500000Y-70500000D03*
X164500000Y-71500000D03*
X164500000Y-72500000D03*
X164500000Y-73500000D03*
X164500000Y-74500000D03*
X163500000Y-70500000D03*
X163500000Y-71500000D03*
X163500000Y-72500000D03*
X163500000Y-73500000D03*
X163500000Y-74500000D03*
X162500000Y-70500000D03*
X162500000Y-71500000D03*
X162500000Y-72500000D03*
X162500000Y-73500000D03*
X162500000Y-74500000D03*
X161500000Y-70500000D03*
X161500000Y-71500000D03*
X161500000Y-72500000D03*
X161500000Y-73500000D03*
X161500000Y-74500000D03*
D15*
X173500000Y-94250000D03*
X172500000Y-94250000D03*
D12*
X161000000Y-77500000D03*
X162000000Y-77500000D03*
D11*
X175250000Y-101000000D03*
X175250000Y-102000000D03*
D19*
X184062500Y-91550000D03*
X184062500Y-93450000D03*
X185937500Y-92500000D03*
D15*
X191000000Y-122250000D03*
X190000000Y-122250000D03*
X177250000Y-131500000D03*
X176250000Y-131500000D03*
D16*
X102250000Y-99050000D03*
X102250000Y-100950000D03*
D11*
X161750000Y-80750000D03*
X161750000Y-81750000D03*
D14*
X108000000Y-110500000D03*
X108000000Y-109500000D03*
D12*
X172500000Y-91250000D03*
X173500000Y-91250000D03*
D15*
X147500000Y-107250000D03*
X146500000Y-107250000D03*
D11*
X172250000Y-105500000D03*
X172250000Y-106500000D03*
D14*
X152500000Y-87500000D03*
X152500000Y-86500000D03*
X187500000Y-92500000D03*
X187500000Y-91500000D03*
D20*
X186905000Y-97375000D03*
X185635000Y-97375000D03*
X184365000Y-97375000D03*
X183095000Y-97375000D03*
X183095000Y-102625000D03*
X184365000Y-102625000D03*
X185635000Y-102625000D03*
X186905000Y-102625000D03*
D10*
X91500000Y-101000000D03*
D12*
X116500000Y-106000000D03*
X117500000Y-106000000D03*
D10*
X125000000Y-115000000D03*
X183750000Y-107500000D03*
D15*
X187000000Y-124250000D03*
X186000000Y-124250000D03*
D14*
X76250000Y-98500000D03*
X76250000Y-97500000D03*
X166250000Y-87750000D03*
X166250000Y-86750000D03*
D12*
X177000000Y-97250000D03*
X178000000Y-97250000D03*
D14*
X108500000Y-94250000D03*
X108500000Y-93250000D03*
D21*
X110825000Y-109250000D03*
X109175000Y-109250000D03*
D15*
X81250000Y-104500000D03*
X80250000Y-104500000D03*
D22*
X96200000Y-76275000D03*
D23*
X96200000Y-73735000D03*
X98740000Y-76275000D03*
X98740000Y-73735000D03*
X101280000Y-76275000D03*
X101280000Y-73735000D03*
X103820000Y-76275000D03*
X103820000Y-73735000D03*
D11*
X156250000Y-112250000D03*
X156250000Y-113250000D03*
D10*
X161250000Y-120000000D03*
D24*
X193720000Y-102890000D03*
X193720000Y-97110000D03*
D25*
X192655000Y-103350000D03*
X192655000Y-102550000D03*
X192655001Y-101250000D03*
X192655000Y-100250000D03*
X192655000Y-99750000D03*
X192655001Y-98750000D03*
X192655000Y-97450000D03*
X192655000Y-96650000D03*
X192655000Y-96950000D03*
X192655000Y-97750000D03*
X192655000Y-98250000D03*
X192655000Y-99250000D03*
X192655000Y-100750000D03*
X192655000Y-101750000D03*
X192655000Y-102250000D03*
X192655000Y-103050000D03*
D26*
X193220000Y-104320000D03*
D27*
X197400000Y-104320000D03*
D26*
X193220000Y-95680000D03*
D27*
X197400000Y-95680000D03*
D12*
X161000000Y-76500000D03*
X162000000Y-76500000D03*
D10*
X87500000Y-99500000D03*
D11*
X168000000Y-112750000D03*
X168000000Y-113750000D03*
D12*
X116500000Y-95500000D03*
X117500000Y-95500000D03*
X84500000Y-99500000D03*
X85500000Y-99500000D03*
X186000000Y-120750000D03*
X187000000Y-120750000D03*
D15*
X182000000Y-110500000D03*
X181000000Y-110500000D03*
D10*
X186250000Y-107500000D03*
D15*
X147500000Y-108250000D03*
X146500000Y-108250000D03*
D17*
X81950000Y-107000000D03*
X80050000Y-107000000D03*
D11*
X172250000Y-102950000D03*
X172250000Y-103950000D03*
X104000000Y-99500000D03*
X104000000Y-100500000D03*
D12*
X116500000Y-94500000D03*
X117500000Y-94500000D03*
X116500000Y-93500000D03*
X117500000Y-93500000D03*
D28*
X176400000Y-95850000D03*
X178600000Y-95850000D03*
X178600000Y-94150000D03*
X176400000Y-94150000D03*
D14*
X188250000Y-99250000D03*
X188250000Y-98250000D03*
D29*
X164500000Y-116425000D03*
X164500000Y-118075000D03*
D30*
X169670000Y-132500000D03*
X168830000Y-132500000D03*
D11*
X157750000Y-80750000D03*
X157750000Y-81750000D03*
D15*
X100500000Y-70000000D03*
X99500000Y-70000000D03*
D14*
X153500000Y-87500000D03*
X153500000Y-86500000D03*
X104500000Y-103250000D03*
X104500000Y-102250000D03*
D22*
X140000000Y-115000000D03*
D23*
X140000000Y-112460000D03*
D15*
X187000000Y-125250000D03*
X186000000Y-125250000D03*
D31*
X188500000Y-121830000D03*
X188500000Y-122670000D03*
D12*
X172500000Y-92250000D03*
X173500000Y-92250000D03*
X172500000Y-90250000D03*
X173500000Y-90250000D03*
D29*
X157750000Y-116425000D03*
X157750000Y-118075000D03*
D32*
X170662500Y-108750000D03*
X170662500Y-108250000D03*
X170662500Y-107750000D03*
X170662500Y-107250000D03*
X170662500Y-106750000D03*
X170662500Y-106250000D03*
X170662500Y-105750000D03*
X170662500Y-105250000D03*
X170662500Y-104750000D03*
X170662500Y-104250000D03*
X170662500Y-103750000D03*
X170662500Y-103250000D03*
X170662500Y-102750000D03*
X170662500Y-102250000D03*
X170662500Y-101750000D03*
X170662500Y-101250000D03*
X170662500Y-100750000D03*
X170662500Y-100250000D03*
X170662500Y-99750000D03*
X170662500Y-99250000D03*
X170662500Y-98750000D03*
X170662500Y-98250000D03*
X170662500Y-97750000D03*
X170662500Y-97250000D03*
X170662500Y-96750000D03*
X170662500Y-96250000D03*
X170662500Y-95750000D03*
X170662500Y-95250000D03*
X170662500Y-94750000D03*
X170662500Y-94250000D03*
X170662500Y-93750000D03*
X170662500Y-93250000D03*
X170662500Y-92750000D03*
X170662500Y-92250000D03*
X170662500Y-91750000D03*
X170662500Y-91250000D03*
D33*
X168750000Y-89337500D03*
X168250000Y-89337500D03*
X167750000Y-89337500D03*
X167250000Y-89337500D03*
X166750000Y-89337500D03*
X166250000Y-89337500D03*
X165750000Y-89337500D03*
X165250000Y-89337500D03*
X164750000Y-89337500D03*
X164250000Y-89337500D03*
X163750000Y-89337500D03*
X163250000Y-89337500D03*
X162750000Y-89337500D03*
X162250000Y-89337500D03*
X161750000Y-89337500D03*
X161250000Y-89337500D03*
X160750000Y-89337500D03*
X160250000Y-89337500D03*
X159750000Y-89337500D03*
X159250000Y-89337500D03*
X158750000Y-89337500D03*
X158250000Y-89337500D03*
X157750000Y-89337500D03*
X157250000Y-89337500D03*
X156750000Y-89337500D03*
X156250000Y-89337500D03*
X155750000Y-89337500D03*
X155250000Y-89337500D03*
X154750000Y-89337500D03*
X154250000Y-89337500D03*
X153750000Y-89337500D03*
X153250000Y-89337500D03*
X152750000Y-89337500D03*
X152250000Y-89337500D03*
X151750000Y-89337500D03*
X151250000Y-89337500D03*
D32*
X149337500Y-91250000D03*
X149337500Y-91750000D03*
X149337500Y-92250000D03*
X149337500Y-92750000D03*
X149337500Y-93250000D03*
X149337500Y-93750000D03*
X149337500Y-94250000D03*
X149337500Y-94750000D03*
X149337500Y-95250000D03*
X149337500Y-95750000D03*
X149337500Y-96250000D03*
X149337500Y-96750000D03*
X149337500Y-97250000D03*
X149337500Y-97750000D03*
X149337500Y-98250000D03*
X149337500Y-98750000D03*
X149337500Y-99250000D03*
X149337500Y-99750000D03*
X149337500Y-100250000D03*
X149337500Y-100750000D03*
X149337500Y-101250000D03*
X149337500Y-101750000D03*
X149337500Y-102250000D03*
X149337500Y-102750000D03*
X149337500Y-103250000D03*
X149337500Y-103750000D03*
X149337500Y-104250000D03*
X149337500Y-104750000D03*
X149337500Y-105250000D03*
X149337500Y-105750000D03*
X149337500Y-106250000D03*
X149337500Y-106750000D03*
X149337500Y-107250000D03*
X149337500Y-107750000D03*
X149337500Y-108250000D03*
X149337500Y-108750000D03*
D33*
X151250000Y-110662500D03*
X151750000Y-110662500D03*
X152250000Y-110662500D03*
X152750000Y-110662500D03*
X153250000Y-110662500D03*
X153750000Y-110662500D03*
X154250000Y-110662500D03*
X154750000Y-110662500D03*
X155250000Y-110662500D03*
X155750000Y-110662500D03*
X156250000Y-110662500D03*
X156750000Y-110662500D03*
X157250000Y-110662500D03*
X157750000Y-110662500D03*
X158250000Y-110662500D03*
X158750000Y-110662500D03*
X159250000Y-110662500D03*
X159750000Y-110662500D03*
X160250000Y-110662500D03*
X160750000Y-110662500D03*
X161250000Y-110662500D03*
X161750000Y-110662500D03*
X162250000Y-110662500D03*
X162750000Y-110662500D03*
X163250000Y-110662500D03*
X163750000Y-110662500D03*
X164250000Y-110662500D03*
X164750000Y-110662500D03*
X165250000Y-110662500D03*
X165750000Y-110662500D03*
X166250000Y-110662500D03*
X166750000Y-110662500D03*
X167250000Y-110662500D03*
X167750000Y-110662500D03*
X168250000Y-110662500D03*
X168750000Y-110662500D03*
D14*
X167000000Y-113750000D03*
X167000000Y-112750000D03*
D11*
X156750000Y-80750000D03*
X156750000Y-81750000D03*
D15*
X191000000Y-123250000D03*
X190000000Y-123250000D03*
D17*
X176950000Y-106750000D03*
X175050000Y-106750000D03*
D15*
X100750000Y-95500000D03*
X99750000Y-95500000D03*
D14*
X164750000Y-87750000D03*
X164750000Y-86750000D03*
D11*
X159750000Y-80750000D03*
X159750000Y-81750000D03*
D10*
X163750000Y-120000000D03*
D12*
X162500000Y-68500000D03*
X163500000Y-68500000D03*
D11*
X162250000Y-112250000D03*
X162250000Y-113250000D03*
X169000000Y-112750000D03*
X169000000Y-113750000D03*
D34*
X104000000Y-95700000D03*
X104000000Y-93800000D03*
D35*
X107137500Y-95775000D03*
X107137500Y-96425000D03*
X107137500Y-97075000D03*
X107137500Y-97725000D03*
X107137500Y-98375000D03*
X107137500Y-99025000D03*
X107137500Y-99675000D03*
X107137500Y-100325000D03*
X107137500Y-100975000D03*
X107137500Y-101625000D03*
X107137500Y-102275000D03*
X107137500Y-102925000D03*
X107137500Y-103575000D03*
X107137500Y-104225000D03*
X112862500Y-104225000D03*
X112862500Y-103575000D03*
X112862500Y-102925000D03*
X112862500Y-102275000D03*
X112862500Y-101625000D03*
X112862500Y-100975000D03*
X112862500Y-100325000D03*
X112862500Y-99675000D03*
X112862500Y-99025000D03*
X112862500Y-98375000D03*
X112862500Y-97725000D03*
X112862500Y-97075000D03*
X112862500Y-96425000D03*
X112862500Y-95775000D03*
D15*
X147750000Y-100750000D03*
X146750000Y-100750000D03*
D14*
X167250000Y-81750000D03*
X167250000Y-80750000D03*
X174750000Y-112750000D03*
X174750000Y-111750000D03*
D11*
X114500000Y-98200000D03*
X114500000Y-99200000D03*
D12*
X116500000Y-101000000D03*
X117500000Y-101000000D03*
X172500000Y-93250000D03*
X173500000Y-93250000D03*
X116500000Y-96500000D03*
X117500000Y-96500000D03*
D11*
X165000000Y-76500000D03*
X165000000Y-77500000D03*
D14*
X151500000Y-87500000D03*
X151500000Y-86500000D03*
D15*
X174750000Y-131500000D03*
X173750000Y-131500000D03*
D30*
X174670000Y-132500000D03*
X173830000Y-132500000D03*
D12*
X116500000Y-107000000D03*
X117500000Y-107000000D03*
D15*
X103000000Y-70000000D03*
X102000000Y-70000000D03*
D36*
X177250000Y-102825000D03*
X177250000Y-100675000D03*
D30*
X177170000Y-132500000D03*
X176330000Y-132500000D03*
D11*
X163000000Y-80750000D03*
X163000000Y-81750000D03*
D30*
X182170000Y-132500000D03*
X181330000Y-132500000D03*
D15*
X98000000Y-70000000D03*
X97000000Y-70000000D03*
D24*
X193720000Y-127890000D03*
X193720000Y-122110000D03*
D25*
X192655000Y-128350000D03*
X192655000Y-127550000D03*
X192655001Y-126250000D03*
X192655000Y-125250000D03*
X192655000Y-124750000D03*
X192655001Y-123750000D03*
X192655000Y-122450000D03*
X192655000Y-121650000D03*
X192655000Y-121950000D03*
X192655000Y-122750000D03*
X192655000Y-123250000D03*
X192655000Y-124250000D03*
X192655000Y-125750000D03*
X192655000Y-126750000D03*
X192655000Y-127250000D03*
X192655000Y-128050000D03*
D26*
X193220000Y-129320000D03*
D27*
X197400000Y-129320000D03*
D26*
X193220000Y-120680000D03*
D27*
X197400000Y-120680000D03*
D11*
X161250000Y-112250000D03*
X161250000Y-113250000D03*
D10*
X190000000Y-92500000D03*
D11*
X104000000Y-97500000D03*
X104000000Y-98500000D03*
D14*
X100250000Y-101750000D03*
X100250000Y-100750000D03*
D15*
X179750000Y-131500000D03*
X178750000Y-131500000D03*
D12*
X116500000Y-92500000D03*
X117500000Y-92500000D03*
D11*
X75250000Y-98750000D03*
X75250000Y-99750000D03*
D37*
X108937500Y-112500000D03*
X111062500Y-112500000D03*
D15*
X191000000Y-126250000D03*
X190000000Y-126250000D03*
X81250000Y-105500000D03*
X80250000Y-105500000D03*
X169750000Y-131500000D03*
X168750000Y-131500000D03*
D38*
X173000000Y-110000001D03*
X173000000Y-112499999D03*
D11*
X158750000Y-80750000D03*
X158750000Y-81750000D03*
X107500000Y-107000000D03*
X107500000Y-108000000D03*
D15*
X182000000Y-109500000D03*
X181000000Y-109500000D03*
X187000000Y-121750000D03*
X186000000Y-121750000D03*
D39*
X78095000Y-102475000D03*
X79365000Y-102475000D03*
X80635000Y-102475000D03*
X81905000Y-102475000D03*
X81905000Y-97525000D03*
X80635000Y-97525000D03*
X79365000Y-97525000D03*
X78095000Y-97525000D03*
D11*
X174750000Y-95250000D03*
X174750000Y-96250000D03*
D15*
X187000000Y-126250000D03*
X186000000Y-126250000D03*
D40*
X188500000Y-125920000D03*
X188500000Y-125080000D03*
D41*
X181500000Y-100725000D03*
X181500000Y-99275000D03*
D11*
X168250000Y-80750000D03*
X168250000Y-81750000D03*
X172250000Y-99250000D03*
X172250000Y-100250000D03*
D15*
X190500000Y-98250000D03*
X189500000Y-98250000D03*
D14*
X164500000Y-68500000D03*
X164500000Y-67500000D03*
D29*
X102000000Y-95275000D03*
X102000000Y-96725000D03*
D22*
X130000000Y-82500000D03*
D23*
X132540000Y-82500000D03*
X130000000Y-85040000D03*
X132540000Y-85040000D03*
X130000000Y-87580000D03*
X132540000Y-87580000D03*
X130000000Y-90120000D03*
X132540000Y-90120000D03*
X130000000Y-92660000D03*
X132540000Y-92660000D03*
X130000000Y-95200000D03*
X132540000Y-95200000D03*
X130000000Y-97740000D03*
X132540000Y-97740000D03*
X130000000Y-100280000D03*
X132540000Y-100280000D03*
X130000000Y-102820000D03*
X132540000Y-102820000D03*
X130000000Y-105360000D03*
X132540000Y-105360000D03*
X130000000Y-107900000D03*
X132540000Y-107900000D03*
X130000000Y-110440000D03*
X132540000Y-110440000D03*
X130000000Y-112980000D03*
X132540000Y-112980000D03*
X130000000Y-115520000D03*
X132540000Y-115520000D03*
D12*
X116500000Y-105000000D03*
X117500000Y-105000000D03*
D11*
X160750000Y-80750000D03*
X160750000Y-81750000D03*
D16*
X117000000Y-97800000D03*
X117000000Y-99700000D03*
D12*
X116500000Y-108000000D03*
X117500000Y-108000000D03*
D34*
X102250000Y-105450000D03*
X102250000Y-103550000D03*
D15*
X182250000Y-131500000D03*
X181250000Y-131500000D03*
D12*
X84500000Y-100500000D03*
X85500000Y-100500000D03*
D11*
X105000000Y-99500000D03*
X105000000Y-100500000D03*
D15*
X147750000Y-94250000D03*
X146750000Y-94250000D03*
D12*
X116500000Y-103000000D03*
X117500000Y-103000000D03*
D11*
X100250000Y-102750000D03*
X100250000Y-103750000D03*
D30*
X179670000Y-132500000D03*
X178830000Y-132500000D03*
D22*
X166125000Y-135000000D03*
D23*
X168665000Y-135000000D03*
X171205000Y-135000000D03*
X173745000Y-135000000D03*
X176285000Y-135000000D03*
X178825000Y-135000000D03*
X181365000Y-135000000D03*
X183905000Y-135000000D03*
D15*
X178000000Y-92750000D03*
X177000000Y-92750000D03*
D10*
X171250000Y-85000000D03*
D14*
X105500000Y-103250000D03*
X105500000Y-102250000D03*
D11*
X75250000Y-100750000D03*
X75250000Y-101750000D03*
X188250000Y-100750000D03*
X188250000Y-101750000D03*
D22*
X139925000Y-135000000D03*
D23*
X142465000Y-135000000D03*
X145005000Y-135000000D03*
X147545000Y-135000000D03*
X150085000Y-135000000D03*
D14*
X155750000Y-81750000D03*
X155750000Y-80750000D03*
X76250000Y-96500000D03*
X76250000Y-95500000D03*
D11*
X166000000Y-112750000D03*
X166000000Y-113750000D03*
D10*
X155750000Y-118500000D03*
D14*
X76250000Y-101750000D03*
X76250000Y-100750000D03*
D31*
X188500000Y-123580000D03*
X188500000Y-124420000D03*
D11*
X79250000Y-104250000D03*
X79250000Y-105250000D03*
D31*
X189250000Y-99830000D03*
X189250000Y-100670000D03*
D12*
X116500000Y-104000000D03*
X117500000Y-104000000D03*
D15*
X100750000Y-96500000D03*
X99750000Y-96500000D03*
D11*
X170000000Y-112250000D03*
X170000000Y-113250000D03*
D40*
X190250000Y-100170000D03*
X190250000Y-99330000D03*
D10*
X67500000Y-100000000D03*
D12*
X172500000Y-95250000D03*
X173500000Y-95250000D03*
D15*
X147500000Y-106250000D03*
X146500000Y-106250000D03*
D42*
X60000000Y-100000000D03*
D43*
X57460000Y-97460000D03*
X57460000Y-102540000D03*
X62540000Y-97460000D03*
X62540000Y-102540000D03*
D14*
X107500000Y-75500000D03*
X107500000Y-74500000D03*
D12*
X186000000Y-122750000D03*
X187000000Y-122750000D03*
M02*
