G04 #@! TF.GenerationSoftware,KiCad,Pcbnew,8.0.9-8.0.9-0~ubuntu22.04.1*
G04 #@! TF.CreationDate,2025-02-26T12:05:10+08:00*
G04 #@! TF.ProjectId,dcmiad32h7,64636d69-6164-4333-9268-372e6b696361,rev?*
G04 #@! TF.SameCoordinates,Original*
G04 #@! TF.FileFunction,Soldermask,Bot*
G04 #@! TF.FilePolarity,Negative*
%FSLAX46Y46*%
G04 Gerber Fmt 4.6, Leading zero omitted, Abs format (unit mm)*
G04 Created by KiCad (PCBNEW 8.0.9-8.0.9-0~ubuntu22.04.1) date 2025-02-26 12:05:10*
%MOMM*%
%LPD*%
G01*
G04 APERTURE LIST*
%ADD10C,1.000000*%
%ADD11R,1.700000X1.700000*%
%ADD12O,1.700000X1.700000*%
%ADD13C,0.650000*%
%ADD14O,2.100000X1.000000*%
%ADD15O,1.600000X1.000000*%
%ADD16C,2.050000*%
%ADD17C,2.250000*%
G04 APERTURE END LIST*
D10*
X87500000Y-107500000D03*
X173750000Y-85000000D03*
X91500000Y-101000000D03*
X125000000Y-115000000D03*
X183750000Y-107500000D03*
D11*
X96200000Y-76275000D03*
D12*
X96200000Y-73735000D03*
X98740000Y-76275000D03*
X98740000Y-73735000D03*
X101280000Y-76275000D03*
X101280000Y-73735000D03*
X103820000Y-76275000D03*
X103820000Y-73735000D03*
D10*
X161250000Y-120000000D03*
D13*
X193720000Y-102890000D03*
X193720000Y-97110000D03*
D14*
X193220000Y-104320000D03*
D15*
X197400000Y-104320000D03*
D14*
X193220000Y-95680000D03*
D15*
X197400000Y-95680000D03*
D10*
X87500000Y-99500000D03*
X186250000Y-107500000D03*
D11*
X140000000Y-115000000D03*
D12*
X140000000Y-112460000D03*
D10*
X163750000Y-120000000D03*
D13*
X193720000Y-127890000D03*
X193720000Y-122110000D03*
D14*
X193220000Y-129320000D03*
D15*
X197400000Y-129320000D03*
D14*
X193220000Y-120680000D03*
D15*
X197400000Y-120680000D03*
D10*
X190000000Y-92500000D03*
D11*
X130000000Y-82500000D03*
D12*
X132540000Y-82500000D03*
X130000000Y-85040000D03*
X132540000Y-85040000D03*
X130000000Y-87580000D03*
X132540000Y-87580000D03*
X130000000Y-90120000D03*
X132540000Y-90120000D03*
X130000000Y-92660000D03*
X132540000Y-92660000D03*
X130000000Y-95200000D03*
X132540000Y-95200000D03*
X130000000Y-97740000D03*
X132540000Y-97740000D03*
X130000000Y-100280000D03*
X132540000Y-100280000D03*
X130000000Y-102820000D03*
X132540000Y-102820000D03*
X130000000Y-105360000D03*
X132540000Y-105360000D03*
X130000000Y-107900000D03*
X132540000Y-107900000D03*
X130000000Y-110440000D03*
X132540000Y-110440000D03*
X130000000Y-112980000D03*
X132540000Y-112980000D03*
X130000000Y-115520000D03*
X132540000Y-115520000D03*
D11*
X166125000Y-135000000D03*
D12*
X168665000Y-135000000D03*
X171205000Y-135000000D03*
X173745000Y-135000000D03*
X176285000Y-135000000D03*
X178825000Y-135000000D03*
X181365000Y-135000000D03*
X183905000Y-135000000D03*
D10*
X171250000Y-85000000D03*
D11*
X139925000Y-135000000D03*
D12*
X142465000Y-135000000D03*
X145005000Y-135000000D03*
X147545000Y-135000000D03*
X150085000Y-135000000D03*
D10*
X155750000Y-118500000D03*
X67500000Y-100000000D03*
D16*
X60000000Y-100000000D03*
D17*
X57460000Y-97460000D03*
X57460000Y-102540000D03*
X62540000Y-97460000D03*
X62540000Y-102540000D03*
M02*
