G04 #@! TF.GenerationSoftware,KiCad,Pcbnew,8.0.9-8.0.9-0~ubuntu22.04.1*
G04 #@! TF.CreationDate,2025-02-26T12:05:10+08:00*
G04 #@! TF.ProjectId,dcmiad32h7,64636d69-6164-4333-9268-372e6b696361,rev?*
G04 #@! TF.SameCoordinates,Original*
G04 #@! TF.FileFunction,Copper,L4,Bot*
G04 #@! TF.FilePolarity,Positive*
%FSLAX46Y46*%
G04 Gerber Fmt 4.6, Leading zero omitted, Abs format (unit mm)*
G04 Created by KiCad (PCBNEW 8.0.9-8.0.9-0~ubuntu22.04.1) date 2025-02-26 12:05:10*
%MOMM*%
%LPD*%
G01*
G04 APERTURE LIST*
G04 #@! TA.AperFunction,ComponentPad*
%ADD10C,1.000000*%
G04 #@! TD*
G04 #@! TA.AperFunction,ComponentPad*
%ADD11R,1.700000X1.700000*%
G04 #@! TD*
G04 #@! TA.AperFunction,ComponentPad*
%ADD12O,1.700000X1.700000*%
G04 #@! TD*
G04 #@! TA.AperFunction,ComponentPad*
%ADD13O,2.100000X1.000000*%
G04 #@! TD*
G04 #@! TA.AperFunction,ComponentPad*
%ADD14O,1.600000X1.000000*%
G04 #@! TD*
G04 #@! TA.AperFunction,ComponentPad*
%ADD15C,2.050000*%
G04 #@! TD*
G04 #@! TA.AperFunction,ComponentPad*
%ADD16C,2.250000*%
G04 #@! TD*
G04 #@! TA.AperFunction,ViaPad*
%ADD17C,0.500000*%
G04 #@! TD*
G04 #@! TA.AperFunction,Conductor*
%ADD18C,0.150000*%
G04 #@! TD*
G04 #@! TA.AperFunction,Conductor*
%ADD19C,0.400000*%
G04 #@! TD*
G04 #@! TA.AperFunction,Conductor*
%ADD20C,0.250000*%
G04 #@! TD*
G04 #@! TA.AperFunction,Conductor*
%ADD21C,0.350000*%
G04 #@! TD*
G04 #@! TA.AperFunction,Conductor*
%ADD22C,1.000000*%
G04 #@! TD*
G04 APERTURE END LIST*
D10*
X87500000Y-107500000D03*
X173750000Y-85000000D03*
X91500000Y-101000000D03*
X125000000Y-115000000D03*
X183750000Y-107500000D03*
D11*
X96200000Y-76275000D03*
D12*
X96200000Y-73735000D03*
X98740000Y-76275000D03*
X98740000Y-73735000D03*
X101280000Y-76275000D03*
X101280000Y-73735000D03*
X103820000Y-76275000D03*
X103820000Y-73735000D03*
D10*
X161250000Y-120000000D03*
D13*
X193220000Y-104320000D03*
D14*
X197400000Y-104320000D03*
D13*
X193220000Y-95680000D03*
D14*
X197400000Y-95680000D03*
D10*
X87500000Y-99500000D03*
X186250000Y-107500000D03*
D11*
X140000000Y-115000000D03*
D12*
X140000000Y-112460000D03*
D10*
X163750000Y-120000000D03*
D13*
X193220000Y-129320000D03*
D14*
X197400000Y-129320000D03*
D13*
X193220000Y-120680000D03*
D14*
X197400000Y-120680000D03*
D10*
X190000000Y-92500000D03*
D11*
X130000000Y-82500000D03*
D12*
X132540000Y-82500000D03*
X130000000Y-85040000D03*
X132540000Y-85040000D03*
X130000000Y-87580000D03*
X132540000Y-87580000D03*
X130000000Y-90120000D03*
X132540000Y-90120000D03*
X130000000Y-92660000D03*
X132540000Y-92660000D03*
X130000000Y-95200000D03*
X132540000Y-95200000D03*
X130000000Y-97740000D03*
X132540000Y-97740000D03*
X130000000Y-100280000D03*
X132540000Y-100280000D03*
X130000000Y-102820000D03*
X132540000Y-102820000D03*
X130000000Y-105360000D03*
X132540000Y-105360000D03*
X130000000Y-107900000D03*
X132540000Y-107900000D03*
X130000000Y-110440000D03*
X132540000Y-110440000D03*
X130000000Y-112980000D03*
X132540000Y-112980000D03*
X130000000Y-115520000D03*
X132540000Y-115520000D03*
D11*
X166125000Y-135000000D03*
D12*
X168665000Y-135000000D03*
X171205000Y-135000000D03*
X173745000Y-135000000D03*
X176285000Y-135000000D03*
X178825000Y-135000000D03*
X181365000Y-135000000D03*
X183905000Y-135000000D03*
D10*
X171250000Y-85000000D03*
D11*
X139925000Y-135000000D03*
D12*
X142465000Y-135000000D03*
X145005000Y-135000000D03*
X147545000Y-135000000D03*
X150085000Y-135000000D03*
D10*
X155750000Y-118500000D03*
X67500000Y-100000000D03*
D15*
X60000000Y-100000000D03*
D16*
X57460000Y-97460000D03*
X57460000Y-102540000D03*
X62540000Y-97460000D03*
X62540000Y-102540000D03*
D17*
X112000000Y-113000000D03*
X112000000Y-112000000D03*
X117000000Y-97800000D03*
X147750000Y-94250000D03*
X173500000Y-94250000D03*
X167000000Y-113750000D03*
X172500000Y-90250000D03*
X161250000Y-112250000D03*
X172500000Y-92250000D03*
X169500000Y-105500000D03*
X156250000Y-112250000D03*
X159250000Y-87750000D03*
X182500000Y-93000000D03*
X170000000Y-112250000D03*
X161000000Y-77500000D03*
X115500000Y-98200000D03*
X147500000Y-108250000D03*
X165000000Y-76500000D03*
X166250000Y-87750000D03*
X172500000Y-93250000D03*
X151500000Y-87500000D03*
X111062500Y-112500000D03*
X162500000Y-67500000D03*
X147750000Y-98750000D03*
X173250000Y-100500000D03*
X174250000Y-100500000D03*
X169250000Y-102750000D03*
X172250000Y-99250000D03*
X187000000Y-126250000D03*
X173250000Y-99500000D03*
X147750000Y-100750000D03*
X174250000Y-99500000D03*
X181500000Y-100725000D03*
X163500000Y-70000000D03*
X100250000Y-103750000D03*
X169000000Y-113750000D03*
X169250000Y-92000000D03*
X162250000Y-113250000D03*
X174750000Y-110750000D03*
X140000000Y-122500000D03*
X174750000Y-111750000D03*
X150500000Y-94750000D03*
X115500000Y-99200000D03*
X163500000Y-67500000D03*
X195000000Y-65000000D03*
X155750000Y-109500000D03*
X169670000Y-132500000D03*
X173500000Y-92250000D03*
X139500000Y-105000000D03*
X164500000Y-67500000D03*
X175250000Y-104000000D03*
X159250000Y-90750000D03*
X157500000Y-137500000D03*
X140000000Y-90000000D03*
X153500000Y-86500000D03*
X195000000Y-135000000D03*
X146750000Y-98750000D03*
X173500000Y-95250000D03*
X138500000Y-106000000D03*
X107500000Y-108000000D03*
X151000000Y-106750000D03*
X99750000Y-95500000D03*
X177000000Y-92750000D03*
X140000000Y-132500000D03*
X139500000Y-106000000D03*
X188500000Y-123580000D03*
X166000000Y-113750000D03*
X146750000Y-99750000D03*
X172250000Y-100250000D03*
X173250000Y-103000000D03*
X102250000Y-103550000D03*
X104000000Y-100500000D03*
X174250000Y-103000000D03*
X173250000Y-105000000D03*
X108000000Y-109500000D03*
X190000000Y-123250000D03*
X183500000Y-90500000D03*
X184062500Y-91550000D03*
X142500000Y-62500000D03*
X105000000Y-100500000D03*
X80250000Y-104500000D03*
X157500000Y-122500000D03*
X146500000Y-107250000D03*
X105500000Y-96500000D03*
X140000000Y-127500000D03*
X117000000Y-99700000D03*
X160750000Y-109500000D03*
X173500000Y-91250000D03*
X142500000Y-132500000D03*
X165000000Y-62500000D03*
X105500000Y-95750000D03*
X159250000Y-86750000D03*
X138500000Y-105000000D03*
X156250000Y-113250000D03*
X152500000Y-86500000D03*
X140000000Y-62500000D03*
X195000000Y-137500000D03*
X173500000Y-90250000D03*
X177500000Y-117500000D03*
X175250000Y-105000000D03*
X164000000Y-73000000D03*
X175250000Y-103000000D03*
X176400000Y-94150000D03*
X160000000Y-100000000D03*
X162500000Y-102500000D03*
X188500000Y-125920000D03*
X80250000Y-105500000D03*
X169250000Y-93000000D03*
X195000000Y-62500000D03*
X197500000Y-62500000D03*
X105500000Y-102250000D03*
X80635000Y-97525000D03*
X170000000Y-113250000D03*
X189500000Y-101750000D03*
X167250000Y-112000000D03*
X146500000Y-106250000D03*
X174670000Y-132500000D03*
X80050000Y-107000000D03*
X142500000Y-65000000D03*
X182170000Y-132500000D03*
X146750000Y-100750000D03*
X166250000Y-86750000D03*
X108500000Y-93250000D03*
X170000000Y-117500000D03*
X179670000Y-132500000D03*
X75250000Y-99750000D03*
X189500000Y-98250000D03*
X175000000Y-75000000D03*
X157500000Y-127500000D03*
X140000000Y-107500000D03*
X146750000Y-94250000D03*
X177170000Y-132500000D03*
X189250000Y-99830000D03*
X145000000Y-90000000D03*
X166750000Y-90750000D03*
X146500000Y-108250000D03*
X197500000Y-135000000D03*
X109175000Y-109250000D03*
X152750000Y-91000000D03*
X150500000Y-99250000D03*
X188500000Y-121830000D03*
X182750000Y-91000000D03*
X114500000Y-99200000D03*
X140000000Y-65000000D03*
X183500000Y-92250000D03*
X173250000Y-104000000D03*
X174250000Y-105000000D03*
X140000000Y-137500000D03*
X172250000Y-103950000D03*
X186000000Y-122750000D03*
X173500000Y-93250000D03*
X140000000Y-80000000D03*
X172250000Y-106500000D03*
X190000000Y-126250000D03*
X169500000Y-106500000D03*
X102250000Y-100950000D03*
X160250000Y-90750000D03*
X104000000Y-93800000D03*
X140000000Y-117500000D03*
X197500000Y-65000000D03*
X104500000Y-102250000D03*
X165000000Y-77500000D03*
X169250000Y-103500000D03*
X151500000Y-86500000D03*
X197500000Y-137500000D03*
X184365000Y-97375000D03*
X163500000Y-68500000D03*
X99750000Y-96500000D03*
X190250000Y-100170000D03*
X187000000Y-120750000D03*
X178000000Y-97250000D03*
X100250000Y-100750000D03*
X142500000Y-137500000D03*
X181500000Y-99275000D03*
X79250000Y-105250000D03*
X174250000Y-104000000D03*
X178600000Y-95850000D03*
X75250000Y-100750000D03*
X182500000Y-92000000D03*
X162000000Y-77500000D03*
X161250000Y-113250000D03*
X168000000Y-113750000D03*
X169500000Y-100500000D03*
X177000000Y-107000000D03*
X166750000Y-109500000D03*
X177000000Y-106000000D03*
X176500000Y-106500000D03*
X153500000Y-90500000D03*
X150500000Y-106250000D03*
X177500000Y-106500000D03*
X168750000Y-100500000D03*
X168000000Y-100500000D03*
X152000000Y-90500000D03*
X150500000Y-107250000D03*
X168250000Y-109500000D03*
X176500000Y-100750000D03*
X175500000Y-99500000D03*
X177500000Y-99500000D03*
X169750000Y-101750000D03*
X176500000Y-99500000D03*
X175500000Y-100750000D03*
X177500000Y-100750000D03*
X169000000Y-101750000D03*
X146250000Y-104000000D03*
X145500000Y-121750000D03*
X143500000Y-96000000D03*
X143500000Y-113000000D03*
X165750000Y-90750000D03*
X164500000Y-116425000D03*
X140000000Y-103000000D03*
X140000000Y-100500000D03*
X141500000Y-103500000D03*
X141500000Y-101750000D03*
X157750000Y-116425000D03*
X157750000Y-109500000D03*
X142500000Y-100000000D03*
X142500000Y-112500000D03*
X144500000Y-100000000D03*
X144500000Y-114000000D03*
X142000000Y-101000000D03*
X142000000Y-104000000D03*
X143000000Y-110500000D03*
X143000000Y-96500000D03*
X144000000Y-113500000D03*
X144000000Y-100500000D03*
X145000000Y-114500000D03*
X145000000Y-99500000D03*
X155750000Y-80000000D03*
X165000000Y-73000000D03*
X102250000Y-105450000D03*
X107000000Y-111250000D03*
X108000000Y-110500000D03*
X81950000Y-107000000D03*
X107000000Y-112000000D03*
X107750000Y-111250000D03*
X107000000Y-110500000D03*
X107750000Y-112000000D03*
X102250000Y-99050000D03*
X104025000Y-95725000D03*
X79250000Y-104250000D03*
X108500000Y-97000000D03*
X108500000Y-94250000D03*
X84500000Y-100500000D03*
X82250000Y-99000000D03*
X179000000Y-109500000D03*
X169000000Y-95000000D03*
X169500000Y-94500000D03*
X179500000Y-110500000D03*
X148000000Y-105500000D03*
X172500000Y-94250000D03*
X166000000Y-74000000D03*
X169000000Y-95750000D03*
X169750000Y-131500000D03*
X147500000Y-109500000D03*
X159750000Y-93750000D03*
X159750000Y-81750000D03*
X157750000Y-81750000D03*
X157750000Y-93250000D03*
X164000000Y-81750000D03*
X164000000Y-96000000D03*
X161750000Y-81750000D03*
X161750000Y-94500000D03*
X164500000Y-115000000D03*
X164750000Y-86750000D03*
X174750000Y-131500000D03*
X148750000Y-115500000D03*
X148750000Y-109750000D03*
X174750000Y-115500000D03*
X180000000Y-89000000D03*
X177250000Y-131500000D03*
X180500000Y-89500000D03*
X179750000Y-131500000D03*
X162750000Y-109250000D03*
X182250000Y-131500000D03*
X162750000Y-127500000D03*
X182250000Y-127500000D03*
X191000000Y-122250000D03*
X191000000Y-127250000D03*
X147000000Y-104500000D03*
X146000000Y-124500000D03*
X147000000Y-125250000D03*
X147500000Y-105000000D03*
X164000000Y-109250000D03*
X191500000Y-102500000D03*
X191500000Y-97500000D03*
X166500000Y-117500000D03*
X166000000Y-109250000D03*
D18*
X145500000Y-104750000D02*
X146250000Y-104000000D01*
X145500000Y-121750000D02*
X145500000Y-104750000D01*
X143500000Y-96000000D02*
X143500000Y-113000000D01*
X165000000Y-115925000D02*
X165000000Y-91500000D01*
X165000000Y-91500000D02*
X165750000Y-90750000D01*
X164500000Y-116425000D02*
X165000000Y-115925000D01*
X140000000Y-103000000D02*
X140000000Y-100500000D01*
X141500000Y-103500000D02*
X141500000Y-101750000D01*
X157750000Y-116425000D02*
X157750000Y-109500000D01*
X142500000Y-100000000D02*
X142500000Y-112500000D01*
X144500000Y-114000000D02*
X144500000Y-100000000D01*
X142000000Y-104000000D02*
X142000000Y-101000000D01*
X143000000Y-96500000D02*
X143000000Y-110500000D01*
X144000000Y-113500000D02*
X144000000Y-100500000D01*
X145000000Y-99500000D02*
X145000000Y-114500000D01*
X164000000Y-74000000D02*
X161000000Y-74000000D01*
X161000000Y-74000000D02*
X155750000Y-79250000D01*
X155750000Y-79250000D02*
X155750000Y-80000000D01*
X165000000Y-73000000D02*
X164000000Y-74000000D01*
D19*
X102525000Y-95725000D02*
X95500000Y-102750000D01*
X95500000Y-102750000D02*
X80750000Y-102750000D01*
X104025000Y-95725000D02*
X102525000Y-95725000D01*
X80750000Y-102750000D02*
X79250000Y-104250000D01*
D18*
X108500000Y-97000000D02*
X108500000Y-94250000D01*
D20*
X83750000Y-100500000D02*
X82250000Y-99000000D01*
X84500000Y-100500000D02*
X83750000Y-100500000D01*
D18*
X172500000Y-98500000D02*
X169000000Y-95000000D01*
X179000000Y-98750000D02*
X178750000Y-98500000D01*
X179000000Y-109500000D02*
X179000000Y-98750000D01*
X178750000Y-98500000D02*
X172500000Y-98500000D01*
X179000000Y-98000000D02*
X179500000Y-98500000D01*
X179500000Y-98500000D02*
X179500000Y-110500000D01*
X169500000Y-94500000D02*
X173000000Y-98000000D01*
X173000000Y-98000000D02*
X179000000Y-98000000D01*
X148000000Y-134545000D02*
X147545000Y-135000000D01*
X148000000Y-105500000D02*
X148000000Y-134545000D01*
X171250000Y-93000000D02*
X171250000Y-85000000D01*
X165500000Y-99250000D02*
X169000000Y-95750000D01*
X172500000Y-94250000D02*
X171250000Y-93000000D01*
X171250000Y-79250000D02*
X166000000Y-74000000D01*
X165500000Y-127250000D02*
X165500000Y-99250000D01*
X171250000Y-85000000D02*
X171250000Y-79250000D01*
X169750000Y-131500000D02*
X165500000Y-127250000D01*
X147500000Y-109500000D02*
X147500000Y-132505000D01*
X147500000Y-132505000D02*
X145005000Y-135000000D01*
X159750000Y-93750000D02*
X159750000Y-81750000D01*
X157750000Y-93250000D02*
X157750000Y-81750000D01*
X164000000Y-96000000D02*
X164000000Y-81750000D01*
X161750000Y-94500000D02*
X161750000Y-81750000D01*
X164500000Y-87000000D02*
X164500000Y-115000000D01*
X164750000Y-86750000D02*
X164500000Y-87000000D01*
X148750000Y-109750000D02*
X148750000Y-115500000D01*
X174750000Y-115500000D02*
X174750000Y-131500000D01*
X180000000Y-89000000D02*
X180000000Y-128750000D01*
X180000000Y-128750000D02*
X177250000Y-131500000D01*
X180500000Y-129000000D02*
X179750000Y-129750000D01*
X180500000Y-89500000D02*
X180500000Y-129000000D01*
X179750000Y-129750000D02*
X179750000Y-131500000D01*
X162750000Y-127500000D02*
X162750000Y-109250000D01*
X182250000Y-127500000D02*
X182250000Y-131500000D01*
D21*
X191000000Y-127250000D02*
X191000000Y-122250000D01*
D18*
X146000000Y-124500000D02*
X146000000Y-105500000D01*
X146000000Y-105500000D02*
X147000000Y-104500000D01*
X147000000Y-125250000D02*
X147000000Y-105500000D01*
X147000000Y-105500000D02*
X147500000Y-105000000D01*
X164000000Y-109250000D02*
X163750000Y-109500000D01*
X163750000Y-109500000D02*
X163750000Y-120000000D01*
D22*
X191500000Y-97500000D02*
X191500000Y-102500000D01*
D18*
X166500000Y-109921752D02*
X166500000Y-117500000D01*
X166275000Y-109525000D02*
X166275000Y-109696752D01*
X166275000Y-109696752D02*
X166500000Y-109921752D01*
X166000000Y-109250000D02*
X166275000Y-109525000D01*
G04 #@! TA.AperFunction,Conductor*
G36*
X170228326Y-99771674D02*
G01*
X170250000Y-99824000D01*
X170250000Y-101076000D01*
X170228326Y-101128326D01*
X170176000Y-101150000D01*
X168500000Y-101150000D01*
X168500000Y-107000000D01*
X176000000Y-107000000D01*
X176000000Y-105574000D01*
X176021674Y-105521674D01*
X176074000Y-105500000D01*
X177926000Y-105500000D01*
X177978326Y-105521674D01*
X178000000Y-105574000D01*
X178000000Y-108426000D01*
X177978326Y-108478326D01*
X177926000Y-108500000D01*
X168000000Y-108500000D01*
X166824000Y-108500000D01*
X166771674Y-108478326D01*
X166750000Y-108426000D01*
X166750000Y-99824000D01*
X166771674Y-99771674D01*
X166824000Y-99750000D01*
X170176000Y-99750000D01*
X170228326Y-99771674D01*
G37*
G04 #@! TD.AperFunction*
G04 #@! TA.AperFunction,Conductor*
G36*
X177978326Y-99021674D02*
G01*
X178000000Y-99074000D01*
X178000000Y-102176000D01*
X177978326Y-102228326D01*
X177926000Y-102250000D01*
X168729500Y-102250000D01*
X168677174Y-102228326D01*
X168655500Y-102176000D01*
X168655500Y-101379500D01*
X168677174Y-101327174D01*
X168729500Y-101305500D01*
X170175998Y-101305500D01*
X170176000Y-101305500D01*
X170235507Y-101293663D01*
X170287833Y-101271989D01*
X170308750Y-101259912D01*
X170345748Y-101250000D01*
X175000000Y-101250000D01*
X175000000Y-99074000D01*
X175021674Y-99021674D01*
X175074000Y-99000000D01*
X177926000Y-99000000D01*
X177978326Y-99021674D01*
G37*
G04 #@! TD.AperFunction*
M02*
