G04 #@! TF.GenerationSoftware,KiCad,Pcbnew,8.0.9-8.0.9-0~ubuntu22.04.1*
G04 #@! TF.CreationDate,2025-02-26T12:05:10+08:00*
G04 #@! TF.ProjectId,dcmiad32h7,64636d69-6164-4333-9268-372e6b696361,rev?*
G04 #@! TF.SameCoordinates,Original*
G04 #@! TF.FileFunction,Legend,Top*
G04 #@! TF.FilePolarity,Positive*
%FSLAX46Y46*%
G04 Gerber Fmt 4.6, Leading zero omitted, Abs format (unit mm)*
G04 Created by KiCad (PCBNEW 8.0.9-8.0.9-0~ubuntu22.04.1) date 2025-02-26 12:05:10*
%MOMM*%
%LPD*%
G01*
G04 APERTURE LIST*
G04 Aperture macros list*
%AMRoundRect*
0 Rectangle with rounded corners*
0 $1 Rounding radius*
0 $2 $3 $4 $5 $6 $7 $8 $9 X,Y pos of 4 corners*
0 Add a 4 corners polygon primitive as box body*
4,1,4,$2,$3,$4,$5,$6,$7,$8,$9,$2,$3,0*
0 Add four circle primitives for the rounded corners*
1,1,$1+$1,$2,$3*
1,1,$1+$1,$4,$5*
1,1,$1+$1,$6,$7*
1,1,$1+$1,$8,$9*
0 Add four rect primitives between the rounded corners*
20,1,$1+$1,$2,$3,$4,$5,0*
20,1,$1+$1,$4,$5,$6,$7,0*
20,1,$1+$1,$6,$7,$8,$9,0*
20,1,$1+$1,$8,$9,$2,$3,0*%
G04 Aperture macros list end*
%ADD10C,0.100000*%
%ADD11C,0.150000*%
%ADD12C,0.120000*%
%ADD13C,0.200000*%
%ADD14C,0.250000*%
%ADD15C,1.000000*%
%ADD16RoundRect,0.145000X-0.165000X0.145000X-0.165000X-0.145000X0.165000X-0.145000X0.165000X0.145000X0*%
%ADD17RoundRect,0.145000X-0.145000X-0.165000X0.145000X-0.165000X0.145000X0.165000X-0.145000X0.165000X0*%
%ADD18RoundRect,0.200000X-0.200000X-0.275000X0.200000X-0.275000X0.200000X0.275000X-0.200000X0.275000X0*%
%ADD19RoundRect,0.145000X0.165000X-0.145000X0.165000X0.145000X-0.165000X0.145000X-0.165000X-0.145000X0*%
%ADD20RoundRect,0.145000X0.145000X0.165000X-0.145000X0.165000X-0.145000X-0.165000X0.145000X-0.165000X0*%
%ADD21RoundRect,0.250000X-0.475000X0.250000X-0.475000X-0.250000X0.475000X-0.250000X0.475000X0.250000X0*%
%ADD22RoundRect,0.250000X0.250000X0.475000X-0.250000X0.475000X-0.250000X-0.475000X0.250000X-0.475000X0*%
%ADD23C,0.400000*%
%ADD24RoundRect,0.150000X-0.587500X-0.150000X0.587500X-0.150000X0.587500X0.150000X-0.587500X0.150000X0*%
%ADD25RoundRect,0.150000X-0.150000X0.675000X-0.150000X-0.675000X0.150000X-0.675000X0.150000X0.675000X0*%
%ADD26RoundRect,0.200000X0.200000X0.275000X-0.200000X0.275000X-0.200000X-0.275000X0.200000X-0.275000X0*%
%ADD27R,1.700000X1.700000*%
%ADD28O,1.700000X1.700000*%
%ADD29C,0.650000*%
%ADD30R,1.150000X0.300000*%
%ADD31O,2.100000X1.000000*%
%ADD32O,1.600000X1.000000*%
%ADD33R,1.400000X1.200000*%
%ADD34RoundRect,0.200000X-0.275000X0.200000X-0.275000X-0.200000X0.275000X-0.200000X0.275000X0.200000X0*%
%ADD35RoundRect,0.062500X-0.117500X-0.062500X0.117500X-0.062500X0.117500X0.062500X-0.117500X0.062500X0*%
%ADD36RoundRect,0.062500X0.062500X-0.117500X0.062500X0.117500X-0.062500X0.117500X-0.062500X-0.117500X0*%
%ADD37RoundRect,0.075000X0.662500X0.075000X-0.662500X0.075000X-0.662500X-0.075000X0.662500X-0.075000X0*%
%ADD38RoundRect,0.075000X0.075000X0.662500X-0.075000X0.662500X-0.075000X-0.662500X0.075000X-0.662500X0*%
%ADD39RoundRect,0.250000X0.475000X-0.250000X0.475000X0.250000X-0.475000X0.250000X-0.475000X-0.250000X0*%
%ADD40RoundRect,0.100000X-0.637500X-0.100000X0.637500X-0.100000X0.637500X0.100000X-0.637500X0.100000X0*%
%ADD41RoundRect,0.250000X0.850000X-0.375000X0.850000X0.375000X-0.850000X0.375000X-0.850000X-0.375000X0*%
%ADD42RoundRect,0.218750X-0.218750X-0.381250X0.218750X-0.381250X0.218750X0.381250X-0.218750X0.381250X0*%
%ADD43R,1.800000X1.000000*%
%ADD44RoundRect,0.150000X0.150000X-0.825000X0.150000X0.825000X-0.150000X0.825000X-0.150000X-0.825000X0*%
%ADD45RoundRect,0.062500X-0.062500X0.117500X-0.062500X-0.117500X0.062500X-0.117500X0.062500X0.117500X0*%
%ADD46RoundRect,0.200000X0.275000X-0.200000X0.275000X0.200000X-0.275000X0.200000X-0.275000X-0.200000X0*%
%ADD47C,2.050000*%
%ADD48C,2.250000*%
G04 APERTURE END LIST*
D10*
X183232455Y-79872419D02*
X183232455Y-78872419D01*
X183232455Y-79824800D02*
X183137217Y-79872419D01*
X183137217Y-79872419D02*
X182946741Y-79872419D01*
X182946741Y-79872419D02*
X182851503Y-79824800D01*
X182851503Y-79824800D02*
X182803884Y-79777180D01*
X182803884Y-79777180D02*
X182756265Y-79681942D01*
X182756265Y-79681942D02*
X182756265Y-79396228D01*
X182756265Y-79396228D02*
X182803884Y-79300990D01*
X182803884Y-79300990D02*
X182851503Y-79253371D01*
X182851503Y-79253371D02*
X182946741Y-79205752D01*
X182946741Y-79205752D02*
X183137217Y-79205752D01*
X183137217Y-79205752D02*
X183232455Y-79253371D01*
X184137217Y-79824800D02*
X184041979Y-79872419D01*
X184041979Y-79872419D02*
X183851503Y-79872419D01*
X183851503Y-79872419D02*
X183756265Y-79824800D01*
X183756265Y-79824800D02*
X183708646Y-79777180D01*
X183708646Y-79777180D02*
X183661027Y-79681942D01*
X183661027Y-79681942D02*
X183661027Y-79396228D01*
X183661027Y-79396228D02*
X183708646Y-79300990D01*
X183708646Y-79300990D02*
X183756265Y-79253371D01*
X183756265Y-79253371D02*
X183851503Y-79205752D01*
X183851503Y-79205752D02*
X184041979Y-79205752D01*
X184041979Y-79205752D02*
X184137217Y-79253371D01*
X184565789Y-79872419D02*
X184565789Y-79205752D01*
X184565789Y-79300990D02*
X184613408Y-79253371D01*
X184613408Y-79253371D02*
X184708646Y-79205752D01*
X184708646Y-79205752D02*
X184851503Y-79205752D01*
X184851503Y-79205752D02*
X184946741Y-79253371D01*
X184946741Y-79253371D02*
X184994360Y-79348609D01*
X184994360Y-79348609D02*
X184994360Y-79872419D01*
X184994360Y-79348609D02*
X185041979Y-79253371D01*
X185041979Y-79253371D02*
X185137217Y-79205752D01*
X185137217Y-79205752D02*
X185280074Y-79205752D01*
X185280074Y-79205752D02*
X185375313Y-79253371D01*
X185375313Y-79253371D02*
X185422932Y-79348609D01*
X185422932Y-79348609D02*
X185422932Y-79872419D01*
X185899122Y-79872419D02*
X185899122Y-79205752D01*
X185899122Y-78872419D02*
X185851503Y-78920038D01*
X185851503Y-78920038D02*
X185899122Y-78967657D01*
X185899122Y-78967657D02*
X185946741Y-78920038D01*
X185946741Y-78920038D02*
X185899122Y-78872419D01*
X185899122Y-78872419D02*
X185899122Y-78967657D01*
X186803883Y-79872419D02*
X186803883Y-79348609D01*
X186803883Y-79348609D02*
X186756264Y-79253371D01*
X186756264Y-79253371D02*
X186661026Y-79205752D01*
X186661026Y-79205752D02*
X186470550Y-79205752D01*
X186470550Y-79205752D02*
X186375312Y-79253371D01*
X186803883Y-79824800D02*
X186708645Y-79872419D01*
X186708645Y-79872419D02*
X186470550Y-79872419D01*
X186470550Y-79872419D02*
X186375312Y-79824800D01*
X186375312Y-79824800D02*
X186327693Y-79729561D01*
X186327693Y-79729561D02*
X186327693Y-79634323D01*
X186327693Y-79634323D02*
X186375312Y-79539085D01*
X186375312Y-79539085D02*
X186470550Y-79491466D01*
X186470550Y-79491466D02*
X186708645Y-79491466D01*
X186708645Y-79491466D02*
X186803883Y-79443847D01*
X187708645Y-79872419D02*
X187708645Y-78872419D01*
X187708645Y-79824800D02*
X187613407Y-79872419D01*
X187613407Y-79872419D02*
X187422931Y-79872419D01*
X187422931Y-79872419D02*
X187327693Y-79824800D01*
X187327693Y-79824800D02*
X187280074Y-79777180D01*
X187280074Y-79777180D02*
X187232455Y-79681942D01*
X187232455Y-79681942D02*
X187232455Y-79396228D01*
X187232455Y-79396228D02*
X187280074Y-79300990D01*
X187280074Y-79300990D02*
X187327693Y-79253371D01*
X187327693Y-79253371D02*
X187422931Y-79205752D01*
X187422931Y-79205752D02*
X187613407Y-79205752D01*
X187613407Y-79205752D02*
X187708645Y-79253371D01*
X188089598Y-78872419D02*
X188708645Y-78872419D01*
X188708645Y-78872419D02*
X188375312Y-79253371D01*
X188375312Y-79253371D02*
X188518169Y-79253371D01*
X188518169Y-79253371D02*
X188613407Y-79300990D01*
X188613407Y-79300990D02*
X188661026Y-79348609D01*
X188661026Y-79348609D02*
X188708645Y-79443847D01*
X188708645Y-79443847D02*
X188708645Y-79681942D01*
X188708645Y-79681942D02*
X188661026Y-79777180D01*
X188661026Y-79777180D02*
X188613407Y-79824800D01*
X188613407Y-79824800D02*
X188518169Y-79872419D01*
X188518169Y-79872419D02*
X188232455Y-79872419D01*
X188232455Y-79872419D02*
X188137217Y-79824800D01*
X188137217Y-79824800D02*
X188089598Y-79777180D01*
X189089598Y-78967657D02*
X189137217Y-78920038D01*
X189137217Y-78920038D02*
X189232455Y-78872419D01*
X189232455Y-78872419D02*
X189470550Y-78872419D01*
X189470550Y-78872419D02*
X189565788Y-78920038D01*
X189565788Y-78920038D02*
X189613407Y-78967657D01*
X189613407Y-78967657D02*
X189661026Y-79062895D01*
X189661026Y-79062895D02*
X189661026Y-79158133D01*
X189661026Y-79158133D02*
X189613407Y-79300990D01*
X189613407Y-79300990D02*
X189041979Y-79872419D01*
X189041979Y-79872419D02*
X189661026Y-79872419D01*
X190089598Y-79872419D02*
X190089598Y-78872419D01*
X190518169Y-79872419D02*
X190518169Y-79348609D01*
X190518169Y-79348609D02*
X190470550Y-79253371D01*
X190470550Y-79253371D02*
X190375312Y-79205752D01*
X190375312Y-79205752D02*
X190232455Y-79205752D01*
X190232455Y-79205752D02*
X190137217Y-79253371D01*
X190137217Y-79253371D02*
X190089598Y-79300990D01*
X190899122Y-78872419D02*
X191565788Y-78872419D01*
X191565788Y-78872419D02*
X191137217Y-79872419D01*
X191946741Y-79491466D02*
X192708646Y-79491466D01*
X193137217Y-78967657D02*
X193184836Y-78920038D01*
X193184836Y-78920038D02*
X193280074Y-78872419D01*
X193280074Y-78872419D02*
X193518169Y-78872419D01*
X193518169Y-78872419D02*
X193613407Y-78920038D01*
X193613407Y-78920038D02*
X193661026Y-78967657D01*
X193661026Y-78967657D02*
X193708645Y-79062895D01*
X193708645Y-79062895D02*
X193708645Y-79158133D01*
X193708645Y-79158133D02*
X193661026Y-79300990D01*
X193661026Y-79300990D02*
X193089598Y-79872419D01*
X193089598Y-79872419D02*
X193708645Y-79872419D01*
X194613407Y-78872419D02*
X194137217Y-78872419D01*
X194137217Y-78872419D02*
X194089598Y-79348609D01*
X194089598Y-79348609D02*
X194137217Y-79300990D01*
X194137217Y-79300990D02*
X194232455Y-79253371D01*
X194232455Y-79253371D02*
X194470550Y-79253371D01*
X194470550Y-79253371D02*
X194565788Y-79300990D01*
X194565788Y-79300990D02*
X194613407Y-79348609D01*
X194613407Y-79348609D02*
X194661026Y-79443847D01*
X194661026Y-79443847D02*
X194661026Y-79681942D01*
X194661026Y-79681942D02*
X194613407Y-79777180D01*
X194613407Y-79777180D02*
X194565788Y-79824800D01*
X194565788Y-79824800D02*
X194470550Y-79872419D01*
X194470550Y-79872419D02*
X194232455Y-79872419D01*
X194232455Y-79872419D02*
X194137217Y-79824800D01*
X194137217Y-79824800D02*
X194089598Y-79777180D01*
X195280074Y-78872419D02*
X195375312Y-78872419D01*
X195375312Y-78872419D02*
X195470550Y-78920038D01*
X195470550Y-78920038D02*
X195518169Y-78967657D01*
X195518169Y-78967657D02*
X195565788Y-79062895D01*
X195565788Y-79062895D02*
X195613407Y-79253371D01*
X195613407Y-79253371D02*
X195613407Y-79491466D01*
X195613407Y-79491466D02*
X195565788Y-79681942D01*
X195565788Y-79681942D02*
X195518169Y-79777180D01*
X195518169Y-79777180D02*
X195470550Y-79824800D01*
X195470550Y-79824800D02*
X195375312Y-79872419D01*
X195375312Y-79872419D02*
X195280074Y-79872419D01*
X195280074Y-79872419D02*
X195184836Y-79824800D01*
X195184836Y-79824800D02*
X195137217Y-79777180D01*
X195137217Y-79777180D02*
X195089598Y-79681942D01*
X195089598Y-79681942D02*
X195041979Y-79491466D01*
X195041979Y-79491466D02*
X195041979Y-79253371D01*
X195041979Y-79253371D02*
X195089598Y-79062895D01*
X195089598Y-79062895D02*
X195137217Y-78967657D01*
X195137217Y-78967657D02*
X195184836Y-78920038D01*
X195184836Y-78920038D02*
X195280074Y-78872419D01*
X195994360Y-78967657D02*
X196041979Y-78920038D01*
X196041979Y-78920038D02*
X196137217Y-78872419D01*
X196137217Y-78872419D02*
X196375312Y-78872419D01*
X196375312Y-78872419D02*
X196470550Y-78920038D01*
X196470550Y-78920038D02*
X196518169Y-78967657D01*
X196518169Y-78967657D02*
X196565788Y-79062895D01*
X196565788Y-79062895D02*
X196565788Y-79158133D01*
X196565788Y-79158133D02*
X196518169Y-79300990D01*
X196518169Y-79300990D02*
X195946741Y-79872419D01*
X195946741Y-79872419D02*
X196565788Y-79872419D01*
D11*
X182595237Y-86954819D02*
X182595237Y-87764342D01*
X182595237Y-87764342D02*
X182642856Y-87859580D01*
X182642856Y-87859580D02*
X182690475Y-87907200D01*
X182690475Y-87907200D02*
X182785713Y-87954819D01*
X182785713Y-87954819D02*
X182976189Y-87954819D01*
X182976189Y-87954819D02*
X183071427Y-87907200D01*
X183071427Y-87907200D02*
X183119046Y-87859580D01*
X183119046Y-87859580D02*
X183166665Y-87764342D01*
X183166665Y-87764342D02*
X183166665Y-86954819D01*
X183595237Y-87907200D02*
X183738094Y-87954819D01*
X183738094Y-87954819D02*
X183976189Y-87954819D01*
X183976189Y-87954819D02*
X184071427Y-87907200D01*
X184071427Y-87907200D02*
X184119046Y-87859580D01*
X184119046Y-87859580D02*
X184166665Y-87764342D01*
X184166665Y-87764342D02*
X184166665Y-87669104D01*
X184166665Y-87669104D02*
X184119046Y-87573866D01*
X184119046Y-87573866D02*
X184071427Y-87526247D01*
X184071427Y-87526247D02*
X183976189Y-87478628D01*
X183976189Y-87478628D02*
X183785713Y-87431009D01*
X183785713Y-87431009D02*
X183690475Y-87383390D01*
X183690475Y-87383390D02*
X183642856Y-87335771D01*
X183642856Y-87335771D02*
X183595237Y-87240533D01*
X183595237Y-87240533D02*
X183595237Y-87145295D01*
X183595237Y-87145295D02*
X183642856Y-87050057D01*
X183642856Y-87050057D02*
X183690475Y-87002438D01*
X183690475Y-87002438D02*
X183785713Y-86954819D01*
X183785713Y-86954819D02*
X184023808Y-86954819D01*
X184023808Y-86954819D02*
X184166665Y-87002438D01*
X184928570Y-87431009D02*
X185071427Y-87478628D01*
X185071427Y-87478628D02*
X185119046Y-87526247D01*
X185119046Y-87526247D02*
X185166665Y-87621485D01*
X185166665Y-87621485D02*
X185166665Y-87764342D01*
X185166665Y-87764342D02*
X185119046Y-87859580D01*
X185119046Y-87859580D02*
X185071427Y-87907200D01*
X185071427Y-87907200D02*
X184976189Y-87954819D01*
X184976189Y-87954819D02*
X184595237Y-87954819D01*
X184595237Y-87954819D02*
X184595237Y-86954819D01*
X184595237Y-86954819D02*
X184928570Y-86954819D01*
X184928570Y-86954819D02*
X185023808Y-87002438D01*
X185023808Y-87002438D02*
X185071427Y-87050057D01*
X185071427Y-87050057D02*
X185119046Y-87145295D01*
X185119046Y-87145295D02*
X185119046Y-87240533D01*
X185119046Y-87240533D02*
X185071427Y-87335771D01*
X185071427Y-87335771D02*
X185023808Y-87383390D01*
X185023808Y-87383390D02*
X184928570Y-87431009D01*
X184928570Y-87431009D02*
X184595237Y-87431009D01*
X186357142Y-87954819D02*
X186357142Y-86954819D01*
X186357142Y-86954819D02*
X186738094Y-86954819D01*
X186738094Y-86954819D02*
X186833332Y-87002438D01*
X186833332Y-87002438D02*
X186880951Y-87050057D01*
X186880951Y-87050057D02*
X186928570Y-87145295D01*
X186928570Y-87145295D02*
X186928570Y-87288152D01*
X186928570Y-87288152D02*
X186880951Y-87383390D01*
X186880951Y-87383390D02*
X186833332Y-87431009D01*
X186833332Y-87431009D02*
X186738094Y-87478628D01*
X186738094Y-87478628D02*
X186357142Y-87478628D01*
X187499999Y-87954819D02*
X187404761Y-87907200D01*
X187404761Y-87907200D02*
X187357142Y-87859580D01*
X187357142Y-87859580D02*
X187309523Y-87764342D01*
X187309523Y-87764342D02*
X187309523Y-87478628D01*
X187309523Y-87478628D02*
X187357142Y-87383390D01*
X187357142Y-87383390D02*
X187404761Y-87335771D01*
X187404761Y-87335771D02*
X187499999Y-87288152D01*
X187499999Y-87288152D02*
X187642856Y-87288152D01*
X187642856Y-87288152D02*
X187738094Y-87335771D01*
X187738094Y-87335771D02*
X187785713Y-87383390D01*
X187785713Y-87383390D02*
X187833332Y-87478628D01*
X187833332Y-87478628D02*
X187833332Y-87764342D01*
X187833332Y-87764342D02*
X187785713Y-87859580D01*
X187785713Y-87859580D02*
X187738094Y-87907200D01*
X187738094Y-87907200D02*
X187642856Y-87954819D01*
X187642856Y-87954819D02*
X187499999Y-87954819D01*
X188166666Y-87288152D02*
X188357142Y-87954819D01*
X188357142Y-87954819D02*
X188547618Y-87478628D01*
X188547618Y-87478628D02*
X188738094Y-87954819D01*
X188738094Y-87954819D02*
X188928570Y-87288152D01*
X189690475Y-87907200D02*
X189595237Y-87954819D01*
X189595237Y-87954819D02*
X189404761Y-87954819D01*
X189404761Y-87954819D02*
X189309523Y-87907200D01*
X189309523Y-87907200D02*
X189261904Y-87811961D01*
X189261904Y-87811961D02*
X189261904Y-87431009D01*
X189261904Y-87431009D02*
X189309523Y-87335771D01*
X189309523Y-87335771D02*
X189404761Y-87288152D01*
X189404761Y-87288152D02*
X189595237Y-87288152D01*
X189595237Y-87288152D02*
X189690475Y-87335771D01*
X189690475Y-87335771D02*
X189738094Y-87431009D01*
X189738094Y-87431009D02*
X189738094Y-87526247D01*
X189738094Y-87526247D02*
X189261904Y-87621485D01*
X190166666Y-87954819D02*
X190166666Y-87288152D01*
X190166666Y-87478628D02*
X190214285Y-87383390D01*
X190214285Y-87383390D02*
X190261904Y-87335771D01*
X190261904Y-87335771D02*
X190357142Y-87288152D01*
X190357142Y-87288152D02*
X190452380Y-87288152D01*
X191547619Y-87573866D02*
X192309524Y-87573866D01*
X191928571Y-87954819D02*
X191928571Y-87192914D01*
X193500000Y-87907200D02*
X193642857Y-87954819D01*
X193642857Y-87954819D02*
X193880952Y-87954819D01*
X193880952Y-87954819D02*
X193976190Y-87907200D01*
X193976190Y-87907200D02*
X194023809Y-87859580D01*
X194023809Y-87859580D02*
X194071428Y-87764342D01*
X194071428Y-87764342D02*
X194071428Y-87669104D01*
X194071428Y-87669104D02*
X194023809Y-87573866D01*
X194023809Y-87573866D02*
X193976190Y-87526247D01*
X193976190Y-87526247D02*
X193880952Y-87478628D01*
X193880952Y-87478628D02*
X193690476Y-87431009D01*
X193690476Y-87431009D02*
X193595238Y-87383390D01*
X193595238Y-87383390D02*
X193547619Y-87335771D01*
X193547619Y-87335771D02*
X193500000Y-87240533D01*
X193500000Y-87240533D02*
X193500000Y-87145295D01*
X193500000Y-87145295D02*
X193547619Y-87050057D01*
X193547619Y-87050057D02*
X193595238Y-87002438D01*
X193595238Y-87002438D02*
X193690476Y-86954819D01*
X193690476Y-86954819D02*
X193928571Y-86954819D01*
X193928571Y-86954819D02*
X194071428Y-87002438D01*
X194880952Y-87907200D02*
X194785714Y-87954819D01*
X194785714Y-87954819D02*
X194595238Y-87954819D01*
X194595238Y-87954819D02*
X194500000Y-87907200D01*
X194500000Y-87907200D02*
X194452381Y-87811961D01*
X194452381Y-87811961D02*
X194452381Y-87431009D01*
X194452381Y-87431009D02*
X194500000Y-87335771D01*
X194500000Y-87335771D02*
X194595238Y-87288152D01*
X194595238Y-87288152D02*
X194785714Y-87288152D01*
X194785714Y-87288152D02*
X194880952Y-87335771D01*
X194880952Y-87335771D02*
X194928571Y-87431009D01*
X194928571Y-87431009D02*
X194928571Y-87526247D01*
X194928571Y-87526247D02*
X194452381Y-87621485D01*
X195357143Y-87954819D02*
X195357143Y-87288152D01*
X195357143Y-87478628D02*
X195404762Y-87383390D01*
X195404762Y-87383390D02*
X195452381Y-87335771D01*
X195452381Y-87335771D02*
X195547619Y-87288152D01*
X195547619Y-87288152D02*
X195642857Y-87288152D01*
X195976191Y-87954819D02*
X195976191Y-87288152D01*
X195976191Y-86954819D02*
X195928572Y-87002438D01*
X195928572Y-87002438D02*
X195976191Y-87050057D01*
X195976191Y-87050057D02*
X196023810Y-87002438D01*
X196023810Y-87002438D02*
X195976191Y-86954819D01*
X195976191Y-86954819D02*
X195976191Y-87050057D01*
X196880952Y-87954819D02*
X196880952Y-87431009D01*
X196880952Y-87431009D02*
X196833333Y-87335771D01*
X196833333Y-87335771D02*
X196738095Y-87288152D01*
X196738095Y-87288152D02*
X196547619Y-87288152D01*
X196547619Y-87288152D02*
X196452381Y-87335771D01*
X196880952Y-87907200D02*
X196785714Y-87954819D01*
X196785714Y-87954819D02*
X196547619Y-87954819D01*
X196547619Y-87954819D02*
X196452381Y-87907200D01*
X196452381Y-87907200D02*
X196404762Y-87811961D01*
X196404762Y-87811961D02*
X196404762Y-87716723D01*
X196404762Y-87716723D02*
X196452381Y-87621485D01*
X196452381Y-87621485D02*
X196547619Y-87573866D01*
X196547619Y-87573866D02*
X196785714Y-87573866D01*
X196785714Y-87573866D02*
X196880952Y-87526247D01*
X197500000Y-87954819D02*
X197404762Y-87907200D01*
X197404762Y-87907200D02*
X197357143Y-87811961D01*
X197357143Y-87811961D02*
X197357143Y-86954819D01*
X185833332Y-116954819D02*
X185833332Y-117764342D01*
X185833332Y-117764342D02*
X185880951Y-117859580D01*
X185880951Y-117859580D02*
X185928570Y-117907200D01*
X185928570Y-117907200D02*
X186023808Y-117954819D01*
X186023808Y-117954819D02*
X186214284Y-117954819D01*
X186214284Y-117954819D02*
X186309522Y-117907200D01*
X186309522Y-117907200D02*
X186357141Y-117859580D01*
X186357141Y-117859580D02*
X186404760Y-117764342D01*
X186404760Y-117764342D02*
X186404760Y-116954819D01*
X186833332Y-117907200D02*
X186976189Y-117954819D01*
X186976189Y-117954819D02*
X187214284Y-117954819D01*
X187214284Y-117954819D02*
X187309522Y-117907200D01*
X187309522Y-117907200D02*
X187357141Y-117859580D01*
X187357141Y-117859580D02*
X187404760Y-117764342D01*
X187404760Y-117764342D02*
X187404760Y-117669104D01*
X187404760Y-117669104D02*
X187357141Y-117573866D01*
X187357141Y-117573866D02*
X187309522Y-117526247D01*
X187309522Y-117526247D02*
X187214284Y-117478628D01*
X187214284Y-117478628D02*
X187023808Y-117431009D01*
X187023808Y-117431009D02*
X186928570Y-117383390D01*
X186928570Y-117383390D02*
X186880951Y-117335771D01*
X186880951Y-117335771D02*
X186833332Y-117240533D01*
X186833332Y-117240533D02*
X186833332Y-117145295D01*
X186833332Y-117145295D02*
X186880951Y-117050057D01*
X186880951Y-117050057D02*
X186928570Y-117002438D01*
X186928570Y-117002438D02*
X187023808Y-116954819D01*
X187023808Y-116954819D02*
X187261903Y-116954819D01*
X187261903Y-116954819D02*
X187404760Y-117002438D01*
X188166665Y-117431009D02*
X188309522Y-117478628D01*
X188309522Y-117478628D02*
X188357141Y-117526247D01*
X188357141Y-117526247D02*
X188404760Y-117621485D01*
X188404760Y-117621485D02*
X188404760Y-117764342D01*
X188404760Y-117764342D02*
X188357141Y-117859580D01*
X188357141Y-117859580D02*
X188309522Y-117907200D01*
X188309522Y-117907200D02*
X188214284Y-117954819D01*
X188214284Y-117954819D02*
X187833332Y-117954819D01*
X187833332Y-117954819D02*
X187833332Y-116954819D01*
X187833332Y-116954819D02*
X188166665Y-116954819D01*
X188166665Y-116954819D02*
X188261903Y-117002438D01*
X188261903Y-117002438D02*
X188309522Y-117050057D01*
X188309522Y-117050057D02*
X188357141Y-117145295D01*
X188357141Y-117145295D02*
X188357141Y-117240533D01*
X188357141Y-117240533D02*
X188309522Y-117335771D01*
X188309522Y-117335771D02*
X188261903Y-117383390D01*
X188261903Y-117383390D02*
X188166665Y-117431009D01*
X188166665Y-117431009D02*
X187833332Y-117431009D01*
X188595237Y-118050057D02*
X189357141Y-118050057D01*
X189928570Y-117431009D02*
X189595237Y-117431009D01*
X189595237Y-117954819D02*
X189595237Y-116954819D01*
X189595237Y-116954819D02*
X190071427Y-116954819D01*
X190404761Y-117907200D02*
X190547618Y-117954819D01*
X190547618Y-117954819D02*
X190785713Y-117954819D01*
X190785713Y-117954819D02*
X190880951Y-117907200D01*
X190880951Y-117907200D02*
X190928570Y-117859580D01*
X190928570Y-117859580D02*
X190976189Y-117764342D01*
X190976189Y-117764342D02*
X190976189Y-117669104D01*
X190976189Y-117669104D02*
X190928570Y-117573866D01*
X190928570Y-117573866D02*
X190880951Y-117526247D01*
X190880951Y-117526247D02*
X190785713Y-117478628D01*
X190785713Y-117478628D02*
X190595237Y-117431009D01*
X190595237Y-117431009D02*
X190499999Y-117383390D01*
X190499999Y-117383390D02*
X190452380Y-117335771D01*
X190452380Y-117335771D02*
X190404761Y-117240533D01*
X190404761Y-117240533D02*
X190404761Y-117145295D01*
X190404761Y-117145295D02*
X190452380Y-117050057D01*
X190452380Y-117050057D02*
X190499999Y-117002438D01*
X190499999Y-117002438D02*
X190595237Y-116954819D01*
X190595237Y-116954819D02*
X190833332Y-116954819D01*
X190833332Y-116954819D02*
X190976189Y-117002438D01*
X191690475Y-118335771D02*
X191642856Y-118288152D01*
X191642856Y-118288152D02*
X191547618Y-118145295D01*
X191547618Y-118145295D02*
X191499999Y-118050057D01*
X191499999Y-118050057D02*
X191452380Y-117907200D01*
X191452380Y-117907200D02*
X191404761Y-117669104D01*
X191404761Y-117669104D02*
X191404761Y-117478628D01*
X191404761Y-117478628D02*
X191452380Y-117240533D01*
X191452380Y-117240533D02*
X191499999Y-117097676D01*
X191499999Y-117097676D02*
X191547618Y-117002438D01*
X191547618Y-117002438D02*
X191642856Y-116859580D01*
X191642856Y-116859580D02*
X191690475Y-116811961D01*
X192071428Y-117288152D02*
X192071428Y-117954819D01*
X192071428Y-117383390D02*
X192119047Y-117335771D01*
X192119047Y-117335771D02*
X192214285Y-117288152D01*
X192214285Y-117288152D02*
X192357142Y-117288152D01*
X192357142Y-117288152D02*
X192452380Y-117335771D01*
X192452380Y-117335771D02*
X192499999Y-117431009D01*
X192499999Y-117431009D02*
X192499999Y-117954819D01*
X193119047Y-117954819D02*
X193023809Y-117907200D01*
X193023809Y-117907200D02*
X192976190Y-117859580D01*
X192976190Y-117859580D02*
X192928571Y-117764342D01*
X192928571Y-117764342D02*
X192928571Y-117478628D01*
X192928571Y-117478628D02*
X192976190Y-117383390D01*
X192976190Y-117383390D02*
X193023809Y-117335771D01*
X193023809Y-117335771D02*
X193119047Y-117288152D01*
X193119047Y-117288152D02*
X193261904Y-117288152D01*
X193261904Y-117288152D02*
X193357142Y-117335771D01*
X193357142Y-117335771D02*
X193404761Y-117383390D01*
X193404761Y-117383390D02*
X193452380Y-117478628D01*
X193452380Y-117478628D02*
X193452380Y-117764342D01*
X193452380Y-117764342D02*
X193404761Y-117859580D01*
X193404761Y-117859580D02*
X193357142Y-117907200D01*
X193357142Y-117907200D02*
X193261904Y-117954819D01*
X193261904Y-117954819D02*
X193119047Y-117954819D01*
X194642857Y-117288152D02*
X194642857Y-118288152D01*
X194642857Y-117335771D02*
X194738095Y-117288152D01*
X194738095Y-117288152D02*
X194928571Y-117288152D01*
X194928571Y-117288152D02*
X195023809Y-117335771D01*
X195023809Y-117335771D02*
X195071428Y-117383390D01*
X195071428Y-117383390D02*
X195119047Y-117478628D01*
X195119047Y-117478628D02*
X195119047Y-117764342D01*
X195119047Y-117764342D02*
X195071428Y-117859580D01*
X195071428Y-117859580D02*
X195023809Y-117907200D01*
X195023809Y-117907200D02*
X194928571Y-117954819D01*
X194928571Y-117954819D02*
X194738095Y-117954819D01*
X194738095Y-117954819D02*
X194642857Y-117907200D01*
X195690476Y-117954819D02*
X195595238Y-117907200D01*
X195595238Y-117907200D02*
X195547619Y-117859580D01*
X195547619Y-117859580D02*
X195500000Y-117764342D01*
X195500000Y-117764342D02*
X195500000Y-117478628D01*
X195500000Y-117478628D02*
X195547619Y-117383390D01*
X195547619Y-117383390D02*
X195595238Y-117335771D01*
X195595238Y-117335771D02*
X195690476Y-117288152D01*
X195690476Y-117288152D02*
X195833333Y-117288152D01*
X195833333Y-117288152D02*
X195928571Y-117335771D01*
X195928571Y-117335771D02*
X195976190Y-117383390D01*
X195976190Y-117383390D02*
X196023809Y-117478628D01*
X196023809Y-117478628D02*
X196023809Y-117764342D01*
X196023809Y-117764342D02*
X195976190Y-117859580D01*
X195976190Y-117859580D02*
X195928571Y-117907200D01*
X195928571Y-117907200D02*
X195833333Y-117954819D01*
X195833333Y-117954819D02*
X195690476Y-117954819D01*
X196357143Y-117288152D02*
X196547619Y-117954819D01*
X196547619Y-117954819D02*
X196738095Y-117478628D01*
X196738095Y-117478628D02*
X196928571Y-117954819D01*
X196928571Y-117954819D02*
X197119047Y-117288152D01*
X197880952Y-117907200D02*
X197785714Y-117954819D01*
X197785714Y-117954819D02*
X197595238Y-117954819D01*
X197595238Y-117954819D02*
X197500000Y-117907200D01*
X197500000Y-117907200D02*
X197452381Y-117811961D01*
X197452381Y-117811961D02*
X197452381Y-117431009D01*
X197452381Y-117431009D02*
X197500000Y-117335771D01*
X197500000Y-117335771D02*
X197595238Y-117288152D01*
X197595238Y-117288152D02*
X197785714Y-117288152D01*
X197785714Y-117288152D02*
X197880952Y-117335771D01*
X197880952Y-117335771D02*
X197928571Y-117431009D01*
X197928571Y-117431009D02*
X197928571Y-117526247D01*
X197928571Y-117526247D02*
X197452381Y-117621485D01*
X198357143Y-117954819D02*
X198357143Y-117288152D01*
X198357143Y-117478628D02*
X198404762Y-117383390D01*
X198404762Y-117383390D02*
X198452381Y-117335771D01*
X198452381Y-117335771D02*
X198547619Y-117288152D01*
X198547619Y-117288152D02*
X198642857Y-117288152D01*
X198880953Y-118335771D02*
X198928572Y-118288152D01*
X198928572Y-118288152D02*
X199023810Y-118145295D01*
X199023810Y-118145295D02*
X199071429Y-118050057D01*
X199071429Y-118050057D02*
X199119048Y-117907200D01*
X199119048Y-117907200D02*
X199166667Y-117669104D01*
X199166667Y-117669104D02*
X199166667Y-117478628D01*
X199166667Y-117478628D02*
X199119048Y-117240533D01*
X199119048Y-117240533D02*
X199071429Y-117097676D01*
X199071429Y-117097676D02*
X199023810Y-117002438D01*
X199023810Y-117002438D02*
X198928572Y-116859580D01*
X198928572Y-116859580D02*
X198880953Y-116811961D01*
X172988095Y-86502438D02*
X172892857Y-86454819D01*
X172892857Y-86454819D02*
X172750000Y-86454819D01*
X172750000Y-86454819D02*
X172607143Y-86502438D01*
X172607143Y-86502438D02*
X172511905Y-86597676D01*
X172511905Y-86597676D02*
X172464286Y-86692914D01*
X172464286Y-86692914D02*
X172416667Y-86883390D01*
X172416667Y-86883390D02*
X172416667Y-87026247D01*
X172416667Y-87026247D02*
X172464286Y-87216723D01*
X172464286Y-87216723D02*
X172511905Y-87311961D01*
X172511905Y-87311961D02*
X172607143Y-87407200D01*
X172607143Y-87407200D02*
X172750000Y-87454819D01*
X172750000Y-87454819D02*
X172845238Y-87454819D01*
X172845238Y-87454819D02*
X172988095Y-87407200D01*
X172988095Y-87407200D02*
X173035714Y-87359580D01*
X173035714Y-87359580D02*
X173035714Y-87026247D01*
X173035714Y-87026247D02*
X172845238Y-87026247D01*
X173464286Y-87454819D02*
X173464286Y-86454819D01*
X173464286Y-86454819D02*
X174035714Y-87454819D01*
X174035714Y-87454819D02*
X174035714Y-86454819D01*
X174511905Y-87454819D02*
X174511905Y-86454819D01*
X174511905Y-86454819D02*
X174750000Y-86454819D01*
X174750000Y-86454819D02*
X174892857Y-86502438D01*
X174892857Y-86502438D02*
X174988095Y-86597676D01*
X174988095Y-86597676D02*
X175035714Y-86692914D01*
X175035714Y-86692914D02*
X175083333Y-86883390D01*
X175083333Y-86883390D02*
X175083333Y-87026247D01*
X175083333Y-87026247D02*
X175035714Y-87216723D01*
X175035714Y-87216723D02*
X174988095Y-87311961D01*
X174988095Y-87311961D02*
X174892857Y-87407200D01*
X174892857Y-87407200D02*
X174750000Y-87454819D01*
X174750000Y-87454819D02*
X174511905Y-87454819D01*
X170702380Y-83454819D02*
X170369047Y-82978628D01*
X170130952Y-83454819D02*
X170130952Y-82454819D01*
X170130952Y-82454819D02*
X170511904Y-82454819D01*
X170511904Y-82454819D02*
X170607142Y-82502438D01*
X170607142Y-82502438D02*
X170654761Y-82550057D01*
X170654761Y-82550057D02*
X170702380Y-82645295D01*
X170702380Y-82645295D02*
X170702380Y-82788152D01*
X170702380Y-82788152D02*
X170654761Y-82883390D01*
X170654761Y-82883390D02*
X170607142Y-82931009D01*
X170607142Y-82931009D02*
X170511904Y-82978628D01*
X170511904Y-82978628D02*
X170130952Y-82978628D01*
X171083333Y-83407200D02*
X171226190Y-83454819D01*
X171226190Y-83454819D02*
X171464285Y-83454819D01*
X171464285Y-83454819D02*
X171559523Y-83407200D01*
X171559523Y-83407200D02*
X171607142Y-83359580D01*
X171607142Y-83359580D02*
X171654761Y-83264342D01*
X171654761Y-83264342D02*
X171654761Y-83169104D01*
X171654761Y-83169104D02*
X171607142Y-83073866D01*
X171607142Y-83073866D02*
X171559523Y-83026247D01*
X171559523Y-83026247D02*
X171464285Y-82978628D01*
X171464285Y-82978628D02*
X171273809Y-82931009D01*
X171273809Y-82931009D02*
X171178571Y-82883390D01*
X171178571Y-82883390D02*
X171130952Y-82835771D01*
X171130952Y-82835771D02*
X171083333Y-82740533D01*
X171083333Y-82740533D02*
X171083333Y-82645295D01*
X171083333Y-82645295D02*
X171130952Y-82550057D01*
X171130952Y-82550057D02*
X171178571Y-82502438D01*
X171178571Y-82502438D02*
X171273809Y-82454819D01*
X171273809Y-82454819D02*
X171511904Y-82454819D01*
X171511904Y-82454819D02*
X171654761Y-82502438D01*
X171940476Y-82454819D02*
X172511904Y-82454819D01*
X172226190Y-83454819D02*
X172226190Y-82454819D01*
X189809523Y-90204819D02*
X189333333Y-90204819D01*
X189333333Y-90204819D02*
X189285714Y-90681009D01*
X189285714Y-90681009D02*
X189333333Y-90633390D01*
X189333333Y-90633390D02*
X189428571Y-90585771D01*
X189428571Y-90585771D02*
X189666666Y-90585771D01*
X189666666Y-90585771D02*
X189761904Y-90633390D01*
X189761904Y-90633390D02*
X189809523Y-90681009D01*
X189809523Y-90681009D02*
X189857142Y-90776247D01*
X189857142Y-90776247D02*
X189857142Y-91014342D01*
X189857142Y-91014342D02*
X189809523Y-91109580D01*
X189809523Y-91109580D02*
X189761904Y-91157200D01*
X189761904Y-91157200D02*
X189666666Y-91204819D01*
X189666666Y-91204819D02*
X189428571Y-91204819D01*
X189428571Y-91204819D02*
X189333333Y-91157200D01*
X189333333Y-91157200D02*
X189285714Y-91109580D01*
X190142857Y-90204819D02*
X190476190Y-91204819D01*
X190476190Y-91204819D02*
X190809523Y-90204819D01*
X186083333Y-109704819D02*
X185750000Y-109228628D01*
X185511905Y-109704819D02*
X185511905Y-108704819D01*
X185511905Y-108704819D02*
X185892857Y-108704819D01*
X185892857Y-108704819D02*
X185988095Y-108752438D01*
X185988095Y-108752438D02*
X186035714Y-108800057D01*
X186035714Y-108800057D02*
X186083333Y-108895295D01*
X186083333Y-108895295D02*
X186083333Y-109038152D01*
X186083333Y-109038152D02*
X186035714Y-109133390D01*
X186035714Y-109133390D02*
X185988095Y-109181009D01*
X185988095Y-109181009D02*
X185892857Y-109228628D01*
X185892857Y-109228628D02*
X185511905Y-109228628D01*
X186416667Y-108704819D02*
X187083333Y-109704819D01*
X187083333Y-108704819D02*
X186416667Y-109704819D01*
X182988095Y-105204819D02*
X183559523Y-105204819D01*
X183273809Y-106204819D02*
X183273809Y-105204819D01*
X183797619Y-105204819D02*
X184464285Y-106204819D01*
X184464285Y-105204819D02*
X183797619Y-106204819D01*
X182204819Y-129321427D02*
X181204819Y-129321427D01*
X181204819Y-129321427D02*
X181919104Y-128988094D01*
X181919104Y-128988094D02*
X181204819Y-128654761D01*
X181204819Y-128654761D02*
X182204819Y-128654761D01*
X182204819Y-128178570D02*
X181204819Y-128178570D01*
X179704819Y-129607142D02*
X178704819Y-129607142D01*
X178704819Y-129607142D02*
X179419104Y-129273809D01*
X179419104Y-129273809D02*
X178704819Y-128940476D01*
X178704819Y-128940476D02*
X179704819Y-128940476D01*
X178704819Y-128273809D02*
X178704819Y-128083333D01*
X178704819Y-128083333D02*
X178752438Y-127988095D01*
X178752438Y-127988095D02*
X178847676Y-127892857D01*
X178847676Y-127892857D02*
X179038152Y-127845238D01*
X179038152Y-127845238D02*
X179371485Y-127845238D01*
X179371485Y-127845238D02*
X179561961Y-127892857D01*
X179561961Y-127892857D02*
X179657200Y-127988095D01*
X179657200Y-127988095D02*
X179704819Y-128083333D01*
X179704819Y-128083333D02*
X179704819Y-128273809D01*
X179704819Y-128273809D02*
X179657200Y-128369047D01*
X179657200Y-128369047D02*
X179561961Y-128464285D01*
X179561961Y-128464285D02*
X179371485Y-128511904D01*
X179371485Y-128511904D02*
X179038152Y-128511904D01*
X179038152Y-128511904D02*
X178847676Y-128464285D01*
X178847676Y-128464285D02*
X178752438Y-128369047D01*
X178752438Y-128369047D02*
X178704819Y-128273809D01*
X176657200Y-130035713D02*
X176704819Y-129892856D01*
X176704819Y-129892856D02*
X176704819Y-129654761D01*
X176704819Y-129654761D02*
X176657200Y-129559523D01*
X176657200Y-129559523D02*
X176609580Y-129511904D01*
X176609580Y-129511904D02*
X176514342Y-129464285D01*
X176514342Y-129464285D02*
X176419104Y-129464285D01*
X176419104Y-129464285D02*
X176323866Y-129511904D01*
X176323866Y-129511904D02*
X176276247Y-129559523D01*
X176276247Y-129559523D02*
X176228628Y-129654761D01*
X176228628Y-129654761D02*
X176181009Y-129845237D01*
X176181009Y-129845237D02*
X176133390Y-129940475D01*
X176133390Y-129940475D02*
X176085771Y-129988094D01*
X176085771Y-129988094D02*
X175990533Y-130035713D01*
X175990533Y-130035713D02*
X175895295Y-130035713D01*
X175895295Y-130035713D02*
X175800057Y-129988094D01*
X175800057Y-129988094D02*
X175752438Y-129940475D01*
X175752438Y-129940475D02*
X175704819Y-129845237D01*
X175704819Y-129845237D02*
X175704819Y-129607142D01*
X175704819Y-129607142D02*
X175752438Y-129464285D01*
X176609580Y-128464285D02*
X176657200Y-128511904D01*
X176657200Y-128511904D02*
X176704819Y-128654761D01*
X176704819Y-128654761D02*
X176704819Y-128749999D01*
X176704819Y-128749999D02*
X176657200Y-128892856D01*
X176657200Y-128892856D02*
X176561961Y-128988094D01*
X176561961Y-128988094D02*
X176466723Y-129035713D01*
X176466723Y-129035713D02*
X176276247Y-129083332D01*
X176276247Y-129083332D02*
X176133390Y-129083332D01*
X176133390Y-129083332D02*
X175942914Y-129035713D01*
X175942914Y-129035713D02*
X175847676Y-128988094D01*
X175847676Y-128988094D02*
X175752438Y-128892856D01*
X175752438Y-128892856D02*
X175704819Y-128749999D01*
X175704819Y-128749999D02*
X175704819Y-128654761D01*
X175704819Y-128654761D02*
X175752438Y-128511904D01*
X175752438Y-128511904D02*
X175800057Y-128464285D01*
X176704819Y-128035713D02*
X175704819Y-128035713D01*
X176704819Y-127464285D02*
X176133390Y-127892856D01*
X175704819Y-127464285D02*
X176276247Y-128035713D01*
X174204819Y-129988094D02*
X173204819Y-129988094D01*
X173204819Y-129988094D02*
X174204819Y-129416666D01*
X174204819Y-129416666D02*
X173204819Y-129416666D01*
X174157200Y-128988094D02*
X174204819Y-128845237D01*
X174204819Y-128845237D02*
X174204819Y-128607142D01*
X174204819Y-128607142D02*
X174157200Y-128511904D01*
X174157200Y-128511904D02*
X174109580Y-128464285D01*
X174109580Y-128464285D02*
X174014342Y-128416666D01*
X174014342Y-128416666D02*
X173919104Y-128416666D01*
X173919104Y-128416666D02*
X173823866Y-128464285D01*
X173823866Y-128464285D02*
X173776247Y-128511904D01*
X173776247Y-128511904D02*
X173728628Y-128607142D01*
X173728628Y-128607142D02*
X173681009Y-128797618D01*
X173681009Y-128797618D02*
X173633390Y-128892856D01*
X173633390Y-128892856D02*
X173585771Y-128940475D01*
X173585771Y-128940475D02*
X173490533Y-128988094D01*
X173490533Y-128988094D02*
X173395295Y-128988094D01*
X173395295Y-128988094D02*
X173300057Y-128940475D01*
X173300057Y-128940475D02*
X173252438Y-128892856D01*
X173252438Y-128892856D02*
X173204819Y-128797618D01*
X173204819Y-128797618D02*
X173204819Y-128559523D01*
X173204819Y-128559523D02*
X173252438Y-128416666D01*
X174157200Y-128035713D02*
X174204819Y-127892856D01*
X174204819Y-127892856D02*
X174204819Y-127654761D01*
X174204819Y-127654761D02*
X174157200Y-127559523D01*
X174157200Y-127559523D02*
X174109580Y-127511904D01*
X174109580Y-127511904D02*
X174014342Y-127464285D01*
X174014342Y-127464285D02*
X173919104Y-127464285D01*
X173919104Y-127464285D02*
X173823866Y-127511904D01*
X173823866Y-127511904D02*
X173776247Y-127559523D01*
X173776247Y-127559523D02*
X173728628Y-127654761D01*
X173728628Y-127654761D02*
X173681009Y-127845237D01*
X173681009Y-127845237D02*
X173633390Y-127940475D01*
X173633390Y-127940475D02*
X173585771Y-127988094D01*
X173585771Y-127988094D02*
X173490533Y-128035713D01*
X173490533Y-128035713D02*
X173395295Y-128035713D01*
X173395295Y-128035713D02*
X173300057Y-127988094D01*
X173300057Y-127988094D02*
X173252438Y-127940475D01*
X173252438Y-127940475D02*
X173204819Y-127845237D01*
X173204819Y-127845237D02*
X173204819Y-127607142D01*
X173204819Y-127607142D02*
X173252438Y-127464285D01*
X170752438Y-129511904D02*
X170704819Y-129607142D01*
X170704819Y-129607142D02*
X170704819Y-129749999D01*
X170704819Y-129749999D02*
X170752438Y-129892856D01*
X170752438Y-129892856D02*
X170847676Y-129988094D01*
X170847676Y-129988094D02*
X170942914Y-130035713D01*
X170942914Y-130035713D02*
X171133390Y-130083332D01*
X171133390Y-130083332D02*
X171276247Y-130083332D01*
X171276247Y-130083332D02*
X171466723Y-130035713D01*
X171466723Y-130035713D02*
X171561961Y-129988094D01*
X171561961Y-129988094D02*
X171657200Y-129892856D01*
X171657200Y-129892856D02*
X171704819Y-129749999D01*
X171704819Y-129749999D02*
X171704819Y-129654761D01*
X171704819Y-129654761D02*
X171657200Y-129511904D01*
X171657200Y-129511904D02*
X171609580Y-129464285D01*
X171609580Y-129464285D02*
X171276247Y-129464285D01*
X171276247Y-129464285D02*
X171276247Y-129654761D01*
X171704819Y-129035713D02*
X170704819Y-129035713D01*
X170704819Y-129035713D02*
X171704819Y-128464285D01*
X171704819Y-128464285D02*
X170704819Y-128464285D01*
X171704819Y-127988094D02*
X170704819Y-127988094D01*
X170704819Y-127988094D02*
X170704819Y-127749999D01*
X170704819Y-127749999D02*
X170752438Y-127607142D01*
X170752438Y-127607142D02*
X170847676Y-127511904D01*
X170847676Y-127511904D02*
X170942914Y-127464285D01*
X170942914Y-127464285D02*
X171133390Y-127416666D01*
X171133390Y-127416666D02*
X171276247Y-127416666D01*
X171276247Y-127416666D02*
X171466723Y-127464285D01*
X171466723Y-127464285D02*
X171561961Y-127511904D01*
X171561961Y-127511904D02*
X171657200Y-127607142D01*
X171657200Y-127607142D02*
X171704819Y-127749999D01*
X171704819Y-127749999D02*
X171704819Y-127988094D01*
X169204819Y-129297619D02*
X168728628Y-129630952D01*
X169204819Y-129869047D02*
X168204819Y-129869047D01*
X168204819Y-129869047D02*
X168204819Y-129488095D01*
X168204819Y-129488095D02*
X168252438Y-129392857D01*
X168252438Y-129392857D02*
X168300057Y-129345238D01*
X168300057Y-129345238D02*
X168395295Y-129297619D01*
X168395295Y-129297619D02*
X168538152Y-129297619D01*
X168538152Y-129297619D02*
X168633390Y-129345238D01*
X168633390Y-129345238D02*
X168681009Y-129392857D01*
X168681009Y-129392857D02*
X168728628Y-129488095D01*
X168728628Y-129488095D02*
X168728628Y-129869047D01*
X169157200Y-128916666D02*
X169204819Y-128773809D01*
X169204819Y-128773809D02*
X169204819Y-128535714D01*
X169204819Y-128535714D02*
X169157200Y-128440476D01*
X169157200Y-128440476D02*
X169109580Y-128392857D01*
X169109580Y-128392857D02*
X169014342Y-128345238D01*
X169014342Y-128345238D02*
X168919104Y-128345238D01*
X168919104Y-128345238D02*
X168823866Y-128392857D01*
X168823866Y-128392857D02*
X168776247Y-128440476D01*
X168776247Y-128440476D02*
X168728628Y-128535714D01*
X168728628Y-128535714D02*
X168681009Y-128726190D01*
X168681009Y-128726190D02*
X168633390Y-128821428D01*
X168633390Y-128821428D02*
X168585771Y-128869047D01*
X168585771Y-128869047D02*
X168490533Y-128916666D01*
X168490533Y-128916666D02*
X168395295Y-128916666D01*
X168395295Y-128916666D02*
X168300057Y-128869047D01*
X168300057Y-128869047D02*
X168252438Y-128821428D01*
X168252438Y-128821428D02*
X168204819Y-128726190D01*
X168204819Y-128726190D02*
X168204819Y-128488095D01*
X168204819Y-128488095D02*
X168252438Y-128345238D01*
X168204819Y-128059523D02*
X168204819Y-127488095D01*
X169204819Y-127773809D02*
X168204819Y-127773809D01*
X165704819Y-129988094D02*
X165704819Y-129369047D01*
X165704819Y-129369047D02*
X166085771Y-129702380D01*
X166085771Y-129702380D02*
X166085771Y-129559523D01*
X166085771Y-129559523D02*
X166133390Y-129464285D01*
X166133390Y-129464285D02*
X166181009Y-129416666D01*
X166181009Y-129416666D02*
X166276247Y-129369047D01*
X166276247Y-129369047D02*
X166514342Y-129369047D01*
X166514342Y-129369047D02*
X166609580Y-129416666D01*
X166609580Y-129416666D02*
X166657200Y-129464285D01*
X166657200Y-129464285D02*
X166704819Y-129559523D01*
X166704819Y-129559523D02*
X166704819Y-129845237D01*
X166704819Y-129845237D02*
X166657200Y-129940475D01*
X166657200Y-129940475D02*
X166609580Y-129988094D01*
X165704819Y-129083332D02*
X166704819Y-128749999D01*
X166704819Y-128749999D02*
X165704819Y-128416666D01*
X165704819Y-128178570D02*
X165704819Y-127559523D01*
X165704819Y-127559523D02*
X166085771Y-127892856D01*
X166085771Y-127892856D02*
X166085771Y-127749999D01*
X166085771Y-127749999D02*
X166133390Y-127654761D01*
X166133390Y-127654761D02*
X166181009Y-127607142D01*
X166181009Y-127607142D02*
X166276247Y-127559523D01*
X166276247Y-127559523D02*
X166514342Y-127559523D01*
X166514342Y-127559523D02*
X166609580Y-127607142D01*
X166609580Y-127607142D02*
X166657200Y-127654761D01*
X166657200Y-127654761D02*
X166704819Y-127749999D01*
X166704819Y-127749999D02*
X166704819Y-128035713D01*
X166704819Y-128035713D02*
X166657200Y-128130951D01*
X166657200Y-128130951D02*
X166609580Y-128178570D01*
X149502438Y-130761904D02*
X149454819Y-130857142D01*
X149454819Y-130857142D02*
X149454819Y-130999999D01*
X149454819Y-130999999D02*
X149502438Y-131142856D01*
X149502438Y-131142856D02*
X149597676Y-131238094D01*
X149597676Y-131238094D02*
X149692914Y-131285713D01*
X149692914Y-131285713D02*
X149883390Y-131333332D01*
X149883390Y-131333332D02*
X150026247Y-131333332D01*
X150026247Y-131333332D02*
X150216723Y-131285713D01*
X150216723Y-131285713D02*
X150311961Y-131238094D01*
X150311961Y-131238094D02*
X150407200Y-131142856D01*
X150407200Y-131142856D02*
X150454819Y-130999999D01*
X150454819Y-130999999D02*
X150454819Y-130904761D01*
X150454819Y-130904761D02*
X150407200Y-130761904D01*
X150407200Y-130761904D02*
X150359580Y-130714285D01*
X150359580Y-130714285D02*
X150026247Y-130714285D01*
X150026247Y-130714285D02*
X150026247Y-130904761D01*
X150454819Y-130285713D02*
X149454819Y-130285713D01*
X149454819Y-130285713D02*
X150454819Y-129714285D01*
X150454819Y-129714285D02*
X149454819Y-129714285D01*
X150454819Y-129238094D02*
X149454819Y-129238094D01*
X149454819Y-129238094D02*
X149454819Y-128999999D01*
X149454819Y-128999999D02*
X149502438Y-128857142D01*
X149502438Y-128857142D02*
X149597676Y-128761904D01*
X149597676Y-128761904D02*
X149692914Y-128714285D01*
X149692914Y-128714285D02*
X149883390Y-128666666D01*
X149883390Y-128666666D02*
X150026247Y-128666666D01*
X150026247Y-128666666D02*
X150216723Y-128714285D01*
X150216723Y-128714285D02*
X150311961Y-128761904D01*
X150311961Y-128761904D02*
X150407200Y-128857142D01*
X150407200Y-128857142D02*
X150454819Y-128999999D01*
X150454819Y-128999999D02*
X150454819Y-129238094D01*
X147954819Y-131023808D02*
X146954819Y-131023808D01*
X146954819Y-131023808D02*
X146954819Y-130785713D01*
X146954819Y-130785713D02*
X147002438Y-130642856D01*
X147002438Y-130642856D02*
X147097676Y-130547618D01*
X147097676Y-130547618D02*
X147192914Y-130499999D01*
X147192914Y-130499999D02*
X147383390Y-130452380D01*
X147383390Y-130452380D02*
X147526247Y-130452380D01*
X147526247Y-130452380D02*
X147716723Y-130499999D01*
X147716723Y-130499999D02*
X147811961Y-130547618D01*
X147811961Y-130547618D02*
X147907200Y-130642856D01*
X147907200Y-130642856D02*
X147954819Y-130785713D01*
X147954819Y-130785713D02*
X147954819Y-131023808D01*
X147954819Y-130023808D02*
X146954819Y-130023808D01*
X146954819Y-129357142D02*
X146954819Y-129166666D01*
X146954819Y-129166666D02*
X147002438Y-129071428D01*
X147002438Y-129071428D02*
X147097676Y-128976190D01*
X147097676Y-128976190D02*
X147288152Y-128928571D01*
X147288152Y-128928571D02*
X147621485Y-128928571D01*
X147621485Y-128928571D02*
X147811961Y-128976190D01*
X147811961Y-128976190D02*
X147907200Y-129071428D01*
X147907200Y-129071428D02*
X147954819Y-129166666D01*
X147954819Y-129166666D02*
X147954819Y-129357142D01*
X147954819Y-129357142D02*
X147907200Y-129452380D01*
X147907200Y-129452380D02*
X147811961Y-129547618D01*
X147811961Y-129547618D02*
X147621485Y-129595237D01*
X147621485Y-129595237D02*
X147288152Y-129595237D01*
X147288152Y-129595237D02*
X147097676Y-129547618D01*
X147097676Y-129547618D02*
X147002438Y-129452380D01*
X147002438Y-129452380D02*
X146954819Y-129357142D01*
X145359580Y-130595238D02*
X145407200Y-130642857D01*
X145407200Y-130642857D02*
X145454819Y-130785714D01*
X145454819Y-130785714D02*
X145454819Y-130880952D01*
X145454819Y-130880952D02*
X145407200Y-131023809D01*
X145407200Y-131023809D02*
X145311961Y-131119047D01*
X145311961Y-131119047D02*
X145216723Y-131166666D01*
X145216723Y-131166666D02*
X145026247Y-131214285D01*
X145026247Y-131214285D02*
X144883390Y-131214285D01*
X144883390Y-131214285D02*
X144692914Y-131166666D01*
X144692914Y-131166666D02*
X144597676Y-131119047D01*
X144597676Y-131119047D02*
X144502438Y-131023809D01*
X144502438Y-131023809D02*
X144454819Y-130880952D01*
X144454819Y-130880952D02*
X144454819Y-130785714D01*
X144454819Y-130785714D02*
X144502438Y-130642857D01*
X144502438Y-130642857D02*
X144550057Y-130595238D01*
X145454819Y-129690476D02*
X145454819Y-130166666D01*
X145454819Y-130166666D02*
X144454819Y-130166666D01*
X145454819Y-129357142D02*
X144454819Y-129357142D01*
X145454819Y-128785714D02*
X144883390Y-129214285D01*
X144454819Y-128785714D02*
X145026247Y-129357142D01*
X142954819Y-130547619D02*
X142478628Y-130880952D01*
X142954819Y-131119047D02*
X141954819Y-131119047D01*
X141954819Y-131119047D02*
X141954819Y-130738095D01*
X141954819Y-130738095D02*
X142002438Y-130642857D01*
X142002438Y-130642857D02*
X142050057Y-130595238D01*
X142050057Y-130595238D02*
X142145295Y-130547619D01*
X142145295Y-130547619D02*
X142288152Y-130547619D01*
X142288152Y-130547619D02*
X142383390Y-130595238D01*
X142383390Y-130595238D02*
X142431009Y-130642857D01*
X142431009Y-130642857D02*
X142478628Y-130738095D01*
X142478628Y-130738095D02*
X142478628Y-131119047D01*
X142907200Y-130166666D02*
X142954819Y-130023809D01*
X142954819Y-130023809D02*
X142954819Y-129785714D01*
X142954819Y-129785714D02*
X142907200Y-129690476D01*
X142907200Y-129690476D02*
X142859580Y-129642857D01*
X142859580Y-129642857D02*
X142764342Y-129595238D01*
X142764342Y-129595238D02*
X142669104Y-129595238D01*
X142669104Y-129595238D02*
X142573866Y-129642857D01*
X142573866Y-129642857D02*
X142526247Y-129690476D01*
X142526247Y-129690476D02*
X142478628Y-129785714D01*
X142478628Y-129785714D02*
X142431009Y-129976190D01*
X142431009Y-129976190D02*
X142383390Y-130071428D01*
X142383390Y-130071428D02*
X142335771Y-130119047D01*
X142335771Y-130119047D02*
X142240533Y-130166666D01*
X142240533Y-130166666D02*
X142145295Y-130166666D01*
X142145295Y-130166666D02*
X142050057Y-130119047D01*
X142050057Y-130119047D02*
X142002438Y-130071428D01*
X142002438Y-130071428D02*
X141954819Y-129976190D01*
X141954819Y-129976190D02*
X141954819Y-129738095D01*
X141954819Y-129738095D02*
X142002438Y-129595238D01*
X141954819Y-129309523D02*
X141954819Y-128738095D01*
X142954819Y-129023809D02*
X141954819Y-129023809D01*
X139454819Y-131238094D02*
X139454819Y-130619047D01*
X139454819Y-130619047D02*
X139835771Y-130952380D01*
X139835771Y-130952380D02*
X139835771Y-130809523D01*
X139835771Y-130809523D02*
X139883390Y-130714285D01*
X139883390Y-130714285D02*
X139931009Y-130666666D01*
X139931009Y-130666666D02*
X140026247Y-130619047D01*
X140026247Y-130619047D02*
X140264342Y-130619047D01*
X140264342Y-130619047D02*
X140359580Y-130666666D01*
X140359580Y-130666666D02*
X140407200Y-130714285D01*
X140407200Y-130714285D02*
X140454819Y-130809523D01*
X140454819Y-130809523D02*
X140454819Y-131095237D01*
X140454819Y-131095237D02*
X140407200Y-131190475D01*
X140407200Y-131190475D02*
X140359580Y-131238094D01*
X139454819Y-130333332D02*
X140454819Y-129999999D01*
X140454819Y-129999999D02*
X139454819Y-129666666D01*
X139454819Y-129428570D02*
X139454819Y-128809523D01*
X139454819Y-128809523D02*
X139835771Y-129142856D01*
X139835771Y-129142856D02*
X139835771Y-128999999D01*
X139835771Y-128999999D02*
X139883390Y-128904761D01*
X139883390Y-128904761D02*
X139931009Y-128857142D01*
X139931009Y-128857142D02*
X140026247Y-128809523D01*
X140026247Y-128809523D02*
X140264342Y-128809523D01*
X140264342Y-128809523D02*
X140359580Y-128857142D01*
X140359580Y-128857142D02*
X140407200Y-128904761D01*
X140407200Y-128904761D02*
X140454819Y-128999999D01*
X140454819Y-128999999D02*
X140454819Y-129285713D01*
X140454819Y-129285713D02*
X140407200Y-129380951D01*
X140407200Y-129380951D02*
X140359580Y-129428570D01*
X162416666Y-121681009D02*
X162559523Y-121728628D01*
X162559523Y-121728628D02*
X162607142Y-121776247D01*
X162607142Y-121776247D02*
X162654761Y-121871485D01*
X162654761Y-121871485D02*
X162654761Y-122014342D01*
X162654761Y-122014342D02*
X162607142Y-122109580D01*
X162607142Y-122109580D02*
X162559523Y-122157200D01*
X162559523Y-122157200D02*
X162464285Y-122204819D01*
X162464285Y-122204819D02*
X162083333Y-122204819D01*
X162083333Y-122204819D02*
X162083333Y-121204819D01*
X162083333Y-121204819D02*
X162416666Y-121204819D01*
X162416666Y-121204819D02*
X162511904Y-121252438D01*
X162511904Y-121252438D02*
X162559523Y-121300057D01*
X162559523Y-121300057D02*
X162607142Y-121395295D01*
X162607142Y-121395295D02*
X162607142Y-121490533D01*
X162607142Y-121490533D02*
X162559523Y-121585771D01*
X162559523Y-121585771D02*
X162511904Y-121633390D01*
X162511904Y-121633390D02*
X162416666Y-121681009D01*
X162416666Y-121681009D02*
X162083333Y-121681009D01*
X163273809Y-121204819D02*
X163464285Y-121204819D01*
X163464285Y-121204819D02*
X163559523Y-121252438D01*
X163559523Y-121252438D02*
X163654761Y-121347676D01*
X163654761Y-121347676D02*
X163702380Y-121538152D01*
X163702380Y-121538152D02*
X163702380Y-121871485D01*
X163702380Y-121871485D02*
X163654761Y-122061961D01*
X163654761Y-122061961D02*
X163559523Y-122157200D01*
X163559523Y-122157200D02*
X163464285Y-122204819D01*
X163464285Y-122204819D02*
X163273809Y-122204819D01*
X163273809Y-122204819D02*
X163178571Y-122157200D01*
X163178571Y-122157200D02*
X163083333Y-122061961D01*
X163083333Y-122061961D02*
X163035714Y-121871485D01*
X163035714Y-121871485D02*
X163035714Y-121538152D01*
X163035714Y-121538152D02*
X163083333Y-121347676D01*
X163083333Y-121347676D02*
X163178571Y-121252438D01*
X163178571Y-121252438D02*
X163273809Y-121204819D01*
X164321428Y-121204819D02*
X164511904Y-121204819D01*
X164511904Y-121204819D02*
X164607142Y-121252438D01*
X164607142Y-121252438D02*
X164702380Y-121347676D01*
X164702380Y-121347676D02*
X164749999Y-121538152D01*
X164749999Y-121538152D02*
X164749999Y-121871485D01*
X164749999Y-121871485D02*
X164702380Y-122061961D01*
X164702380Y-122061961D02*
X164607142Y-122157200D01*
X164607142Y-122157200D02*
X164511904Y-122204819D01*
X164511904Y-122204819D02*
X164321428Y-122204819D01*
X164321428Y-122204819D02*
X164226190Y-122157200D01*
X164226190Y-122157200D02*
X164130952Y-122061961D01*
X164130952Y-122061961D02*
X164083333Y-121871485D01*
X164083333Y-121871485D02*
X164083333Y-121538152D01*
X164083333Y-121538152D02*
X164130952Y-121347676D01*
X164130952Y-121347676D02*
X164226190Y-121252438D01*
X164226190Y-121252438D02*
X164321428Y-121204819D01*
X165035714Y-121204819D02*
X165607142Y-121204819D01*
X165321428Y-122204819D02*
X165321428Y-121204819D01*
X166130952Y-121204819D02*
X166226190Y-121204819D01*
X166226190Y-121204819D02*
X166321428Y-121252438D01*
X166321428Y-121252438D02*
X166369047Y-121300057D01*
X166369047Y-121300057D02*
X166416666Y-121395295D01*
X166416666Y-121395295D02*
X166464285Y-121585771D01*
X166464285Y-121585771D02*
X166464285Y-121823866D01*
X166464285Y-121823866D02*
X166416666Y-122014342D01*
X166416666Y-122014342D02*
X166369047Y-122109580D01*
X166369047Y-122109580D02*
X166321428Y-122157200D01*
X166321428Y-122157200D02*
X166226190Y-122204819D01*
X166226190Y-122204819D02*
X166130952Y-122204819D01*
X166130952Y-122204819D02*
X166035714Y-122157200D01*
X166035714Y-122157200D02*
X165988095Y-122109580D01*
X165988095Y-122109580D02*
X165940476Y-122014342D01*
X165940476Y-122014342D02*
X165892857Y-121823866D01*
X165892857Y-121823866D02*
X165892857Y-121585771D01*
X165892857Y-121585771D02*
X165940476Y-121395295D01*
X165940476Y-121395295D02*
X165988095Y-121300057D01*
X165988095Y-121300057D02*
X166035714Y-121252438D01*
X166035714Y-121252438D02*
X166130952Y-121204819D01*
X158511905Y-121204819D02*
X159130952Y-121204819D01*
X159130952Y-121204819D02*
X158797619Y-121585771D01*
X158797619Y-121585771D02*
X158940476Y-121585771D01*
X158940476Y-121585771D02*
X159035714Y-121633390D01*
X159035714Y-121633390D02*
X159083333Y-121681009D01*
X159083333Y-121681009D02*
X159130952Y-121776247D01*
X159130952Y-121776247D02*
X159130952Y-122014342D01*
X159130952Y-122014342D02*
X159083333Y-122109580D01*
X159083333Y-122109580D02*
X159035714Y-122157200D01*
X159035714Y-122157200D02*
X158940476Y-122204819D01*
X158940476Y-122204819D02*
X158654762Y-122204819D01*
X158654762Y-122204819D02*
X158559524Y-122157200D01*
X158559524Y-122157200D02*
X158511905Y-122109580D01*
X159416667Y-121204819D02*
X159750000Y-122204819D01*
X159750000Y-122204819D02*
X160083333Y-121204819D01*
X160321429Y-121204819D02*
X160940476Y-121204819D01*
X160940476Y-121204819D02*
X160607143Y-121585771D01*
X160607143Y-121585771D02*
X160750000Y-121585771D01*
X160750000Y-121585771D02*
X160845238Y-121633390D01*
X160845238Y-121633390D02*
X160892857Y-121681009D01*
X160892857Y-121681009D02*
X160940476Y-121776247D01*
X160940476Y-121776247D02*
X160940476Y-122014342D01*
X160940476Y-122014342D02*
X160892857Y-122109580D01*
X160892857Y-122109580D02*
X160845238Y-122157200D01*
X160845238Y-122157200D02*
X160750000Y-122204819D01*
X160750000Y-122204819D02*
X160464286Y-122204819D01*
X160464286Y-122204819D02*
X160369048Y-122157200D01*
X160369048Y-122157200D02*
X160321429Y-122109580D01*
X154011905Y-120657200D02*
X154154762Y-120704819D01*
X154154762Y-120704819D02*
X154392857Y-120704819D01*
X154392857Y-120704819D02*
X154488095Y-120657200D01*
X154488095Y-120657200D02*
X154535714Y-120609580D01*
X154535714Y-120609580D02*
X154583333Y-120514342D01*
X154583333Y-120514342D02*
X154583333Y-120419104D01*
X154583333Y-120419104D02*
X154535714Y-120323866D01*
X154535714Y-120323866D02*
X154488095Y-120276247D01*
X154488095Y-120276247D02*
X154392857Y-120228628D01*
X154392857Y-120228628D02*
X154202381Y-120181009D01*
X154202381Y-120181009D02*
X154107143Y-120133390D01*
X154107143Y-120133390D02*
X154059524Y-120085771D01*
X154059524Y-120085771D02*
X154011905Y-119990533D01*
X154011905Y-119990533D02*
X154011905Y-119895295D01*
X154011905Y-119895295D02*
X154059524Y-119800057D01*
X154059524Y-119800057D02*
X154107143Y-119752438D01*
X154107143Y-119752438D02*
X154202381Y-119704819D01*
X154202381Y-119704819D02*
X154440476Y-119704819D01*
X154440476Y-119704819D02*
X154583333Y-119752438D01*
X155202381Y-120228628D02*
X155202381Y-120704819D01*
X154869048Y-119704819D02*
X155202381Y-120228628D01*
X155202381Y-120228628D02*
X155535714Y-119704819D01*
X155869048Y-120704819D02*
X155869048Y-119704819D01*
X155869048Y-119704819D02*
X156440476Y-120704819D01*
X156440476Y-120704819D02*
X156440476Y-119704819D01*
X157488095Y-120609580D02*
X157440476Y-120657200D01*
X157440476Y-120657200D02*
X157297619Y-120704819D01*
X157297619Y-120704819D02*
X157202381Y-120704819D01*
X157202381Y-120704819D02*
X157059524Y-120657200D01*
X157059524Y-120657200D02*
X156964286Y-120561961D01*
X156964286Y-120561961D02*
X156916667Y-120466723D01*
X156916667Y-120466723D02*
X156869048Y-120276247D01*
X156869048Y-120276247D02*
X156869048Y-120133390D01*
X156869048Y-120133390D02*
X156916667Y-119942914D01*
X156916667Y-119942914D02*
X156964286Y-119847676D01*
X156964286Y-119847676D02*
X157059524Y-119752438D01*
X157059524Y-119752438D02*
X157202381Y-119704819D01*
X157202381Y-119704819D02*
X157297619Y-119704819D01*
X157297619Y-119704819D02*
X157440476Y-119752438D01*
X157440476Y-119752438D02*
X157488095Y-119800057D01*
X136704819Y-115571427D02*
X136704819Y-114999999D01*
X137704819Y-115285713D02*
X136704819Y-115285713D01*
X137704819Y-114666665D02*
X136704819Y-114666665D01*
X137704819Y-114190475D02*
X136704819Y-114190475D01*
X136704819Y-114190475D02*
X137419104Y-113857142D01*
X137419104Y-113857142D02*
X136704819Y-113523809D01*
X136704819Y-113523809D02*
X137704819Y-113523809D01*
X137800057Y-113285714D02*
X137800057Y-112523809D01*
X137704819Y-112285713D02*
X136704819Y-112285713D01*
X136704819Y-112285713D02*
X137419104Y-111952380D01*
X137419104Y-111952380D02*
X136704819Y-111619047D01*
X136704819Y-111619047D02*
X137704819Y-111619047D01*
X137609580Y-110571428D02*
X137657200Y-110619047D01*
X137657200Y-110619047D02*
X137704819Y-110761904D01*
X137704819Y-110761904D02*
X137704819Y-110857142D01*
X137704819Y-110857142D02*
X137657200Y-110999999D01*
X137657200Y-110999999D02*
X137561961Y-111095237D01*
X137561961Y-111095237D02*
X137466723Y-111142856D01*
X137466723Y-111142856D02*
X137276247Y-111190475D01*
X137276247Y-111190475D02*
X137133390Y-111190475D01*
X137133390Y-111190475D02*
X136942914Y-111142856D01*
X136942914Y-111142856D02*
X136847676Y-111095237D01*
X136847676Y-111095237D02*
X136752438Y-110999999D01*
X136752438Y-110999999D02*
X136704819Y-110857142D01*
X136704819Y-110857142D02*
X136704819Y-110761904D01*
X136704819Y-110761904D02*
X136752438Y-110619047D01*
X136752438Y-110619047D02*
X136800057Y-110571428D01*
X136704819Y-109952380D02*
X136704819Y-109761904D01*
X136704819Y-109761904D02*
X136752438Y-109666666D01*
X136752438Y-109666666D02*
X136847676Y-109571428D01*
X136847676Y-109571428D02*
X137038152Y-109523809D01*
X137038152Y-109523809D02*
X137371485Y-109523809D01*
X137371485Y-109523809D02*
X137561961Y-109571428D01*
X137561961Y-109571428D02*
X137657200Y-109666666D01*
X137657200Y-109666666D02*
X137704819Y-109761904D01*
X137704819Y-109761904D02*
X137704819Y-109952380D01*
X137704819Y-109952380D02*
X137657200Y-110047618D01*
X137657200Y-110047618D02*
X137561961Y-110142856D01*
X137561961Y-110142856D02*
X137371485Y-110190475D01*
X137371485Y-110190475D02*
X137038152Y-110190475D01*
X137038152Y-110190475D02*
X136847676Y-110142856D01*
X136847676Y-110142856D02*
X136752438Y-110047618D01*
X136752438Y-110047618D02*
X136704819Y-109952380D01*
X124404761Y-117859580D02*
X124357142Y-117907200D01*
X124357142Y-117907200D02*
X124214285Y-117954819D01*
X124214285Y-117954819D02*
X124119047Y-117954819D01*
X124119047Y-117954819D02*
X123976190Y-117907200D01*
X123976190Y-117907200D02*
X123880952Y-117811961D01*
X123880952Y-117811961D02*
X123833333Y-117716723D01*
X123833333Y-117716723D02*
X123785714Y-117526247D01*
X123785714Y-117526247D02*
X123785714Y-117383390D01*
X123785714Y-117383390D02*
X123833333Y-117192914D01*
X123833333Y-117192914D02*
X123880952Y-117097676D01*
X123880952Y-117097676D02*
X123976190Y-117002438D01*
X123976190Y-117002438D02*
X124119047Y-116954819D01*
X124119047Y-116954819D02*
X124214285Y-116954819D01*
X124214285Y-116954819D02*
X124357142Y-117002438D01*
X124357142Y-117002438D02*
X124404761Y-117050057D01*
X125309523Y-117954819D02*
X124833333Y-117954819D01*
X124833333Y-117954819D02*
X124833333Y-116954819D01*
X125642857Y-117954819D02*
X125642857Y-116954819D01*
X126214285Y-117954819D02*
X125785714Y-117383390D01*
X126214285Y-116954819D02*
X125642857Y-117526247D01*
X124261905Y-108454819D02*
X124261905Y-107454819D01*
X124261905Y-107454819D02*
X124500000Y-107454819D01*
X124500000Y-107454819D02*
X124642857Y-107502438D01*
X124642857Y-107502438D02*
X124738095Y-107597676D01*
X124738095Y-107597676D02*
X124785714Y-107692914D01*
X124785714Y-107692914D02*
X124833333Y-107883390D01*
X124833333Y-107883390D02*
X124833333Y-108026247D01*
X124833333Y-108026247D02*
X124785714Y-108216723D01*
X124785714Y-108216723D02*
X124738095Y-108311961D01*
X124738095Y-108311961D02*
X124642857Y-108407200D01*
X124642857Y-108407200D02*
X124500000Y-108454819D01*
X124500000Y-108454819D02*
X124261905Y-108454819D01*
X125214286Y-107550057D02*
X125261905Y-107502438D01*
X125261905Y-107502438D02*
X125357143Y-107454819D01*
X125357143Y-107454819D02*
X125595238Y-107454819D01*
X125595238Y-107454819D02*
X125690476Y-107502438D01*
X125690476Y-107502438D02*
X125738095Y-107550057D01*
X125738095Y-107550057D02*
X125785714Y-107645295D01*
X125785714Y-107645295D02*
X125785714Y-107740533D01*
X125785714Y-107740533D02*
X125738095Y-107883390D01*
X125738095Y-107883390D02*
X125166667Y-108454819D01*
X125166667Y-108454819D02*
X125785714Y-108454819D01*
X123785714Y-87954819D02*
X123785714Y-86954819D01*
X123785714Y-86954819D02*
X124023809Y-86954819D01*
X124023809Y-86954819D02*
X124166666Y-87002438D01*
X124166666Y-87002438D02*
X124261904Y-87097676D01*
X124261904Y-87097676D02*
X124309523Y-87192914D01*
X124309523Y-87192914D02*
X124357142Y-87383390D01*
X124357142Y-87383390D02*
X124357142Y-87526247D01*
X124357142Y-87526247D02*
X124309523Y-87716723D01*
X124309523Y-87716723D02*
X124261904Y-87811961D01*
X124261904Y-87811961D02*
X124166666Y-87907200D01*
X124166666Y-87907200D02*
X124023809Y-87954819D01*
X124023809Y-87954819D02*
X123785714Y-87954819D01*
X125309523Y-87954819D02*
X124738095Y-87954819D01*
X125023809Y-87954819D02*
X125023809Y-86954819D01*
X125023809Y-86954819D02*
X124928571Y-87097676D01*
X124928571Y-87097676D02*
X124833333Y-87192914D01*
X124833333Y-87192914D02*
X124738095Y-87240533D01*
X125928571Y-86954819D02*
X126023809Y-86954819D01*
X126023809Y-86954819D02*
X126119047Y-87002438D01*
X126119047Y-87002438D02*
X126166666Y-87050057D01*
X126166666Y-87050057D02*
X126214285Y-87145295D01*
X126214285Y-87145295D02*
X126261904Y-87335771D01*
X126261904Y-87335771D02*
X126261904Y-87573866D01*
X126261904Y-87573866D02*
X126214285Y-87764342D01*
X126214285Y-87764342D02*
X126166666Y-87859580D01*
X126166666Y-87859580D02*
X126119047Y-87907200D01*
X126119047Y-87907200D02*
X126023809Y-87954819D01*
X126023809Y-87954819D02*
X125928571Y-87954819D01*
X125928571Y-87954819D02*
X125833333Y-87907200D01*
X125833333Y-87907200D02*
X125785714Y-87859580D01*
X125785714Y-87859580D02*
X125738095Y-87764342D01*
X125738095Y-87764342D02*
X125690476Y-87573866D01*
X125690476Y-87573866D02*
X125690476Y-87335771D01*
X125690476Y-87335771D02*
X125738095Y-87145295D01*
X125738095Y-87145295D02*
X125785714Y-87050057D01*
X125785714Y-87050057D02*
X125833333Y-87002438D01*
X125833333Y-87002438D02*
X125928571Y-86954819D01*
X123785714Y-85454819D02*
X123785714Y-84454819D01*
X123785714Y-84454819D02*
X124023809Y-84454819D01*
X124023809Y-84454819D02*
X124166666Y-84502438D01*
X124166666Y-84502438D02*
X124261904Y-84597676D01*
X124261904Y-84597676D02*
X124309523Y-84692914D01*
X124309523Y-84692914D02*
X124357142Y-84883390D01*
X124357142Y-84883390D02*
X124357142Y-85026247D01*
X124357142Y-85026247D02*
X124309523Y-85216723D01*
X124309523Y-85216723D02*
X124261904Y-85311961D01*
X124261904Y-85311961D02*
X124166666Y-85407200D01*
X124166666Y-85407200D02*
X124023809Y-85454819D01*
X124023809Y-85454819D02*
X123785714Y-85454819D01*
X125309523Y-85454819D02*
X124738095Y-85454819D01*
X125023809Y-85454819D02*
X125023809Y-84454819D01*
X125023809Y-84454819D02*
X124928571Y-84597676D01*
X124928571Y-84597676D02*
X124833333Y-84692914D01*
X124833333Y-84692914D02*
X124738095Y-84740533D01*
X126261904Y-85454819D02*
X125690476Y-85454819D01*
X125976190Y-85454819D02*
X125976190Y-84454819D01*
X125976190Y-84454819D02*
X125880952Y-84597676D01*
X125880952Y-84597676D02*
X125785714Y-84692914D01*
X125785714Y-84692914D02*
X125690476Y-84740533D01*
X124023809Y-81954819D02*
X124214285Y-81954819D01*
X124214285Y-81954819D02*
X124309523Y-82002438D01*
X124309523Y-82002438D02*
X124404761Y-82097676D01*
X124404761Y-82097676D02*
X124452380Y-82288152D01*
X124452380Y-82288152D02*
X124452380Y-82621485D01*
X124452380Y-82621485D02*
X124404761Y-82811961D01*
X124404761Y-82811961D02*
X124309523Y-82907200D01*
X124309523Y-82907200D02*
X124214285Y-82954819D01*
X124214285Y-82954819D02*
X124023809Y-82954819D01*
X124023809Y-82954819D02*
X123928571Y-82907200D01*
X123928571Y-82907200D02*
X123833333Y-82811961D01*
X123833333Y-82811961D02*
X123785714Y-82621485D01*
X123785714Y-82621485D02*
X123785714Y-82288152D01*
X123785714Y-82288152D02*
X123833333Y-82097676D01*
X123833333Y-82097676D02*
X123928571Y-82002438D01*
X123928571Y-82002438D02*
X124023809Y-81954819D01*
X124738095Y-81954819D02*
X125309523Y-81954819D01*
X125023809Y-82954819D02*
X125023809Y-81954819D01*
X126214285Y-82954819D02*
X125880952Y-82478628D01*
X125642857Y-82954819D02*
X125642857Y-81954819D01*
X125642857Y-81954819D02*
X126023809Y-81954819D01*
X126023809Y-81954819D02*
X126119047Y-82002438D01*
X126119047Y-82002438D02*
X126166666Y-82050057D01*
X126166666Y-82050057D02*
X126214285Y-82145295D01*
X126214285Y-82145295D02*
X126214285Y-82288152D01*
X126214285Y-82288152D02*
X126166666Y-82383390D01*
X126166666Y-82383390D02*
X126119047Y-82431009D01*
X126119047Y-82431009D02*
X126023809Y-82478628D01*
X126023809Y-82478628D02*
X125642857Y-82478628D01*
X95704819Y-68738094D02*
X95704819Y-68119047D01*
X95704819Y-68119047D02*
X96085771Y-68452380D01*
X96085771Y-68452380D02*
X96085771Y-68309523D01*
X96085771Y-68309523D02*
X96133390Y-68214285D01*
X96133390Y-68214285D02*
X96181009Y-68166666D01*
X96181009Y-68166666D02*
X96276247Y-68119047D01*
X96276247Y-68119047D02*
X96514342Y-68119047D01*
X96514342Y-68119047D02*
X96609580Y-68166666D01*
X96609580Y-68166666D02*
X96657200Y-68214285D01*
X96657200Y-68214285D02*
X96704819Y-68309523D01*
X96704819Y-68309523D02*
X96704819Y-68595237D01*
X96704819Y-68595237D02*
X96657200Y-68690475D01*
X96657200Y-68690475D02*
X96609580Y-68738094D01*
X95704819Y-67833332D02*
X96704819Y-67499999D01*
X96704819Y-67499999D02*
X95704819Y-67166666D01*
X95704819Y-66928570D02*
X95704819Y-66309523D01*
X95704819Y-66309523D02*
X96085771Y-66642856D01*
X96085771Y-66642856D02*
X96085771Y-66499999D01*
X96085771Y-66499999D02*
X96133390Y-66404761D01*
X96133390Y-66404761D02*
X96181009Y-66357142D01*
X96181009Y-66357142D02*
X96276247Y-66309523D01*
X96276247Y-66309523D02*
X96514342Y-66309523D01*
X96514342Y-66309523D02*
X96609580Y-66357142D01*
X96609580Y-66357142D02*
X96657200Y-66404761D01*
X96657200Y-66404761D02*
X96704819Y-66499999D01*
X96704819Y-66499999D02*
X96704819Y-66785713D01*
X96704819Y-66785713D02*
X96657200Y-66880951D01*
X96657200Y-66880951D02*
X96609580Y-66928570D01*
X98550057Y-68785713D02*
X98502438Y-68738094D01*
X98502438Y-68738094D02*
X98454819Y-68642856D01*
X98454819Y-68642856D02*
X98454819Y-68404761D01*
X98454819Y-68404761D02*
X98502438Y-68309523D01*
X98502438Y-68309523D02*
X98550057Y-68261904D01*
X98550057Y-68261904D02*
X98645295Y-68214285D01*
X98645295Y-68214285D02*
X98740533Y-68214285D01*
X98740533Y-68214285D02*
X98883390Y-68261904D01*
X98883390Y-68261904D02*
X99454819Y-68833332D01*
X99454819Y-68833332D02*
X99454819Y-68214285D01*
X98407200Y-67071428D02*
X99692914Y-67928570D01*
X98454819Y-66833332D02*
X98454819Y-66214285D01*
X98454819Y-66214285D02*
X98835771Y-66547618D01*
X98835771Y-66547618D02*
X98835771Y-66404761D01*
X98835771Y-66404761D02*
X98883390Y-66309523D01*
X98883390Y-66309523D02*
X98931009Y-66261904D01*
X98931009Y-66261904D02*
X99026247Y-66214285D01*
X99026247Y-66214285D02*
X99264342Y-66214285D01*
X99264342Y-66214285D02*
X99359580Y-66261904D01*
X99359580Y-66261904D02*
X99407200Y-66309523D01*
X99407200Y-66309523D02*
X99454819Y-66404761D01*
X99454819Y-66404761D02*
X99454819Y-66690475D01*
X99454819Y-66690475D02*
X99407200Y-66785713D01*
X99407200Y-66785713D02*
X99359580Y-66833332D01*
X101704819Y-68214285D02*
X101704819Y-68785713D01*
X101704819Y-68499999D02*
X100704819Y-68499999D01*
X100704819Y-68499999D02*
X100847676Y-68595237D01*
X100847676Y-68595237D02*
X100942914Y-68690475D01*
X100942914Y-68690475D02*
X100990533Y-68785713D01*
X100657200Y-67071428D02*
X101942914Y-67928570D01*
X100704819Y-66833332D02*
X100704819Y-66214285D01*
X100704819Y-66214285D02*
X101085771Y-66547618D01*
X101085771Y-66547618D02*
X101085771Y-66404761D01*
X101085771Y-66404761D02*
X101133390Y-66309523D01*
X101133390Y-66309523D02*
X101181009Y-66261904D01*
X101181009Y-66261904D02*
X101276247Y-66214285D01*
X101276247Y-66214285D02*
X101514342Y-66214285D01*
X101514342Y-66214285D02*
X101609580Y-66261904D01*
X101609580Y-66261904D02*
X101657200Y-66309523D01*
X101657200Y-66309523D02*
X101704819Y-66404761D01*
X101704819Y-66404761D02*
X101704819Y-66690475D01*
X101704819Y-66690475D02*
X101657200Y-66785713D01*
X101657200Y-66785713D02*
X101609580Y-66833332D01*
X103252438Y-68261904D02*
X103204819Y-68357142D01*
X103204819Y-68357142D02*
X103204819Y-68499999D01*
X103204819Y-68499999D02*
X103252438Y-68642856D01*
X103252438Y-68642856D02*
X103347676Y-68738094D01*
X103347676Y-68738094D02*
X103442914Y-68785713D01*
X103442914Y-68785713D02*
X103633390Y-68833332D01*
X103633390Y-68833332D02*
X103776247Y-68833332D01*
X103776247Y-68833332D02*
X103966723Y-68785713D01*
X103966723Y-68785713D02*
X104061961Y-68738094D01*
X104061961Y-68738094D02*
X104157200Y-68642856D01*
X104157200Y-68642856D02*
X104204819Y-68499999D01*
X104204819Y-68499999D02*
X104204819Y-68404761D01*
X104204819Y-68404761D02*
X104157200Y-68261904D01*
X104157200Y-68261904D02*
X104109580Y-68214285D01*
X104109580Y-68214285D02*
X103776247Y-68214285D01*
X103776247Y-68214285D02*
X103776247Y-68404761D01*
X104204819Y-67785713D02*
X103204819Y-67785713D01*
X103204819Y-67785713D02*
X104204819Y-67214285D01*
X104204819Y-67214285D02*
X103204819Y-67214285D01*
X104204819Y-66738094D02*
X103204819Y-66738094D01*
X103204819Y-66738094D02*
X103204819Y-66499999D01*
X103204819Y-66499999D02*
X103252438Y-66357142D01*
X103252438Y-66357142D02*
X103347676Y-66261904D01*
X103347676Y-66261904D02*
X103442914Y-66214285D01*
X103442914Y-66214285D02*
X103633390Y-66166666D01*
X103633390Y-66166666D02*
X103776247Y-66166666D01*
X103776247Y-66166666D02*
X103966723Y-66214285D01*
X103966723Y-66214285D02*
X104061961Y-66261904D01*
X104061961Y-66261904D02*
X104157200Y-66357142D01*
X104157200Y-66357142D02*
X104204819Y-66499999D01*
X104204819Y-66499999D02*
X104204819Y-66738094D01*
X86738095Y-109002438D02*
X86642857Y-108954819D01*
X86642857Y-108954819D02*
X86500000Y-108954819D01*
X86500000Y-108954819D02*
X86357143Y-109002438D01*
X86357143Y-109002438D02*
X86261905Y-109097676D01*
X86261905Y-109097676D02*
X86214286Y-109192914D01*
X86214286Y-109192914D02*
X86166667Y-109383390D01*
X86166667Y-109383390D02*
X86166667Y-109526247D01*
X86166667Y-109526247D02*
X86214286Y-109716723D01*
X86214286Y-109716723D02*
X86261905Y-109811961D01*
X86261905Y-109811961D02*
X86357143Y-109907200D01*
X86357143Y-109907200D02*
X86500000Y-109954819D01*
X86500000Y-109954819D02*
X86595238Y-109954819D01*
X86595238Y-109954819D02*
X86738095Y-109907200D01*
X86738095Y-109907200D02*
X86785714Y-109859580D01*
X86785714Y-109859580D02*
X86785714Y-109526247D01*
X86785714Y-109526247D02*
X86595238Y-109526247D01*
X87214286Y-109954819D02*
X87214286Y-108954819D01*
X87214286Y-108954819D02*
X87785714Y-109954819D01*
X87785714Y-109954819D02*
X87785714Y-108954819D01*
X88261905Y-109954819D02*
X88261905Y-108954819D01*
X88261905Y-108954819D02*
X88500000Y-108954819D01*
X88500000Y-108954819D02*
X88642857Y-109002438D01*
X88642857Y-109002438D02*
X88738095Y-109097676D01*
X88738095Y-109097676D02*
X88785714Y-109192914D01*
X88785714Y-109192914D02*
X88833333Y-109383390D01*
X88833333Y-109383390D02*
X88833333Y-109526247D01*
X88833333Y-109526247D02*
X88785714Y-109716723D01*
X88785714Y-109716723D02*
X88738095Y-109811961D01*
X88738095Y-109811961D02*
X88642857Y-109907200D01*
X88642857Y-109907200D02*
X88500000Y-109954819D01*
X88500000Y-109954819D02*
X88261905Y-109954819D01*
D12*
X88200000Y-107500000D02*
G75*
G02*
X86800000Y-107500000I-700000J0D01*
G01*
X86800000Y-107500000D02*
G75*
G02*
X88200000Y-107500000I700000J0D01*
G01*
X140360000Y-109392164D02*
X140360000Y-109607836D01*
X139640000Y-109392164D02*
X139640000Y-109607836D01*
X162892164Y-67140000D02*
X163107836Y-67140000D01*
X162892164Y-67860000D02*
X163107836Y-67860000D01*
X171890000Y-101492164D02*
X171890000Y-101707836D01*
X172610000Y-101492164D02*
X172610000Y-101707836D01*
X109859420Y-110240000D02*
X110140580Y-110240000D01*
X109859420Y-111260000D02*
X110140580Y-111260000D01*
X182140000Y-92607836D02*
X182140000Y-92392164D01*
X182860000Y-92607836D02*
X182860000Y-92392164D01*
X158890000Y-87357836D02*
X158890000Y-87142164D01*
X159610000Y-87357836D02*
X159610000Y-87142164D01*
X174390000Y-110142164D02*
X174390000Y-110357836D01*
X175110000Y-110142164D02*
X175110000Y-110357836D01*
X147357836Y-98390000D02*
X147142164Y-98390000D01*
X147357836Y-99110000D02*
X147142164Y-99110000D01*
X105140000Y-97107836D02*
X105140000Y-96892164D01*
X105860000Y-97107836D02*
X105860000Y-96892164D01*
X163640000Y-81142164D02*
X163640000Y-81357836D01*
X164360000Y-81142164D02*
X164360000Y-81357836D01*
X190107836Y-101390000D02*
X189892164Y-101390000D01*
X190107836Y-102110000D02*
X189892164Y-102110000D01*
X173015000Y-101488748D02*
X173015000Y-102011252D01*
X174485000Y-101488748D02*
X174485000Y-102011252D01*
X176261252Y-104015000D02*
X175738748Y-104015000D01*
X176261252Y-105485000D02*
X175738748Y-105485000D01*
X147357836Y-99390000D02*
X147142164Y-99390000D01*
X147357836Y-100110000D02*
X147142164Y-100110000D01*
X174450000Y-85000000D02*
G75*
G02*
X173050000Y-85000000I-700000J0D01*
G01*
X173050000Y-85000000D02*
G75*
G02*
X174450000Y-85000000I700000J0D01*
G01*
X116892164Y-101640000D02*
X117107836Y-101640000D01*
X116892164Y-102360000D02*
X117107836Y-102360000D01*
X115140000Y-98592164D02*
X115140000Y-98807836D01*
X115860000Y-98592164D02*
X115860000Y-98807836D01*
D13*
X159500000Y-69500000D02*
X159500000Y-75500000D01*
X159500000Y-69500000D02*
X167500000Y-69500000D01*
X159500000Y-75500000D02*
X167500000Y-75500000D01*
X167500000Y-69500000D02*
X167500000Y-75500000D01*
D14*
X165625000Y-68850000D02*
G75*
G02*
X165375000Y-68850000I-125000J0D01*
G01*
X165375000Y-68850000D02*
G75*
G02*
X165625000Y-68850000I125000J0D01*
G01*
D12*
X173107836Y-93890000D02*
X172892164Y-93890000D01*
X173107836Y-94610000D02*
X172892164Y-94610000D01*
X161392164Y-77140000D02*
X161607836Y-77140000D01*
X161392164Y-77860000D02*
X161607836Y-77860000D01*
X174890000Y-101392164D02*
X174890000Y-101607836D01*
X175610000Y-101392164D02*
X175610000Y-101607836D01*
X185000000Y-90940000D02*
X184350000Y-90940000D01*
X185000000Y-90940000D02*
X185650000Y-90940000D01*
X185000000Y-94060000D02*
X184350000Y-94060000D01*
X185000000Y-94060000D02*
X185650000Y-94060000D01*
X183837500Y-90990000D02*
X183597500Y-90660000D01*
X184077500Y-90660000D01*
X183837500Y-90990000D01*
G36*
X183837500Y-90990000D02*
G01*
X183597500Y-90660000D01*
X184077500Y-90660000D01*
X183837500Y-90990000D01*
G37*
X190607836Y-121890000D02*
X190392164Y-121890000D01*
X190607836Y-122610000D02*
X190392164Y-122610000D01*
X176857836Y-131140000D02*
X176642164Y-131140000D01*
X176857836Y-131860000D02*
X176642164Y-131860000D01*
X101515000Y-99738748D02*
X101515000Y-100261252D01*
X102985000Y-99738748D02*
X102985000Y-100261252D01*
X161390000Y-81142164D02*
X161390000Y-81357836D01*
X162110000Y-81142164D02*
X162110000Y-81357836D01*
X107640000Y-110107836D02*
X107640000Y-109892164D01*
X108360000Y-110107836D02*
X108360000Y-109892164D01*
X172892164Y-90890000D02*
X173107836Y-90890000D01*
X172892164Y-91610000D02*
X173107836Y-91610000D01*
X147107836Y-106890000D02*
X146892164Y-106890000D01*
X147107836Y-107610000D02*
X146892164Y-107610000D01*
X171890000Y-105892164D02*
X171890000Y-106107836D01*
X172610000Y-105892164D02*
X172610000Y-106107836D01*
X152140000Y-87107836D02*
X152140000Y-86892164D01*
X152860000Y-87107836D02*
X152860000Y-86892164D01*
X187140000Y-92107836D02*
X187140000Y-91892164D01*
X187860000Y-92107836D02*
X187860000Y-91892164D01*
X182440000Y-100000000D02*
X182440000Y-98050000D01*
X182440000Y-100000000D02*
X182440000Y-101950000D01*
X187560000Y-100000000D02*
X187560000Y-98050000D01*
X187560000Y-100000000D02*
X187560000Y-101950000D01*
X187795000Y-97540000D02*
X187465000Y-97300000D01*
X187795000Y-97060000D01*
X187795000Y-97540000D01*
G36*
X187795000Y-97540000D02*
G01*
X187465000Y-97300000D01*
X187795000Y-97060000D01*
X187795000Y-97540000D01*
G37*
X92200000Y-101000000D02*
G75*
G02*
X90800000Y-101000000I-700000J0D01*
G01*
X90800000Y-101000000D02*
G75*
G02*
X92200000Y-101000000I700000J0D01*
G01*
X116892164Y-105640000D02*
X117107836Y-105640000D01*
X116892164Y-106360000D02*
X117107836Y-106360000D01*
X125700000Y-115000000D02*
G75*
G02*
X124300000Y-115000000I-700000J0D01*
G01*
X124300000Y-115000000D02*
G75*
G02*
X125700000Y-115000000I700000J0D01*
G01*
X184450000Y-107500000D02*
G75*
G02*
X183050000Y-107500000I-700000J0D01*
G01*
X183050000Y-107500000D02*
G75*
G02*
X184450000Y-107500000I700000J0D01*
G01*
X186607836Y-123890000D02*
X186392164Y-123890000D01*
X186607836Y-124610000D02*
X186392164Y-124610000D01*
X75890000Y-98107836D02*
X75890000Y-97892164D01*
X76610000Y-98107836D02*
X76610000Y-97892164D01*
X165890000Y-87357836D02*
X165890000Y-87142164D01*
X166610000Y-87357836D02*
X166610000Y-87142164D01*
X177392164Y-96890000D02*
X177607836Y-96890000D01*
X177392164Y-97610000D02*
X177607836Y-97610000D01*
X108140000Y-93857836D02*
X108140000Y-93642164D01*
X108860000Y-93857836D02*
X108860000Y-93642164D01*
X110237258Y-108727500D02*
X109762742Y-108727500D01*
X110237258Y-109772500D02*
X109762742Y-109772500D01*
X80857836Y-104140000D02*
X80642164Y-104140000D01*
X80857836Y-104860000D02*
X80642164Y-104860000D01*
X94870000Y-72405000D02*
X105150000Y-72405000D01*
X94870000Y-75005000D02*
X94870000Y-72405000D01*
X94870000Y-77605000D02*
X94870000Y-76275000D01*
X96200000Y-77605000D02*
X94870000Y-77605000D01*
X97470000Y-75005000D02*
X94870000Y-75005000D01*
X97470000Y-77605000D02*
X97470000Y-75005000D01*
X97470000Y-77605000D02*
X105150000Y-77605000D01*
X105150000Y-77605000D02*
X105150000Y-72405000D01*
X155890000Y-112642164D02*
X155890000Y-112857836D01*
X156610000Y-112642164D02*
X156610000Y-112857836D01*
X161950000Y-120000000D02*
G75*
G02*
X160550000Y-120000000I-700000J0D01*
G01*
X160550000Y-120000000D02*
G75*
G02*
X161950000Y-120000000I700000J0D01*
G01*
X194475000Y-104580001D02*
X196395000Y-104580001D01*
X196395000Y-95419999D02*
X194475000Y-95419999D01*
X161392164Y-76140000D02*
X161607836Y-76140000D01*
X161392164Y-76860000D02*
X161607836Y-76860000D01*
X88200000Y-99500000D02*
G75*
G02*
X86800000Y-99500000I-700000J0D01*
G01*
X86800000Y-99500000D02*
G75*
G02*
X88200000Y-99500000I700000J0D01*
G01*
X167640000Y-113142164D02*
X167640000Y-113357836D01*
X168360000Y-113142164D02*
X168360000Y-113357836D01*
X116892164Y-95140000D02*
X117107836Y-95140000D01*
X116892164Y-95860000D02*
X117107836Y-95860000D01*
X84892164Y-99140000D02*
X85107836Y-99140000D01*
X84892164Y-99860000D02*
X85107836Y-99860000D01*
X186392164Y-120390000D02*
X186607836Y-120390000D01*
X186392164Y-121110000D02*
X186607836Y-121110000D01*
X181607836Y-110140000D02*
X181392164Y-110140000D01*
X181607836Y-110860000D02*
X181392164Y-110860000D01*
X186950000Y-107500000D02*
G75*
G02*
X185550000Y-107500000I-700000J0D01*
G01*
X185550000Y-107500000D02*
G75*
G02*
X186950000Y-107500000I700000J0D01*
G01*
X147107836Y-107890000D02*
X146892164Y-107890000D01*
X147107836Y-108610000D02*
X146892164Y-108610000D01*
X81261252Y-106265000D02*
X80738748Y-106265000D01*
X81261252Y-107735000D02*
X80738748Y-107735000D01*
X171890000Y-103342164D02*
X171890000Y-103557836D01*
X172610000Y-103342164D02*
X172610000Y-103557836D01*
X103640000Y-99892164D02*
X103640000Y-100107836D01*
X104360000Y-99892164D02*
X104360000Y-100107836D01*
X116892164Y-94140000D02*
X117107836Y-94140000D01*
X116892164Y-94860000D02*
X117107836Y-94860000D01*
X116892164Y-93140000D02*
X117107836Y-93140000D01*
X116892164Y-93860000D02*
X117107836Y-93860000D01*
X175500000Y-93350000D02*
X175500000Y-96650000D01*
X175500000Y-96650000D02*
X179500000Y-96650000D01*
X187890000Y-98857836D02*
X187890000Y-98642164D01*
X188610000Y-98857836D02*
X188610000Y-98642164D01*
X163977500Y-117012742D02*
X163977500Y-117487258D01*
X165022500Y-117012742D02*
X165022500Y-117487258D01*
X168750000Y-132100000D02*
X170110000Y-132100000D01*
X168750000Y-132900000D02*
X170110000Y-132900000D01*
X170110000Y-132900000D02*
X170110000Y-132100000D01*
X157390000Y-81142164D02*
X157390000Y-81357836D01*
X158110000Y-81142164D02*
X158110000Y-81357836D01*
X100107836Y-69640000D02*
X99892164Y-69640000D01*
X100107836Y-70360000D02*
X99892164Y-70360000D01*
X153140000Y-87107836D02*
X153140000Y-86892164D01*
X153860000Y-87107836D02*
X153860000Y-86892164D01*
X104140000Y-102857836D02*
X104140000Y-102642164D01*
X104860000Y-102857836D02*
X104860000Y-102642164D01*
X141330000Y-116330000D02*
X140000000Y-116330000D01*
X141330000Y-115000000D02*
X141330000Y-116330000D01*
X141330000Y-113730000D02*
X141330000Y-111130000D01*
X141330000Y-113730000D02*
X138670000Y-113730000D01*
X141330000Y-111130000D02*
X138670000Y-111130000D01*
X138670000Y-113730000D02*
X138670000Y-111130000D01*
X186607836Y-124890000D02*
X186392164Y-124890000D01*
X186607836Y-125610000D02*
X186392164Y-125610000D01*
X188100000Y-122750000D02*
X188100000Y-121390000D01*
X188900000Y-121390000D02*
X188100000Y-121390000D01*
X188900000Y-122750000D02*
X188900000Y-121390000D01*
X172892164Y-91890000D02*
X173107836Y-91890000D01*
X172892164Y-92610000D02*
X173107836Y-92610000D01*
X172892164Y-89890000D02*
X173107836Y-89890000D01*
X172892164Y-90610000D02*
X173107836Y-90610000D01*
X157227500Y-117012742D02*
X157227500Y-117487258D01*
X158272500Y-117012742D02*
X158272500Y-117487258D01*
X149890000Y-89890000D02*
X149890000Y-90840000D01*
X149890000Y-110110000D02*
X149890000Y-109160000D01*
X150840000Y-89890000D02*
X149890000Y-89890000D01*
X150840000Y-110110000D02*
X149890000Y-110110000D01*
X169160000Y-89890000D02*
X170110000Y-89890000D01*
X169160000Y-110110000D02*
X170110000Y-110110000D01*
X170110000Y-89890000D02*
X170110000Y-90840000D01*
X170110000Y-110110000D02*
X170110000Y-109160000D01*
X171040000Y-109630000D02*
X170360000Y-109630000D01*
X170700000Y-109160000D01*
X171040000Y-109630000D01*
G36*
X171040000Y-109630000D02*
G01*
X170360000Y-109630000D01*
X170700000Y-109160000D01*
X171040000Y-109630000D01*
G37*
X166640000Y-113357836D02*
X166640000Y-113142164D01*
X167360000Y-113357836D02*
X167360000Y-113142164D01*
X156390000Y-81142164D02*
X156390000Y-81357836D01*
X157110000Y-81142164D02*
X157110000Y-81357836D01*
X190607836Y-122890000D02*
X190392164Y-122890000D01*
X190607836Y-123610000D02*
X190392164Y-123610000D01*
X176261252Y-106015000D02*
X175738748Y-106015000D01*
X176261252Y-107485000D02*
X175738748Y-107485000D01*
X100357836Y-95140000D02*
X100142164Y-95140000D01*
X100357836Y-95860000D02*
X100142164Y-95860000D01*
X164390000Y-87357836D02*
X164390000Y-87142164D01*
X165110000Y-87357836D02*
X165110000Y-87142164D01*
X159390000Y-81142164D02*
X159390000Y-81357836D01*
X160110000Y-81142164D02*
X160110000Y-81357836D01*
X164450000Y-120000000D02*
G75*
G02*
X163050000Y-120000000I-700000J0D01*
G01*
X163050000Y-120000000D02*
G75*
G02*
X164450000Y-120000000I700000J0D01*
G01*
X162892164Y-68140000D02*
X163107836Y-68140000D01*
X162892164Y-68860000D02*
X163107836Y-68860000D01*
X161890000Y-112642164D02*
X161890000Y-112857836D01*
X162610000Y-112642164D02*
X162610000Y-112857836D01*
X168640000Y-113142164D02*
X168640000Y-113357836D01*
X169360000Y-113142164D02*
X169360000Y-113357836D01*
X103265000Y-95011252D02*
X103265000Y-94488748D01*
X104735000Y-95011252D02*
X104735000Y-94488748D01*
X107690000Y-95040000D02*
X107690000Y-95315000D01*
X107690000Y-104960000D02*
X107690000Y-104685000D01*
X110000000Y-95040000D02*
X107690000Y-95040000D01*
X110000000Y-95040000D02*
X112310000Y-95040000D01*
X110000000Y-104960000D02*
X107690000Y-104960000D01*
X110000000Y-104960000D02*
X112310000Y-104960000D01*
X112310000Y-95040000D02*
X112310000Y-95315000D01*
X112310000Y-104960000D02*
X112310000Y-104685000D01*
X107100000Y-95315000D02*
X106860000Y-94985000D01*
X107340000Y-94985000D01*
X107100000Y-95315000D01*
G36*
X107100000Y-95315000D02*
G01*
X106860000Y-94985000D01*
X107340000Y-94985000D01*
X107100000Y-95315000D01*
G37*
X147357836Y-100390000D02*
X147142164Y-100390000D01*
X147357836Y-101110000D02*
X147142164Y-101110000D01*
X166890000Y-81357836D02*
X166890000Y-81142164D01*
X167610000Y-81357836D02*
X167610000Y-81142164D01*
X174390000Y-112357836D02*
X174390000Y-112142164D01*
X175110000Y-112357836D02*
X175110000Y-112142164D01*
X114140000Y-98592164D02*
X114140000Y-98807836D01*
X114860000Y-98592164D02*
X114860000Y-98807836D01*
X116892164Y-100640000D02*
X117107836Y-100640000D01*
X116892164Y-101360000D02*
X117107836Y-101360000D01*
X172892164Y-92890000D02*
X173107836Y-92890000D01*
X172892164Y-93610000D02*
X173107836Y-93610000D01*
X116892164Y-96140000D02*
X117107836Y-96140000D01*
X116892164Y-96860000D02*
X117107836Y-96860000D01*
X164640000Y-76892164D02*
X164640000Y-77107836D01*
X165360000Y-76892164D02*
X165360000Y-77107836D01*
X151140000Y-87107836D02*
X151140000Y-86892164D01*
X151860000Y-87107836D02*
X151860000Y-86892164D01*
X174357836Y-131140000D02*
X174142164Y-131140000D01*
X174357836Y-131860000D02*
X174142164Y-131860000D01*
X173750000Y-132100000D02*
X175110000Y-132100000D01*
X173750000Y-132900000D02*
X175110000Y-132900000D01*
X175110000Y-132900000D02*
X175110000Y-132100000D01*
X116892164Y-106640000D02*
X117107836Y-106640000D01*
X116892164Y-107360000D02*
X117107836Y-107360000D01*
X102607836Y-69640000D02*
X102392164Y-69640000D01*
X102607836Y-70360000D02*
X102392164Y-70360000D01*
X176140000Y-102011252D02*
X176140000Y-101488748D01*
X178360000Y-102011252D02*
X178360000Y-101488748D01*
X176250000Y-132100000D02*
X177610000Y-132100000D01*
X176250000Y-132900000D02*
X177610000Y-132900000D01*
X177610000Y-132900000D02*
X177610000Y-132100000D01*
X162640000Y-81142164D02*
X162640000Y-81357836D01*
X163360000Y-81142164D02*
X163360000Y-81357836D01*
X181250000Y-132100000D02*
X182610000Y-132100000D01*
X181250000Y-132900000D02*
X182610000Y-132900000D01*
X182610000Y-132900000D02*
X182610000Y-132100000D01*
X97607836Y-69640000D02*
X97392164Y-69640000D01*
X97607836Y-70360000D02*
X97392164Y-70360000D01*
X194475000Y-129580001D02*
X196395000Y-129580001D01*
X196395000Y-120419999D02*
X194475000Y-120419999D01*
X160890000Y-112642164D02*
X160890000Y-112857836D01*
X161610000Y-112642164D02*
X161610000Y-112857836D01*
X190700000Y-92500000D02*
G75*
G02*
X189300000Y-92500000I-700000J0D01*
G01*
X189300000Y-92500000D02*
G75*
G02*
X190700000Y-92500000I700000J0D01*
G01*
X103640000Y-97892164D02*
X103640000Y-98107836D01*
X104360000Y-97892164D02*
X104360000Y-98107836D01*
X99890000Y-101357836D02*
X99890000Y-101142164D01*
X100610000Y-101357836D02*
X100610000Y-101142164D01*
X179357836Y-131140000D02*
X179142164Y-131140000D01*
X179357836Y-131860000D02*
X179142164Y-131860000D01*
X116892164Y-92140000D02*
X117107836Y-92140000D01*
X116892164Y-92860000D02*
X117107836Y-92860000D01*
X74890000Y-99142164D02*
X74890000Y-99357836D01*
X75610000Y-99142164D02*
X75610000Y-99357836D01*
X109600378Y-111940000D02*
X110399622Y-111940000D01*
X109600378Y-113060000D02*
X110399622Y-113060000D01*
X190607836Y-125890000D02*
X190392164Y-125890000D01*
X190607836Y-126610000D02*
X190392164Y-126610000D01*
X80857836Y-105140000D02*
X80642164Y-105140000D01*
X80857836Y-105860000D02*
X80642164Y-105860000D01*
X169357836Y-131140000D02*
X169142164Y-131140000D01*
X169357836Y-131860000D02*
X169142164Y-131860000D01*
X172125000Y-111925001D02*
X172125000Y-110574999D01*
X173875000Y-111925001D02*
X173875000Y-110574999D01*
X158390000Y-81142164D02*
X158390000Y-81357836D01*
X159110000Y-81142164D02*
X159110000Y-81357836D01*
X107140000Y-107392164D02*
X107140000Y-107607836D01*
X107860000Y-107392164D02*
X107860000Y-107607836D01*
X181607836Y-109140000D02*
X181392164Y-109140000D01*
X181607836Y-109860000D02*
X181392164Y-109860000D01*
X186607836Y-121390000D02*
X186392164Y-121390000D01*
X186607836Y-122110000D02*
X186392164Y-122110000D01*
X77440000Y-100000000D02*
X77440000Y-98050000D01*
X77440000Y-100000000D02*
X77440000Y-101950000D01*
X82560000Y-100000000D02*
X82560000Y-98050000D01*
X82560000Y-100000000D02*
X82560000Y-101950000D01*
X77535000Y-102700000D02*
X77205000Y-102940000D01*
X77205000Y-102460000D01*
X77535000Y-102700000D01*
G36*
X77535000Y-102700000D02*
G01*
X77205000Y-102940000D01*
X77205000Y-102460000D01*
X77535000Y-102700000D01*
G37*
X174390000Y-95642164D02*
X174390000Y-95857836D01*
X175110000Y-95642164D02*
X175110000Y-95857836D01*
X186607836Y-125890000D02*
X186392164Y-125890000D01*
X186607836Y-126610000D02*
X186392164Y-126610000D01*
X188100000Y-125000000D02*
X188100000Y-126360000D01*
X188100000Y-126360000D02*
X188900000Y-126360000D01*
X188900000Y-125000000D02*
X188900000Y-126360000D01*
X180990000Y-100140580D02*
X180990000Y-99859420D01*
X182010000Y-100140580D02*
X182010000Y-99859420D01*
X167890000Y-81142164D02*
X167890000Y-81357836D01*
X168610000Y-81142164D02*
X168610000Y-81357836D01*
X171890000Y-99642164D02*
X171890000Y-99857836D01*
X172610000Y-99642164D02*
X172610000Y-99857836D01*
X190107836Y-97890000D02*
X189892164Y-97890000D01*
X190107836Y-98610000D02*
X189892164Y-98610000D01*
X164140000Y-68107836D02*
X164140000Y-67892164D01*
X164860000Y-68107836D02*
X164860000Y-67892164D01*
X101490000Y-95859420D02*
X101490000Y-96140580D01*
X102510000Y-95859420D02*
X102510000Y-96140580D01*
X128670000Y-81170000D02*
X130000000Y-81170000D01*
X128670000Y-82500000D02*
X128670000Y-81170000D01*
X128670000Y-83770000D02*
X128670000Y-116850000D01*
X128670000Y-83770000D02*
X131270000Y-83770000D01*
X128670000Y-116850000D02*
X133870000Y-116850000D01*
X131270000Y-81170000D02*
X133870000Y-81170000D01*
X131270000Y-83770000D02*
X131270000Y-81170000D01*
X133870000Y-81170000D02*
X133870000Y-116850000D01*
X116892164Y-104640000D02*
X117107836Y-104640000D01*
X116892164Y-105360000D02*
X117107836Y-105360000D01*
X160390000Y-81142164D02*
X160390000Y-81357836D01*
X161110000Y-81142164D02*
X161110000Y-81357836D01*
X116265000Y-98488748D02*
X116265000Y-99011252D01*
X117735000Y-98488748D02*
X117735000Y-99011252D01*
X116892164Y-107640000D02*
X117107836Y-107640000D01*
X116892164Y-108360000D02*
X117107836Y-108360000D01*
X101515000Y-104761252D02*
X101515000Y-104238748D01*
X102985000Y-104761252D02*
X102985000Y-104238748D01*
X181857836Y-131140000D02*
X181642164Y-131140000D01*
X181857836Y-131860000D02*
X181642164Y-131860000D01*
X84892164Y-100140000D02*
X85107836Y-100140000D01*
X84892164Y-100860000D02*
X85107836Y-100860000D01*
X104640000Y-99892164D02*
X104640000Y-100107836D01*
X105360000Y-99892164D02*
X105360000Y-100107836D01*
X147357836Y-93890000D02*
X147142164Y-93890000D01*
X147357836Y-94610000D02*
X147142164Y-94610000D01*
X116892164Y-102640000D02*
X117107836Y-102640000D01*
X116892164Y-103360000D02*
X117107836Y-103360000D01*
X99890000Y-103142164D02*
X99890000Y-103357836D01*
X100610000Y-103142164D02*
X100610000Y-103357836D01*
X178750000Y-132100000D02*
X180110000Y-132100000D01*
X178750000Y-132900000D02*
X180110000Y-132900000D01*
X180110000Y-132900000D02*
X180110000Y-132100000D01*
X164795000Y-136330000D02*
X164795000Y-135000000D01*
X166125000Y-136330000D02*
X164795000Y-136330000D01*
X167395000Y-133670000D02*
X185235000Y-133670000D01*
X167395000Y-136330000D02*
X167395000Y-133670000D01*
X167395000Y-136330000D02*
X185235000Y-136330000D01*
X185235000Y-136330000D02*
X185235000Y-133670000D01*
X177607836Y-92390000D02*
X177392164Y-92390000D01*
X177607836Y-93110000D02*
X177392164Y-93110000D01*
X171950000Y-85000000D02*
G75*
G02*
X170550000Y-85000000I-700000J0D01*
G01*
X170550000Y-85000000D02*
G75*
G02*
X171950000Y-85000000I700000J0D01*
G01*
X105140000Y-102857836D02*
X105140000Y-102642164D01*
X105860000Y-102857836D02*
X105860000Y-102642164D01*
X74890000Y-101142164D02*
X74890000Y-101357836D01*
X75610000Y-101142164D02*
X75610000Y-101357836D01*
X187890000Y-101142164D02*
X187890000Y-101357836D01*
X188610000Y-101142164D02*
X188610000Y-101357836D01*
X138595000Y-136330000D02*
X138595000Y-135000000D01*
X139925000Y-136330000D02*
X138595000Y-136330000D01*
X141195000Y-133670000D02*
X151415000Y-133670000D01*
X141195000Y-136330000D02*
X141195000Y-133670000D01*
X141195000Y-136330000D02*
X151415000Y-136330000D01*
X151415000Y-136330000D02*
X151415000Y-133670000D01*
X155390000Y-81357836D02*
X155390000Y-81142164D01*
X156110000Y-81357836D02*
X156110000Y-81142164D01*
X75890000Y-96107836D02*
X75890000Y-95892164D01*
X76610000Y-96107836D02*
X76610000Y-95892164D01*
X165640000Y-113142164D02*
X165640000Y-113357836D01*
X166360000Y-113142164D02*
X166360000Y-113357836D01*
X156450000Y-118500000D02*
G75*
G02*
X155050000Y-118500000I-700000J0D01*
G01*
X155050000Y-118500000D02*
G75*
G02*
X156450000Y-118500000I700000J0D01*
G01*
X75890000Y-101357836D02*
X75890000Y-101142164D01*
X76610000Y-101357836D02*
X76610000Y-101142164D01*
X188100000Y-124500000D02*
X188100000Y-123140000D01*
X188900000Y-123140000D02*
X188100000Y-123140000D01*
X188900000Y-124500000D02*
X188900000Y-123140000D01*
X78890000Y-104642164D02*
X78890000Y-104857836D01*
X79610000Y-104642164D02*
X79610000Y-104857836D01*
X188850000Y-100750000D02*
X188850000Y-99390000D01*
X189650000Y-99390000D02*
X188850000Y-99390000D01*
X189650000Y-100750000D02*
X189650000Y-99390000D01*
X116892164Y-103640000D02*
X117107836Y-103640000D01*
X116892164Y-104360000D02*
X117107836Y-104360000D01*
X100357836Y-96140000D02*
X100142164Y-96140000D01*
X100357836Y-96860000D02*
X100142164Y-96860000D01*
X169640000Y-112642164D02*
X169640000Y-112857836D01*
X170360000Y-112642164D02*
X170360000Y-112857836D01*
X189850000Y-99250000D02*
X189850000Y-100610000D01*
X189850000Y-100610000D02*
X190650000Y-100610000D01*
X190650000Y-99250000D02*
X190650000Y-100610000D01*
X68200000Y-100000000D02*
G75*
G02*
X66800000Y-100000000I-700000J0D01*
G01*
X66800000Y-100000000D02*
G75*
G02*
X68200000Y-100000000I700000J0D01*
G01*
X172892164Y-94890000D02*
X173107836Y-94890000D01*
X172892164Y-95610000D02*
X173107836Y-95610000D01*
X147107836Y-105890000D02*
X146892164Y-105890000D01*
X147107836Y-106610000D02*
X146892164Y-106610000D01*
X56645000Y-98550000D02*
X56645000Y-101450000D01*
X58550000Y-96645000D02*
X61450000Y-96645000D01*
X58550000Y-103355000D02*
X61450000Y-103355000D01*
X63355000Y-98550000D02*
X63355000Y-101450000D01*
X107140000Y-75107836D02*
X107140000Y-74892164D01*
X107860000Y-75107836D02*
X107860000Y-74892164D01*
X186392164Y-122390000D02*
X186607836Y-122390000D01*
X186392164Y-123110000D02*
X186607836Y-123110000D01*
%LPC*%
D15*
X87500000Y-107500000D03*
D16*
X140000000Y-109000000D03*
X140000000Y-110000000D03*
D17*
X162500000Y-67500000D03*
X163500000Y-67500000D03*
D16*
X172250000Y-101100000D03*
X172250000Y-102100000D03*
D18*
X109275000Y-110750000D03*
X110725000Y-110750000D03*
D19*
X182500000Y-93000000D03*
X182500000Y-92000000D03*
X159250000Y-87750000D03*
X159250000Y-86750000D03*
D16*
X174750000Y-109750000D03*
X174750000Y-110750000D03*
D20*
X147750000Y-98750000D03*
X146750000Y-98750000D03*
D19*
X105500000Y-97500000D03*
X105500000Y-96500000D03*
D16*
X164000000Y-80750000D03*
X164000000Y-81750000D03*
D20*
X190500000Y-101750000D03*
X189500000Y-101750000D03*
D21*
X173750000Y-100800000D03*
X173750000Y-102700000D03*
D22*
X176950000Y-104750000D03*
X175050000Y-104750000D03*
D20*
X147750000Y-99750000D03*
X146750000Y-99750000D03*
D15*
X173750000Y-85000000D03*
D17*
X116500000Y-102000000D03*
X117500000Y-102000000D03*
D16*
X115500000Y-98200000D03*
X115500000Y-99200000D03*
D23*
X165500000Y-71500000D03*
X165500000Y-72500000D03*
X165500000Y-73500000D03*
X165500000Y-74500000D03*
X164500000Y-70500000D03*
X164500000Y-71500000D03*
X164500000Y-72500000D03*
X164500000Y-73500000D03*
X164500000Y-74500000D03*
X163500000Y-70500000D03*
X163500000Y-71500000D03*
X163500000Y-72500000D03*
X163500000Y-73500000D03*
X163500000Y-74500000D03*
X162500000Y-70500000D03*
X162500000Y-71500000D03*
X162500000Y-72500000D03*
X162500000Y-73500000D03*
X162500000Y-74500000D03*
X161500000Y-70500000D03*
X161500000Y-71500000D03*
X161500000Y-72500000D03*
X161500000Y-73500000D03*
X161500000Y-74500000D03*
D20*
X173500000Y-94250000D03*
X172500000Y-94250000D03*
D17*
X161000000Y-77500000D03*
X162000000Y-77500000D03*
D16*
X175250000Y-101000000D03*
X175250000Y-102000000D03*
D24*
X184062500Y-91550000D03*
X184062500Y-93450000D03*
X185937500Y-92500000D03*
D20*
X191000000Y-122250000D03*
X190000000Y-122250000D03*
X177250000Y-131500000D03*
X176250000Y-131500000D03*
D21*
X102250000Y-99050000D03*
X102250000Y-100950000D03*
D16*
X161750000Y-80750000D03*
X161750000Y-81750000D03*
D19*
X108000000Y-110500000D03*
X108000000Y-109500000D03*
D17*
X172500000Y-91250000D03*
X173500000Y-91250000D03*
D20*
X147500000Y-107250000D03*
X146500000Y-107250000D03*
D16*
X172250000Y-105500000D03*
X172250000Y-106500000D03*
D19*
X152500000Y-87500000D03*
X152500000Y-86500000D03*
X187500000Y-92500000D03*
X187500000Y-91500000D03*
D25*
X186905000Y-97375000D03*
X185635000Y-97375000D03*
X184365000Y-97375000D03*
X183095000Y-97375000D03*
X183095000Y-102625000D03*
X184365000Y-102625000D03*
X185635000Y-102625000D03*
X186905000Y-102625000D03*
D15*
X91500000Y-101000000D03*
D17*
X116500000Y-106000000D03*
X117500000Y-106000000D03*
D15*
X125000000Y-115000000D03*
X183750000Y-107500000D03*
D20*
X187000000Y-124250000D03*
X186000000Y-124250000D03*
D19*
X76250000Y-98500000D03*
X76250000Y-97500000D03*
X166250000Y-87750000D03*
X166250000Y-86750000D03*
D17*
X177000000Y-97250000D03*
X178000000Y-97250000D03*
D19*
X108500000Y-94250000D03*
X108500000Y-93250000D03*
D26*
X110825000Y-109250000D03*
X109175000Y-109250000D03*
D20*
X81250000Y-104500000D03*
X80250000Y-104500000D03*
D27*
X96200000Y-76275000D03*
D28*
X96200000Y-73735000D03*
X98740000Y-76275000D03*
X98740000Y-73735000D03*
X101280000Y-76275000D03*
X101280000Y-73735000D03*
X103820000Y-76275000D03*
X103820000Y-73735000D03*
D16*
X156250000Y-112250000D03*
X156250000Y-113250000D03*
D15*
X161250000Y-120000000D03*
D29*
X193720000Y-102890000D03*
X193720000Y-97110000D03*
D30*
X192655000Y-103350000D03*
X192655000Y-102550000D03*
X192655001Y-101250000D03*
X192655000Y-100250000D03*
X192655000Y-99750000D03*
X192655001Y-98750000D03*
X192655000Y-97450000D03*
X192655000Y-96650000D03*
X192655000Y-96950000D03*
X192655000Y-97750000D03*
X192655000Y-98250000D03*
X192655000Y-99250000D03*
X192655000Y-100750000D03*
X192655000Y-101750000D03*
X192655000Y-102250000D03*
X192655000Y-103050000D03*
D31*
X193220000Y-104320000D03*
D32*
X197400000Y-104320000D03*
D31*
X193220000Y-95680000D03*
D32*
X197400000Y-95680000D03*
D17*
X161000000Y-76500000D03*
X162000000Y-76500000D03*
D15*
X87500000Y-99500000D03*
D16*
X168000000Y-112750000D03*
X168000000Y-113750000D03*
D17*
X116500000Y-95500000D03*
X117500000Y-95500000D03*
X84500000Y-99500000D03*
X85500000Y-99500000D03*
X186000000Y-120750000D03*
X187000000Y-120750000D03*
D20*
X182000000Y-110500000D03*
X181000000Y-110500000D03*
D15*
X186250000Y-107500000D03*
D20*
X147500000Y-108250000D03*
X146500000Y-108250000D03*
D22*
X81950000Y-107000000D03*
X80050000Y-107000000D03*
D16*
X172250000Y-102950000D03*
X172250000Y-103950000D03*
X104000000Y-99500000D03*
X104000000Y-100500000D03*
D17*
X116500000Y-94500000D03*
X117500000Y-94500000D03*
X116500000Y-93500000D03*
X117500000Y-93500000D03*
D33*
X176400000Y-95850000D03*
X178600000Y-95850000D03*
X178600000Y-94150000D03*
X176400000Y-94150000D03*
D19*
X188250000Y-99250000D03*
X188250000Y-98250000D03*
D34*
X164500000Y-116425000D03*
X164500000Y-118075000D03*
D35*
X169670000Y-132500000D03*
X168830000Y-132500000D03*
D16*
X157750000Y-80750000D03*
X157750000Y-81750000D03*
D20*
X100500000Y-70000000D03*
X99500000Y-70000000D03*
D19*
X153500000Y-87500000D03*
X153500000Y-86500000D03*
X104500000Y-103250000D03*
X104500000Y-102250000D03*
D27*
X140000000Y-115000000D03*
D28*
X140000000Y-112460000D03*
D20*
X187000000Y-125250000D03*
X186000000Y-125250000D03*
D36*
X188500000Y-121830000D03*
X188500000Y-122670000D03*
D17*
X172500000Y-92250000D03*
X173500000Y-92250000D03*
X172500000Y-90250000D03*
X173500000Y-90250000D03*
D34*
X157750000Y-116425000D03*
X157750000Y-118075000D03*
D37*
X170662500Y-108750000D03*
X170662500Y-108250000D03*
X170662500Y-107750000D03*
X170662500Y-107250000D03*
X170662500Y-106750000D03*
X170662500Y-106250000D03*
X170662500Y-105750000D03*
X170662500Y-105250000D03*
X170662500Y-104750000D03*
X170662500Y-104250000D03*
X170662500Y-103750000D03*
X170662500Y-103250000D03*
X170662500Y-102750000D03*
X170662500Y-102250000D03*
X170662500Y-101750000D03*
X170662500Y-101250000D03*
X170662500Y-100750000D03*
X170662500Y-100250000D03*
X170662500Y-99750000D03*
X170662500Y-99250000D03*
X170662500Y-98750000D03*
X170662500Y-98250000D03*
X170662500Y-97750000D03*
X170662500Y-97250000D03*
X170662500Y-96750000D03*
X170662500Y-96250000D03*
X170662500Y-95750000D03*
X170662500Y-95250000D03*
X170662500Y-94750000D03*
X170662500Y-94250000D03*
X170662500Y-93750000D03*
X170662500Y-93250000D03*
X170662500Y-92750000D03*
X170662500Y-92250000D03*
X170662500Y-91750000D03*
X170662500Y-91250000D03*
D38*
X168750000Y-89337500D03*
X168250000Y-89337500D03*
X167750000Y-89337500D03*
X167250000Y-89337500D03*
X166750000Y-89337500D03*
X166250000Y-89337500D03*
X165750000Y-89337500D03*
X165250000Y-89337500D03*
X164750000Y-89337500D03*
X164250000Y-89337500D03*
X163750000Y-89337500D03*
X163250000Y-89337500D03*
X162750000Y-89337500D03*
X162250000Y-89337500D03*
X161750000Y-89337500D03*
X161250000Y-89337500D03*
X160750000Y-89337500D03*
X160250000Y-89337500D03*
X159750000Y-89337500D03*
X159250000Y-89337500D03*
X158750000Y-89337500D03*
X158250000Y-89337500D03*
X157750000Y-89337500D03*
X157250000Y-89337500D03*
X156750000Y-89337500D03*
X156250000Y-89337500D03*
X155750000Y-89337500D03*
X155250000Y-89337500D03*
X154750000Y-89337500D03*
X154250000Y-89337500D03*
X153750000Y-89337500D03*
X153250000Y-89337500D03*
X152750000Y-89337500D03*
X152250000Y-89337500D03*
X151750000Y-89337500D03*
X151250000Y-89337500D03*
D37*
X149337500Y-91250000D03*
X149337500Y-91750000D03*
X149337500Y-92250000D03*
X149337500Y-92750000D03*
X149337500Y-93250000D03*
X149337500Y-93750000D03*
X149337500Y-94250000D03*
X149337500Y-94750000D03*
X149337500Y-95250000D03*
X149337500Y-95750000D03*
X149337500Y-96250000D03*
X149337500Y-96750000D03*
X149337500Y-97250000D03*
X149337500Y-97750000D03*
X149337500Y-98250000D03*
X149337500Y-98750000D03*
X149337500Y-99250000D03*
X149337500Y-99750000D03*
X149337500Y-100250000D03*
X149337500Y-100750000D03*
X149337500Y-101250000D03*
X149337500Y-101750000D03*
X149337500Y-102250000D03*
X149337500Y-102750000D03*
X149337500Y-103250000D03*
X149337500Y-103750000D03*
X149337500Y-104250000D03*
X149337500Y-104750000D03*
X149337500Y-105250000D03*
X149337500Y-105750000D03*
X149337500Y-106250000D03*
X149337500Y-106750000D03*
X149337500Y-107250000D03*
X149337500Y-107750000D03*
X149337500Y-108250000D03*
X149337500Y-108750000D03*
D38*
X151250000Y-110662500D03*
X151750000Y-110662500D03*
X152250000Y-110662500D03*
X152750000Y-110662500D03*
X153250000Y-110662500D03*
X153750000Y-110662500D03*
X154250000Y-110662500D03*
X154750000Y-110662500D03*
X155250000Y-110662500D03*
X155750000Y-110662500D03*
X156250000Y-110662500D03*
X156750000Y-110662500D03*
X157250000Y-110662500D03*
X157750000Y-110662500D03*
X158250000Y-110662500D03*
X158750000Y-110662500D03*
X159250000Y-110662500D03*
X159750000Y-110662500D03*
X160250000Y-110662500D03*
X160750000Y-110662500D03*
X161250000Y-110662500D03*
X161750000Y-110662500D03*
X162250000Y-110662500D03*
X162750000Y-110662500D03*
X163250000Y-110662500D03*
X163750000Y-110662500D03*
X164250000Y-110662500D03*
X164750000Y-110662500D03*
X165250000Y-110662500D03*
X165750000Y-110662500D03*
X166250000Y-110662500D03*
X166750000Y-110662500D03*
X167250000Y-110662500D03*
X167750000Y-110662500D03*
X168250000Y-110662500D03*
X168750000Y-110662500D03*
D19*
X167000000Y-113750000D03*
X167000000Y-112750000D03*
D16*
X156750000Y-80750000D03*
X156750000Y-81750000D03*
D20*
X191000000Y-123250000D03*
X190000000Y-123250000D03*
D22*
X176950000Y-106750000D03*
X175050000Y-106750000D03*
D20*
X100750000Y-95500000D03*
X99750000Y-95500000D03*
D19*
X164750000Y-87750000D03*
X164750000Y-86750000D03*
D16*
X159750000Y-80750000D03*
X159750000Y-81750000D03*
D15*
X163750000Y-120000000D03*
D17*
X162500000Y-68500000D03*
X163500000Y-68500000D03*
D16*
X162250000Y-112250000D03*
X162250000Y-113250000D03*
X169000000Y-112750000D03*
X169000000Y-113750000D03*
D39*
X104000000Y-95700000D03*
X104000000Y-93800000D03*
D40*
X107137500Y-95775000D03*
X107137500Y-96425000D03*
X107137500Y-97075000D03*
X107137500Y-97725000D03*
X107137500Y-98375000D03*
X107137500Y-99025000D03*
X107137500Y-99675000D03*
X107137500Y-100325000D03*
X107137500Y-100975000D03*
X107137500Y-101625000D03*
X107137500Y-102275000D03*
X107137500Y-102925000D03*
X107137500Y-103575000D03*
X107137500Y-104225000D03*
X112862500Y-104225000D03*
X112862500Y-103575000D03*
X112862500Y-102925000D03*
X112862500Y-102275000D03*
X112862500Y-101625000D03*
X112862500Y-100975000D03*
X112862500Y-100325000D03*
X112862500Y-99675000D03*
X112862500Y-99025000D03*
X112862500Y-98375000D03*
X112862500Y-97725000D03*
X112862500Y-97075000D03*
X112862500Y-96425000D03*
X112862500Y-95775000D03*
D20*
X147750000Y-100750000D03*
X146750000Y-100750000D03*
D19*
X167250000Y-81750000D03*
X167250000Y-80750000D03*
X174750000Y-112750000D03*
X174750000Y-111750000D03*
D16*
X114500000Y-98200000D03*
X114500000Y-99200000D03*
D17*
X116500000Y-101000000D03*
X117500000Y-101000000D03*
X172500000Y-93250000D03*
X173500000Y-93250000D03*
X116500000Y-96500000D03*
X117500000Y-96500000D03*
D16*
X165000000Y-76500000D03*
X165000000Y-77500000D03*
D19*
X151500000Y-87500000D03*
X151500000Y-86500000D03*
D20*
X174750000Y-131500000D03*
X173750000Y-131500000D03*
D35*
X174670000Y-132500000D03*
X173830000Y-132500000D03*
D17*
X116500000Y-107000000D03*
X117500000Y-107000000D03*
D20*
X103000000Y-70000000D03*
X102000000Y-70000000D03*
D41*
X177250000Y-102825000D03*
X177250000Y-100675000D03*
D35*
X177170000Y-132500000D03*
X176330000Y-132500000D03*
D16*
X163000000Y-80750000D03*
X163000000Y-81750000D03*
D35*
X182170000Y-132500000D03*
X181330000Y-132500000D03*
D20*
X98000000Y-70000000D03*
X97000000Y-70000000D03*
D29*
X193720000Y-127890000D03*
X193720000Y-122110000D03*
D30*
X192655000Y-128350000D03*
X192655000Y-127550000D03*
X192655001Y-126250000D03*
X192655000Y-125250000D03*
X192655000Y-124750000D03*
X192655001Y-123750000D03*
X192655000Y-122450000D03*
X192655000Y-121650000D03*
X192655000Y-121950000D03*
X192655000Y-122750000D03*
X192655000Y-123250000D03*
X192655000Y-124250000D03*
X192655000Y-125750000D03*
X192655000Y-126750000D03*
X192655000Y-127250000D03*
X192655000Y-128050000D03*
D31*
X193220000Y-129320000D03*
D32*
X197400000Y-129320000D03*
D31*
X193220000Y-120680000D03*
D32*
X197400000Y-120680000D03*
D16*
X161250000Y-112250000D03*
X161250000Y-113250000D03*
D15*
X190000000Y-92500000D03*
D16*
X104000000Y-97500000D03*
X104000000Y-98500000D03*
D19*
X100250000Y-101750000D03*
X100250000Y-100750000D03*
D20*
X179750000Y-131500000D03*
X178750000Y-131500000D03*
D17*
X116500000Y-92500000D03*
X117500000Y-92500000D03*
D16*
X75250000Y-98750000D03*
X75250000Y-99750000D03*
D42*
X108937500Y-112500000D03*
X111062500Y-112500000D03*
D20*
X191000000Y-126250000D03*
X190000000Y-126250000D03*
X81250000Y-105500000D03*
X80250000Y-105500000D03*
X169750000Y-131500000D03*
X168750000Y-131500000D03*
D43*
X173000000Y-110000001D03*
X173000000Y-112499999D03*
D16*
X158750000Y-80750000D03*
X158750000Y-81750000D03*
X107500000Y-107000000D03*
X107500000Y-108000000D03*
D20*
X182000000Y-109500000D03*
X181000000Y-109500000D03*
X187000000Y-121750000D03*
X186000000Y-121750000D03*
D44*
X78095000Y-102475000D03*
X79365000Y-102475000D03*
X80635000Y-102475000D03*
X81905000Y-102475000D03*
X81905000Y-97525000D03*
X80635000Y-97525000D03*
X79365000Y-97525000D03*
X78095000Y-97525000D03*
D16*
X174750000Y-95250000D03*
X174750000Y-96250000D03*
D20*
X187000000Y-126250000D03*
X186000000Y-126250000D03*
D45*
X188500000Y-125920000D03*
X188500000Y-125080000D03*
D46*
X181500000Y-100725000D03*
X181500000Y-99275000D03*
D16*
X168250000Y-80750000D03*
X168250000Y-81750000D03*
X172250000Y-99250000D03*
X172250000Y-100250000D03*
D20*
X190500000Y-98250000D03*
X189500000Y-98250000D03*
D19*
X164500000Y-68500000D03*
X164500000Y-67500000D03*
D34*
X102000000Y-95275000D03*
X102000000Y-96725000D03*
D27*
X130000000Y-82500000D03*
D28*
X132540000Y-82500000D03*
X130000000Y-85040000D03*
X132540000Y-85040000D03*
X130000000Y-87580000D03*
X132540000Y-87580000D03*
X130000000Y-90120000D03*
X132540000Y-90120000D03*
X130000000Y-92660000D03*
X132540000Y-92660000D03*
X130000000Y-95200000D03*
X132540000Y-95200000D03*
X130000000Y-97740000D03*
X132540000Y-97740000D03*
X130000000Y-100280000D03*
X132540000Y-100280000D03*
X130000000Y-102820000D03*
X132540000Y-102820000D03*
X130000000Y-105360000D03*
X132540000Y-105360000D03*
X130000000Y-107900000D03*
X132540000Y-107900000D03*
X130000000Y-110440000D03*
X132540000Y-110440000D03*
X130000000Y-112980000D03*
X132540000Y-112980000D03*
X130000000Y-115520000D03*
X132540000Y-115520000D03*
D17*
X116500000Y-105000000D03*
X117500000Y-105000000D03*
D16*
X160750000Y-80750000D03*
X160750000Y-81750000D03*
D21*
X117000000Y-97800000D03*
X117000000Y-99700000D03*
D17*
X116500000Y-108000000D03*
X117500000Y-108000000D03*
D39*
X102250000Y-105450000D03*
X102250000Y-103550000D03*
D20*
X182250000Y-131500000D03*
X181250000Y-131500000D03*
D17*
X84500000Y-100500000D03*
X85500000Y-100500000D03*
D16*
X105000000Y-99500000D03*
X105000000Y-100500000D03*
D20*
X147750000Y-94250000D03*
X146750000Y-94250000D03*
D17*
X116500000Y-103000000D03*
X117500000Y-103000000D03*
D16*
X100250000Y-102750000D03*
X100250000Y-103750000D03*
D35*
X179670000Y-132500000D03*
X178830000Y-132500000D03*
D27*
X166125000Y-135000000D03*
D28*
X168665000Y-135000000D03*
X171205000Y-135000000D03*
X173745000Y-135000000D03*
X176285000Y-135000000D03*
X178825000Y-135000000D03*
X181365000Y-135000000D03*
X183905000Y-135000000D03*
D20*
X178000000Y-92750000D03*
X177000000Y-92750000D03*
D15*
X171250000Y-85000000D03*
D19*
X105500000Y-103250000D03*
X105500000Y-102250000D03*
D16*
X75250000Y-100750000D03*
X75250000Y-101750000D03*
X188250000Y-100750000D03*
X188250000Y-101750000D03*
D27*
X139925000Y-135000000D03*
D28*
X142465000Y-135000000D03*
X145005000Y-135000000D03*
X147545000Y-135000000D03*
X150085000Y-135000000D03*
D19*
X155750000Y-81750000D03*
X155750000Y-80750000D03*
X76250000Y-96500000D03*
X76250000Y-95500000D03*
D16*
X166000000Y-112750000D03*
X166000000Y-113750000D03*
D15*
X155750000Y-118500000D03*
D19*
X76250000Y-101750000D03*
X76250000Y-100750000D03*
D36*
X188500000Y-123580000D03*
X188500000Y-124420000D03*
D16*
X79250000Y-104250000D03*
X79250000Y-105250000D03*
D36*
X189250000Y-99830000D03*
X189250000Y-100670000D03*
D17*
X116500000Y-104000000D03*
X117500000Y-104000000D03*
D20*
X100750000Y-96500000D03*
X99750000Y-96500000D03*
D16*
X170000000Y-112250000D03*
X170000000Y-113250000D03*
D45*
X190250000Y-100170000D03*
X190250000Y-99330000D03*
D15*
X67500000Y-100000000D03*
D17*
X172500000Y-95250000D03*
X173500000Y-95250000D03*
D20*
X147500000Y-106250000D03*
X146500000Y-106250000D03*
D47*
X60000000Y-100000000D03*
D48*
X57460000Y-97460000D03*
X57460000Y-102540000D03*
X62540000Y-97460000D03*
X62540000Y-102540000D03*
D19*
X107500000Y-75500000D03*
X107500000Y-74500000D03*
D17*
X186000000Y-122750000D03*
X187000000Y-122750000D03*
%LPD*%
M02*
